<?xml version="1.0" encoding="utf-8" standalone="no"?>
<!DOCTYPE svg PUBLIC "-//W3C//DTD SVG 1.1//EN"
  "http://www.w3.org/Graphics/SVG/1.1/DTD/svg11.dtd">
<!-- Created with matplotlib (http://matplotlib.sourceforge.net/) -->
<svg height="432pt" version="1.1" viewBox="0 0 576 432" width="576pt" xmlns="http://www.w3.org/2000/svg" xmlns:xlink="http://www.w3.org/1999/xlink">
 <defs>
  <style type="text/css">
*{stroke-linecap:square;stroke-linejoin:round;}
  </style>
 </defs>
 <g id="figure_1">
  <g id="patch_1">
   <path d="
M0 432
L576 432
L576 0
L0 0
z
" style="fill:#ffffff;"/>
  </g>
  <g id="axes_1">
   <g id="patch_2">
    <path d="
M72 388.8
L518.4 388.8
L518.4 43.2
L72 43.2
z
" style="fill:#ffffff;"/>
   </g>
   <g id="line2d_1"/>
   <g id="line2d_2"/>
   <g id="line2d_3"/>
   <g id="line2d_4"/>
   <g id="line2d_5"/>
   <g id="line2d_6"/>
   <g id="line2d_7"/>
   <g id="line2d_8"/>
   <g id="line2d_9"/>
   <g id="line2d_10"/>
   <g id="line2d_11">
    <path clip-path="url(#p7ff5b81e1d)" d="
M511.087 388.798
L511.095 388.795
L511.103 388.792
L511.111 388.788
L511.119 388.785
L511.127 388.782
L511.135 388.779
L511.143 388.775
L511.152 388.772
L511.16 388.769
L511.168 388.765
L511.176 388.762
L511.184 388.759
L511.192 388.756" style="fill:none;stroke:#000000;"/>
   </g>
   <g id="line2d_12"/>
   <g id="line2d_13">
    <path clip-path="url(#p7ff5b81e1d)" d="
M435.193 388.798
L446.84 384.345
L458.703 379.569
L470.84 374.442
L483.297 368.938
L496.15 363.014
L509.455 356.634
L511.196 355.782
L511.196 355.782" style="fill:none;stroke:#000000;"/>
   </g>
   <g id="line2d_14">
    <defs>
     <path d="
M0 3
C0.795609 3 1.55874 2.6839 2.12132 2.12132
C2.6839 1.55874 3 0.795609 3 0
C3 -0.795609 2.6839 -1.55874 2.12132 -2.12132
C1.55874 -2.6839 0.795609 -3 0 -3
C-0.795609 -3 -1.55874 -2.6839 -2.12132 -2.12132
C-2.6839 -1.55874 -3 -0.795609 -3 0
C-3 0.795609 -2.6839 1.55874 -2.12132 2.12132
C-1.55874 2.6839 -0.795609 3 0 3
z
" id="m0c4cda11fe" style="stroke:#000000;stroke-linecap:butt;stroke-width:0.5;"/>
    </defs>
    <g clip-path="url(#p7ff5b81e1d)">
     <use style="stroke:#000000;stroke-linecap:butt;stroke-width:0.5;" x="467.037853064" xlink:href="#m0c4cda11fe" y="376.073986873"/>
     <use style="stroke:#000000;stroke-linecap:butt;stroke-width:0.5;" x="498.146930136" xlink:href="#m0c4cda11fe" y="362.071693533"/>
    </g>
   </g>
   <g id="line2d_15">
    <path clip-path="url(#p7ff5b81e1d)" d="
M355.723 388.798
L365.684 385.996
L375.572 382.984
L385.416 379.753
L395.249 376.292
L405.107 372.585
L415.016 368.622
L425.001 364.387
L435.095 359.865
L445.338 355.031
L455.766 349.863
L466.416 344.336
L477.337 338.416
L488.576 332.069
L500.193 325.251
L511.194 318.568
L511.194 318.568" style="fill:none;stroke:#000000;"/>
   </g>
   <g id="line2d_16">
    <g clip-path="url(#p7ff5b81e1d)">
     <use style="stroke:#000000;stroke-linecap:butt;stroke-width:0.5;" x="356.161093057" xlink:href="#m0c4cda11fe" y="388.679430905"/>
     <use style="stroke:#000000;stroke-linecap:butt;stroke-width:0.5;" x="388.615099088" xlink:href="#m0c4cda11fe" y="378.65256788"/>
     <use style="stroke:#000000;stroke-linecap:butt;stroke-width:0.5;" x="420.327090341" xlink:href="#m0c4cda11fe" y="366.399082561"/>
     <use style="stroke:#000000;stroke-linecap:butt;stroke-width:0.5;" x="450.975998351" xlink:href="#m0c4cda11fe" y="352.267278638"/>
     <use style="stroke:#000000;stroke-linecap:butt;stroke-width:0.5;" x="480.426761678" xlink:href="#m0c4cda11fe" y="336.695810216"/>
     <use style="stroke:#000000;stroke-linecap:butt;stroke-width:0.5;" x="508.700149035" xlink:href="#m0c4cda11fe" y="320.102014092"/>
    </g>
   </g>
   <g id="line2d_17">
    <path clip-path="url(#p7ff5b81e1d)" d="
M79.2069 388.8
L125.627 388.689
L157.261 388.401
L181.515 387.965
L201.413 387.392
L218.482 386.682
L233.567 385.836
L247.218 384.852
L259.777 383.726
L271.495 382.454
L282.548 381.033
L293.064 379.458
L303.154 377.724
L312.882 375.828
L322.325 373.761
L331.523 371.522
L340.531 369.1
L349.373 366.493
L358.092 363.691
L366.705 360.69
L375.247 357.478
L383.735 354.048
L392.187 350.393
L400.629 346.5
L409.086 342.355
L417.581 337.943
L426.129 333.251
L434.753 328.264
L443.488 322.955
L452.352 317.306
L461.385 311.284
L470.617 304.861
L480.087 298
L489.847 290.651
L499.947 282.767
L510.449 274.284
L511.197 273.669
L511.197 273.669" style="fill:none;stroke:#000000;"/>
   </g>
   <g id="line2d_18">
    <g clip-path="url(#p7ff5b81e1d)">
     <use style="stroke:#000000;stroke-linecap:butt;stroke-width:0.5;" x="79.2068552567" xlink:href="#m0c4cda11fe" y="388.799999998"/>
     <use style="stroke:#000000;stroke-linecap:butt;stroke-width:0.5;" x="106.723143519" xlink:href="#m0c4cda11fe" y="388.765784202"/>
     <use style="stroke:#000000;stroke-linecap:butt;stroke-width:0.5;" x="134.499214886" xlink:href="#m0c4cda11fe" y="388.631754554"/>
     <use style="stroke:#000000;stroke-linecap:butt;stroke-width:0.5;" x="162.620682049" xlink:href="#m0c4cda11fe" y="388.324402629"/>
     <use style="stroke:#000000;stroke-linecap:butt;stroke-width:0.5;" x="191.210077795" xlink:href="#m0c4cda11fe" y="387.715199441"/>
     <use style="stroke:#000000;stroke-linecap:butt;stroke-width:0.5;" x="220.414857759" xlink:href="#m0c4cda11fe" y="386.586264499"/>
     <use style="stroke:#000000;stroke-linecap:butt;stroke-width:0.5;" x="250.378754502" xlink:href="#m0c4cda11fe" y="384.589499162"/>
     <use style="stroke:#000000;stroke-linecap:butt;stroke-width:0.5;" x="281.172838325" xlink:href="#m0c4cda11fe" y="381.222237848"/>
     <use style="stroke:#000000;stroke-linecap:butt;stroke-width:0.5;" x="312.688629492" xlink:href="#m0c4cda11fe" y="375.867601593"/>
     <use style="stroke:#000000;stroke-linecap:butt;stroke-width:0.5;" x="344.549623884" xlink:href="#m0c4cda11fe" y="367.943980814"/>
     <use style="stroke:#000000;stroke-linecap:butt;stroke-width:0.5;" x="376.141751436" xlink:href="#m0c4cda11fe" y="357.127268072"/>
     <use style="stroke:#000000;stroke-linecap:butt;stroke-width:0.5;" x="406.79912043" xlink:href="#m0c4cda11fe" y="343.499848693"/>
     <use style="stroke:#000000;stroke-linecap:butt;stroke-width:0.5;" x="436.030588437" xlink:href="#m0c4cda11fe" y="327.503796788"/>
     <use style="stroke:#000000;stroke-linecap:butt;stroke-width:0.5;" x="463.630598236" xlink:href="#m0c4cda11fe" y="309.746416827"/>
     <use style="stroke:#000000;stroke-linecap:butt;stroke-width:0.5;" x="489.641725192" xlink:href="#m0c4cda11fe" y="290.808804612"/>
    </g>
   </g>
   <g id="line2d_19">
    <path clip-path="url(#p7ff5b81e1d)" d="
M79.2065 367.2
L128.714 367.089
L161.044 366.805
L185.044 366.381
L204.288 365.825
L220.512 365.139
L234.668 364.323
L247.341 363.373
L258.906 362.286
L269.614 361.059
L279.647 359.687
L289.139 358.167
L298.196 356.494
L306.887 354.663
L315.269 352.671
L323.394 350.512
L331.3 348.182
L339.018 345.677
L346.58 342.99
L354.004 340.115
L361.313 337.047
L368.519 333.782
L375.638 330.311
L382.689 326.627
L389.687 322.719
L396.642 318.58
L403.562 314.203
L410.469 309.57
L417.371 304.673
L424.28 299.497
L431.215 294.022
L438.193 288.23
L445.237 282.092
L452.359 275.59
L459.584 268.691
L466.946 261.352
L474.469 253.536
L482.193 245.188
L490.157 236.25
L498.415 226.645
L507.025 216.287
L511.198 211.145
L511.198 211.145" style="fill:none;stroke:#000000;"/>
   </g>
   <g id="line2d_20">
    <g clip-path="url(#p7ff5b81e1d)">
     <use style="stroke:#000000;stroke-linecap:butt;stroke-width:0.5;" x="79.2065363375" xlink:href="#m0c4cda11fe" y="367.199999999"/>
     <use style="stroke:#000000;stroke-linecap:butt;stroke-width:0.5;" x="105.437464075" xlink:href="#m0c4cda11fe" y="367.173606593"/>
     <use style="stroke:#000000;stroke-linecap:butt;stroke-width:0.5;" x="131.903844576" xlink:href="#m0c4cda11fe" y="367.0710002"/>
     <use style="stroke:#000000;stroke-linecap:butt;stroke-width:0.5;" x="158.687644479" xlink:href="#m0c4cda11fe" y="366.835293616"/>
     <use style="stroke:#000000;stroke-linecap:butt;stroke-width:0.5;" x="185.915362183" xlink:href="#m0c4cda11fe" y="366.360845507"/>
     <use style="stroke:#000000;stroke-linecap:butt;stroke-width:0.5;" x="213.757688005" xlink:href="#m0c4cda11fe" y="365.453522005"/>
     <use style="stroke:#000000;stroke-linecap:butt;stroke-width:0.5;" x="242.416146692" xlink:href="#m0c4cda11fe" y="363.769459128"/>
     <use style="stroke:#000000;stroke-linecap:butt;stroke-width:0.5;" x="272.059202646" xlink:href="#m0c4cda11fe" y="360.745200955"/>
     <use style="stroke:#000000;stroke-linecap:butt;stroke-width:0.5;" x="302.676406925" xlink:href="#m0c4cda11fe" y="355.578445879"/>
     <use style="stroke:#000000;stroke-linecap:butt;stroke-width:0.5;" x="333.884658171" xlink:href="#m0c4cda11fe" y="347.369614746"/>
     <use style="stroke:#000000;stroke-linecap:butt;stroke-width:0.5;" x="364.857300316" xlink:href="#m0c4cda11fe" y="335.47151278"/>
     <use style="stroke:#000000;stroke-linecap:butt;stroke-width:0.5;" x="394.559217034" xlink:href="#m0c4cda11fe" y="319.846833726"/>
     <use style="stroke:#000000;stroke-linecap:butt;stroke-width:0.5;" x="422.176965824" xlink:href="#m0c4cda11fe" y="301.101295877"/>
     <use style="stroke:#000000;stroke-linecap:butt;stroke-width:0.5;" x="447.38615258" xlink:href="#m0c4cda11fe" y="280.161274865"/>
     <use style="stroke:#000000;stroke-linecap:butt;stroke-width:0.5;" x="470.301516466" xlink:href="#m0c4cda11fe" y="257.904504533"/>
     <use style="stroke:#000000;stroke-linecap:butt;stroke-width:0.5;" x="491.268696248" xlink:href="#m0c4cda11fe" y="234.976633598"/>
     <use style="stroke:#000000;stroke-linecap:butt;stroke-width:0.5;" x="510.684551377" xlink:href="#m0c4cda11fe" y="211.782268189"/>
    </g>
   </g>
   <g id="line2d_21">
    <path clip-path="url(#p7ff5b81e1d)" d="
M79.2062 345.6
L132.121 345.489
L165.637 345.209
L189.607 344.797
L208.278 344.26
L223.688 343.601
L236.92 342.817
L248.612 341.906
L259.171 340.864
L268.871 339.686
L277.89 338.368
L286.363 336.908
L294.39 335.301
L302.044 333.544
L309.387 331.631
L316.459 329.561
L323.298 327.328
L329.933 324.928
L336.387 322.359
L342.677 319.615
L348.81 316.698
L354.812 313.597
L360.685 310.313
L366.439 306.841
L372.083 303.176
L377.626 299.31
L383.07 295.242
L388.417 290.969
L393.681 286.477
L398.864 281.762
L403.971 276.815
L409.002 271.631
L413.968 266.193
L418.879 260.486
L423.736 254.498
L428.547 248.213
L433.323 241.607
L438.071 234.657
L442.798 227.341
L447.524 219.615
L452.259 211.445
L457.016 202.79
L461.82 193.583
L466.69 183.767
L471.656 173.251
L476.748 161.94
L482.005 149.718
L487.474 136.429
L493.216 121.886
L499.304 105.854
L505.832 88.0219
L511.2 72.9184
L511.2 72.9184" style="fill:none;stroke:#000000;"/>
   </g>
   <g id="line2d_22">
    <g clip-path="url(#p7ff5b81e1d)">
     <use style="stroke:#000000;stroke-linecap:butt;stroke-width:0.5;" x="79.2062478802" xlink:href="#m0c4cda11fe" y="345.599999999"/>
     <use style="stroke:#000000;stroke-linecap:butt;stroke-width:0.5;" x="104.274322256" xlink:href="#m0c4cda11fe" y="345.579378103"/>
     <use style="stroke:#000000;stroke-linecap:butt;stroke-width:0.5;" x="129.553332726" xlink:href="#m0c4cda11fe" y="345.501275524"/>
     <use style="stroke:#000000;stroke-linecap:butt;stroke-width:0.5;" x="155.11714194" xlink:href="#m0c4cda11fe" y="345.325211887"/>
     <use style="stroke:#000000;stroke-linecap:butt;stroke-width:0.5;" x="181.088244166" xlink:href="#m0c4cda11fe" y="344.971771065"/>
     <use style="stroke:#000000;stroke-linecap:butt;stroke-width:0.5;" x="207.650194945" xlink:href="#m0c4cda11fe" y="344.28235408"/>
     <use style="stroke:#000000;stroke-linecap:butt;stroke-width:0.5;" x="235.058728457" xlink:href="#m0c4cda11fe" y="342.942101766"/>
     <use style="stroke:#000000;stroke-linecap:butt;stroke-width:0.5;" x="263.606426587" xlink:href="#m0c4cda11fe" y="340.353490396"/>
     <use style="stroke:#000000;stroke-linecap:butt;stroke-width:0.5;" x="293.458410196" xlink:href="#m0c4cda11fe" y="335.499751897"/>
     <use style="stroke:#000000;stroke-linecap:butt;stroke-width:0.5;" x="324.295904864" xlink:href="#m0c4cda11fe" y="326.982010653"/>
     <use style="stroke:#000000;stroke-linecap:butt;stroke-width:0.5;" x="354.966879912" xlink:href="#m0c4cda11fe" y="313.514217009"/>
     <use style="stroke:#000000;stroke-linecap:butt;stroke-width:0.5;" x="383.693056536" xlink:href="#m0c4cda11fe" y="294.758887193"/>
     <use style="stroke:#000000;stroke-linecap:butt;stroke-width:0.5;" x="408.964014529" xlink:href="#m0c4cda11fe" y="271.670585836"/>
     <use style="stroke:#000000;stroke-linecap:butt;stroke-width:0.5;" x="430.259695256" xlink:href="#m0c4cda11fe" y="245.887327091"/>
     <use style="stroke:#000000;stroke-linecap:butt;stroke-width:0.5;" x="447.958931854" xlink:href="#m0c4cda11fe" y="218.882804539"/>
     <use style="stroke:#000000;stroke-linecap:butt;stroke-width:0.5;" x="462.82482238" xlink:href="#m0c4cda11fe" y="191.598716836"/>
     <use style="stroke:#000000;stroke-linecap:butt;stroke-width:0.5;" x="475.613485016" xlink:href="#m0c4cda11fe" y="164.506975691"/>
     <use style="stroke:#000000;stroke-linecap:butt;stroke-width:0.5;" x="486.924148631" xlink:href="#m0c4cda11fe" y="137.7917521"/>
     <use style="stroke:#000000;stroke-linecap:butt;stroke-width:0.5;" x="497.188580514" xlink:href="#m0c4cda11fe" y="111.492864357"/>
     <use style="stroke:#000000;stroke-linecap:butt;stroke-width:0.5;" x="506.706160947" xlink:href="#m0c4cda11fe" y="85.5880964991"/>
    </g>
   </g>
   <g id="line2d_23">
    <path clip-path="url(#p7ff5b81e1d)" d="
M79.206 324
L135.098 323.889
L170.627 323.611
L195.05 323.208
L213.379 322.693
L228.068 322.064
L240.404 321.318
L251.127 320.452
L260.677 319.462
L269.353 318.341
L277.346 317.088
L284.799 315.696
L291.805 314.163
L298.435 312.487
L304.754 310.661
L310.796 308.686
L316.593 306.557
L322.166 304.275
L327.546 301.833
L332.741 299.231
L337.758 296.47
L342.606 293.549
L347.296 290.464
L351.829 287.217
L356.208 283.807
L360.442 280.229
L364.527 276.485
L368.465 272.574
L372.252 268.5
L375.89 264.261
L379.381 259.851
L382.725 255.268
L385.918 250.514
L388.961 245.586
L391.852 240.479
L394.586 235.196
L397.166 229.725
L399.591 224.063
L401.856 218.206
L403.963 212.141
L405.909 205.858
L407.689 199.354
L409.306 192.604
L410.754 185.597
L412.032 178.311
L413.137 170.721
L414.063 162.797
L414.808 154.506
L415.365 145.796
L415.727 136.63
L415.885 126.941
L415.829 116.651
L415.543 105.673
L415.012 93.8939
L414.212 81.1734
L413.117 67.336
L411.688 52.1605
L410.751 43.2048
L410.751 43.2048" style="fill:none;stroke:#000000;"/>
   </g>
   <g id="line2d_24">
    <g clip-path="url(#p7ff5b81e1d)">
     <use style="stroke:#000000;stroke-linecap:butt;stroke-width:0.5;" x="79.2059942894" xlink:href="#m0c4cda11fe" y="323.999999999"/>
     <use style="stroke:#000000;stroke-linecap:butt;stroke-width:0.5;" x="103.25259443" xlink:href="#m0c4cda11fe" y="323.982888331"/>
     <use style="stroke:#000000;stroke-linecap:butt;stroke-width:0.5;" x="127.488602939" xlink:href="#m0c4cda11fe" y="323.920974069"/>
     <use style="stroke:#000000;stroke-linecap:butt;stroke-width:0.5;" x="151.976025955" xlink:href="#m0c4cda11fe" y="323.787973069"/>
     <use style="stroke:#000000;stroke-linecap:butt;stroke-width:0.5;" x="176.824360192" xlink:href="#m0c4cda11fe" y="323.530720802"/>
     <use style="stroke:#000000;stroke-linecap:butt;stroke-width:0.5;" x="202.213384868" xlink:href="#m0c4cda11fe" y="323.034917774"/>
     <use style="stroke:#000000;stroke-linecap:butt;stroke-width:0.5;" x="228.433969433" xlink:href="#m0c4cda11fe" y="322.044697113"/>
     <use style="stroke:#000000;stroke-linecap:butt;stroke-width:0.5;" x="255.91406527" xlink:href="#m0c4cda11fe" y="319.984483116"/>
     <use style="stroke:#000000;stroke-linecap:butt;stroke-width:0.5;" x="285.105189064" xlink:href="#m0c4cda11fe" y="315.633459773"/>
     <use style="stroke:#000000;stroke-linecap:butt;stroke-width:0.5;" x="315.932993111" xlink:href="#m0c4cda11fe" y="306.811509745"/>
     <use style="stroke:#000000;stroke-linecap:butt;stroke-width:0.5;" x="346.722443963" xlink:href="#m0c4cda11fe" y="290.855829137"/>
     <use style="stroke:#000000;stroke-linecap:butt;stroke-width:0.5;" x="373.896787766" xlink:href="#m0c4cda11fe" y="266.625595901"/>
     <use style="stroke:#000000;stroke-linecap:butt;stroke-width:0.5;" x="394.123110703" xlink:href="#m0c4cda11fe" y="236.124249424"/>
     <use style="stroke:#000000;stroke-linecap:butt;stroke-width:0.5;" x="406.71656879" xlink:href="#m0c4cda11fe" y="203.009348938"/>
     <use style="stroke:#000000;stroke-linecap:butt;stroke-width:0.5;" x="413.22429616" xlink:href="#m0c4cda11fe" y="170.044576453"/>
     <use style="stroke:#000000;stroke-linecap:butt;stroke-width:0.5;" x="415.673773558" xlink:href="#m0c4cda11fe" y="138.413641728"/>
     <use style="stroke:#000000;stroke-linecap:butt;stroke-width:0.5;" x="415.631481122" xlink:href="#m0c4cda11fe" y="108.316000819"/>
     <use style="stroke:#000000;stroke-linecap:butt;stroke-width:0.5;" x="414.096923813" xlink:href="#m0c4cda11fe" y="79.5716207115"/>
     <use style="stroke:#000000;stroke-linecap:butt;stroke-width:0.5;" x="411.664073258" xlink:href="#m0c4cda11fe" y="51.9206592357"/>
    </g>
   </g>
   <g id="line2d_25">
    <path clip-path="url(#p7ff5b81e1d)" d="
M79.2058 302.4
L136.531 302.289
L175.139 302.006
L201.048 301.608
L219.545 301.111
L233.735 300.516
L245.264 299.816
L255.032 299.006
L263.575 298.078
L271.209 297.029
L278.157 295.854
L284.563 294.547
L290.529 293.106
L296.131 291.526
L301.418 289.806
L306.434 287.941
L311.196 285.935
L315.734 283.784
L320.059 281.488
L324.187 279.047
L328.117 276.465
L331.86 273.742
L335.423 270.875
L338.802 267.872
L341.999 264.732
L345.011 261.464
L347.833 258.074
L350.469 254.561
L352.916 250.929
L355.17 247.185
L357.225 243.342
L359.082 239.397
L360.74 235.354
L362.192 231.227
L363.436 227.021
L364.471 222.741
L365.293 218.391
L365.9 213.985
L366.291 209.517
L366.463 205.004
L366.413 200.448
L366.14 195.855
L365.643 191.24
L364.919 186.598
L363.967 181.935
L362.784 177.256
L361.368 172.566
L359.719 167.874
L357.831 163.175
L355.704 158.477
L353.332 153.78
L350.709 149.082
L347.836 144.394
L344.703 139.707
L341.3 135.018
L337.616 130.322
L333.641 125.619
L329.367 120.907
L324.772 116.174
L319.83 111.405
L314.522 106.593
L308.816 101.724
L302.677 96.7805
L296.058 91.7381
L288.902 86.5689
L281.142 81.2405
L272.689 75.7095
L263.441 69.9272
L253.257 63.826
L241.962 57.3226
L229.336 50.3138
L216.106 43.2027
L216.106 43.2027" style="fill:none;stroke:#000000;"/>
   </g>
   <g id="line2d_26">
    <g clip-path="url(#p7ff5b81e1d)">
     <use style="stroke:#000000;stroke-linecap:butt;stroke-width:0.5;" x="79.2057801635" xlink:href="#m0c4cda11fe" y="302.399999999"/>
     <use style="stroke:#000000;stroke-linecap:butt;stroke-width:0.5;" x="102.392240998" xlink:href="#m0c4cda11fe" y="302.384370681"/>
     <use style="stroke:#000000;stroke-linecap:butt;stroke-width:0.5;" x="125.753972527" xlink:href="#m0c4cda11fe" y="302.330439832"/>
     <use style="stroke:#000000;stroke-linecap:butt;stroke-width:0.5;" x="149.339730007" xlink:href="#m0c4cda11fe" y="302.221874161"/>
     <use style="stroke:#000000;stroke-linecap:butt;stroke-width:0.5;" x="173.238986359" xlink:href="#m0c4cda11fe" y="302.027028769"/>
     <use style="stroke:#000000;stroke-linecap:butt;stroke-width:0.5;" x="197.608102454" xlink:href="#m0c4cda11fe" y="301.676267668"/>
     <use style="stroke:#000000;stroke-linecap:butt;stroke-width:0.5;" x="222.734291469" xlink:href="#m0c4cda11fe" y="300.997069244"/>
     <use style="stroke:#000000;stroke-linecap:butt;stroke-width:0.5;" x="249.147157654" xlink:href="#m0c4cda11fe" y="299.521436254"/>
     <use style="stroke:#000000;stroke-linecap:butt;stroke-width:0.5;" x="277.698013229" xlink:href="#m0c4cda11fe" y="295.938719255"/>
     <use style="stroke:#000000;stroke-linecap:butt;stroke-width:0.5;" x="308.979311832" xlink:href="#m0c4cda11fe" y="286.899194884"/>
     <use style="stroke:#000000;stroke-linecap:butt;stroke-width:0.5;" x="340.365676824" xlink:href="#m0c4cda11fe" y="266.375727396"/>
     <use style="stroke:#000000;stroke-linecap:butt;stroke-width:0.5;" x="362.283415031" xlink:href="#m0c4cda11fe" y="230.943174926"/>
     <use style="stroke:#000000;stroke-linecap:butt;stroke-width:0.5;" x="365.211141667" xlink:href="#m0c4cda11fe" y="188.303884384"/>
     <use style="stroke:#000000;stroke-linecap:butt;stroke-width:0.5;" x="351.34076448" xlink:href="#m0c4cda11fe" y="150.173055713"/>
     <use style="stroke:#000000;stroke-linecap:butt;stroke-width:0.5;" x="329.092419243" xlink:href="#m0c4cda11fe" y="120.614968366"/>
     <use style="stroke:#000000;stroke-linecap:butt;stroke-width:0.5;" x="304.241238095" xlink:href="#m0c4cda11fe" y="98.0142281846"/>
     <use style="stroke:#000000;stroke-linecap:butt;stroke-width:0.5;" x="279.16645228" xlink:href="#m0c4cda11fe" y="79.9243613691"/>
     <use style="stroke:#000000;stroke-linecap:butt;stroke-width:0.5;" x="254.588921342" xlink:href="#m0c4cda11fe" y="64.6099452659"/>
     <use style="stroke:#000000;stroke-linecap:butt;stroke-width:0.5;" x="230.634542895" xlink:href="#m0c4cda11fe" y="51.0236237288"/>
    </g>
   </g>
   <g id="line2d_27">
    <path clip-path="url(#p7ff5b81e1d)" d="
M79.2056 280.8
L136.183 280.689
L177.72 280.397
L206.78 279.984
L226.7 279.492
L240.975 278.927
L251.907 278.28
L260.774 277.539
L268.28 276.694
L274.838 275.736
L280.693 274.66
L286.013 273.459
L290.903 272.129
L295.436 270.669
L299.666 269.074
L303.629 267.344
L307.342 265.482
L310.831 263.486
L314.102 261.36
L317.168 259.103
L320.029 256.722
L322.686 254.223
L325.14 251.61
L327.387 248.895
L329.43 246.078
L331.265 243.171
L332.889 240.18
L334.295 237.127
L335.483 234.02
L336.455 230.853
L337.203 227.66
L337.729 224.446
L338.032 221.218
L338.112 217.993
L337.97 214.793
L337.607 211.621
L337.026 208.495
L336.228 205.419
L335.223 202.426
L334.012 199.517
L332.603 196.711
L330.997 194.007
L329.212 191.437
L327.25 189.001
L325.121 186.713
L322.838 184.586
L320.415 182.631
L317.852 180.85
L315.178 179.262
L312.392 177.867
L309.512 176.674
L306.569 175.695
L303.565 174.928
L300.497 174.375
L297.401 174.042
L294.295 173.932
L291.177 174.043
L288.082 174.375
L285.011 174.928
L281.978 175.699
L279.003 176.686
L276.1 177.884
L273.287 179.285
L270.577 180.883
L267.987 182.668
L265.514 184.642
L263.187 186.783
L261.005 189.093
L258.993 191.546
L257.149 194.144
L255.483 196.872
L254.006 199.718
L252.725 202.666
L251.642 205.719
L250.77 208.844
L250.112 212.025
L249.669 215.264
L249.446 218.543
L249.444 221.847
L249.666 225.158
L250.111 228.46
L250.776 231.736
L251.664 234.987
L252.767 238.179
L254.084 241.313
L255.611 244.373
L257.341 247.344
L259.276 250.224
L261.409 252.999
L263.73 255.653
L266.231 258.173
L268.898 260.547
L271.734 262.772
L274.726 264.838
L277.873 266.741
L281.162 268.469
L284.58 270.014
L288.125 271.372
L291.782 272.534
L295.548 273.498
L299.42 274.258
L303.383 274.809
L307.418 275.145
L311.534 275.265
L315.713 275.164
L319.963 274.839
L324.264 274.286
L328.621 273.502
L333.025 272.483
L337.479 271.223
L341.972 269.719
L346.505 267.968
L351.076 265.963
L355.691 263.694
L360.354 261.154
L365.068 258.331
L369.841 255.212
L374.685 251.779
L379.604 248.019
L384.619 243.904
L389.753 239.401
L395.031 234.473
L400.478 229.08
L406.142 223.155
L412.069 216.63
L418.326 209.406
L424.993 201.363
L432.175 192.345
L440.015 182.137
L448.704 170.45
L458.502 156.889
L469.785 140.882
L483.099 121.596
L499.275 97.7573
L511.198 79.9867
L511.198 79.9867" style="fill:none;stroke:#000000;"/>
   </g>
   <g id="line2d_28">
    <g clip-path="url(#p7ff5b81e1d)">
     <use style="stroke:#000000;stroke-linecap:butt;stroke-width:0.5;" x="79.2056100334" xlink:href="#m0c4cda11fe" y="280.799999999"/>
     <use style="stroke:#000000;stroke-linecap:butt;stroke-width:0.5;" x="101.713025228" xlink:href="#m0c4cda11fe" y="280.784721468"/>
     <use style="stroke:#000000;stroke-linecap:butt;stroke-width:0.5;" x="124.394051762" xlink:href="#m0c4cda11fe" y="280.733226201"/>
     <use style="stroke:#000000;stroke-linecap:butt;stroke-width:0.5;" x="147.287027944" xlink:href="#m0c4cda11fe" y="280.633858989"/>
     <use style="stroke:#000000;stroke-linecap:butt;stroke-width:0.5;" x="170.461101202" xlink:href="#m0c4cda11fe" y="280.467405081"/>
     <use style="stroke:#000000;stroke-linecap:butt;stroke-width:0.5;" x="194.036463926" xlink:href="#m0c4cda11fe" y="280.196700425"/>
     <use style="stroke:#000000;stroke-linecap:butt;stroke-width:0.5;" x="218.248837466" xlink:href="#m0c4cda11fe" y="279.731861959"/>
     <use style="stroke:#000000;stroke-linecap:butt;stroke-width:0.5;" x="243.621539919" xlink:href="#m0c4cda11fe" y="278.791696578"/>
     <use style="stroke:#000000;stroke-linecap:butt;stroke-width:0.5;" x="271.390015355" xlink:href="#m0c4cda11fe" y="276.269112144"/>
     <use style="stroke:#000000;stroke-linecap:butt;stroke-width:0.5;" x="303.695653978" xlink:href="#m0c4cda11fe" y="267.312612636"/>
     <use style="stroke:#000000;stroke-linecap:butt;stroke-width:0.5;" x="334.888043023" xlink:href="#m0c4cda11fe" y="235.653036286"/>
     <use style="stroke:#000000;stroke-linecap:butt;stroke-width:0.5;" x="317.397316149" xlink:href="#m0c4cda11fe" y="180.561245601"/>
     <use style="stroke:#000000;stroke-linecap:butt;stroke-width:0.5;" x="254.449671257" xlink:href="#m0c4cda11fe" y="198.811544659"/>
     <use style="stroke:#000000;stroke-linecap:butt;stroke-width:0.5;" x="269.625250388" xlink:href="#m0c4cda11fe" y="261.144147618"/>
     <use style="stroke:#000000;stroke-linecap:butt;stroke-width:0.5;" x="322.595291247" xlink:href="#m0c4cda11fe" y="274.526948757"/>
     <use style="stroke:#000000;stroke-linecap:butt;stroke-width:0.5;" x="363.838659363" xlink:href="#m0c4cda11fe" y="259.091794238"/>
     <use style="stroke:#000000;stroke-linecap:butt;stroke-width:0.5;" x="392.71343478" xlink:href="#m0c4cda11fe" y="236.673401629"/>
     <use style="stroke:#000000;stroke-linecap:butt;stroke-width:0.5;" x="414.742576312" xlink:href="#m0c4cda11fe" y="213.583904828"/>
     <use style="stroke:#000000;stroke-linecap:butt;stroke-width:0.5;" x="433.133623368" xlink:href="#m0c4cda11fe" y="191.116402781"/>
     <use style="stroke:#000000;stroke-linecap:butt;stroke-width:0.5;" x="449.475722841" xlink:href="#m0c4cda11fe" y="169.395327304"/>
     <use style="stroke:#000000;stroke-linecap:butt;stroke-width:0.5;" x="464.578631148" xlink:href="#m0c4cda11fe" y="148.313626969"/>
     <use style="stroke:#000000;stroke-linecap:butt;stroke-width:0.5;" x="478.881802877" xlink:href="#m0c4cda11fe" y="127.743734491"/>
     <use style="stroke:#000000;stroke-linecap:butt;stroke-width:0.5;" x="492.639630948" xlink:href="#m0c4cda11fe" y="107.579379088"/>
     <use style="stroke:#000000;stroke-linecap:butt;stroke-width:0.5;" x="506.008168325" xlink:href="#m0c4cda11fe" y="87.7386992009"/>
    </g>
   </g>
   <g id="line2d_29">
    <path clip-path="url(#p7ff5b81e1d)" d="
M79.2055 259.2
L136.401 259.089
L178.613 258.795
L210.555 258.359
L234.145 257.827
L250.336 257.255
L261.372 256.654
L269.451 256.001
L275.822 255.27
L281.13 254.443
L285.725 253.507
L289.796 252.454
L293.475 251.276
L296.822 249.973
L299.894 248.542
L302.72 246.981
L305.315 245.296
L307.689 243.492
L309.846 241.575
L311.794 239.55
L313.531 237.424
L315.051 235.217
L316.357 232.933
L317.444 230.586
L318.31 228.19
L318.953 225.757
L319.369 223.317
L319.56 220.881
L319.527 218.457
L319.273 216.073
L318.803 213.759
L318.122 211.518
L317.241 209.377
L316.16 207.336
L314.91 205.445
L313.493 203.701
L311.908 202.101
L310.195 200.688
L308.353 199.456
L306.402 198.423
L304.405 197.613
L302.319 197.007
L300.206 196.626
L298.098 196.469
L295.979 196.533
L293.875 196.823
L291.865 197.322
L289.926 198.03
L288.086 198.937
L286.37 200.027
L284.801 201.28
L283.354 202.723
L282.096 204.293
L281.042 205.957
L280.169 207.75
L279.521 209.578
L279.077 211.484
L278.853 213.444
L278.853 215.338
L279.068 217.224
L279.497 219.072
L280.134 220.855
L280.971 222.543
L281.991 224.11
L283.174 225.531
L284.493 226.784
L286.035 227.931
L287.678 228.862
L289.382 229.569
L291.102 230.051
L292.972 230.334
L294.794 230.38
L296.522 230.214
L298.315 229.816
L299.945 229.236
L301.583 228.412
L302.997 227.465
L304.359 226.284
L305.456 225.067
L306.454 223.649
L307.311 222.017
L307.882 220.489
L308.284 218.807
L308.473 216.976
L308.438 215.412
L308.202 213.773
L307.732 212.077
L306.989 210.352
L306.225 209.063
L305.264 207.803
L304.087 206.603
L302.673 205.501
L301.008 204.549
L299.751 204.028
L298.377 203.625
L296.886 203.367
L295.284 203.288
L293.582 203.423
L291.802 203.817
L289.973 204.519
L288.143 205.583
L286.385 207.068
L285.564 207.987
L284.802 209.033
L284.122 210.212
L283.546 211.528
L283.105 212.983
L282.833 214.575
L282.772 216.296
L282.969 218.131
L283.483 220.051
L284.376 222.011
L285.721 223.938
L287.593 225.725
L290.06 227.207
L293.164 228.143
L293.164 228.143" style="fill:none;stroke:#000000;"/>
   </g>
   <g id="line2d_30">
    <g clip-path="url(#p7ff5b81e1d)">
     <use style="stroke:#000000;stroke-linecap:butt;stroke-width:0.5;" x="79.205488004" xlink:href="#m0c4cda11fe" y="259.199999999"/>
     <use style="stroke:#000000;stroke-linecap:butt;stroke-width:0.5;" x="101.232653442" xlink:href="#m0c4cda11fe" y="259.185599056"/>
     <use style="stroke:#000000;stroke-linecap:butt;stroke-width:0.5;" x="123.448750946" xlink:href="#m0c4cda11fe" y="259.136863293"/>
     <use style="stroke:#000000;stroke-linecap:butt;stroke-width:0.5;" x="145.889832307" xlink:href="#m0c4cda11fe" y="259.042849829"/>
     <use style="stroke:#000000;stroke-linecap:butt;stroke-width:0.5;" x="168.615712435" xlink:href="#m0c4cda11fe" y="258.887342032"/>
     <use style="stroke:#000000;stroke-linecap:butt;stroke-width:0.5;" x="191.719957359" xlink:href="#m0c4cda11fe" y="258.64477395"/>
     <use style="stroke:#000000;stroke-linecap:butt;stroke-width:0.5;" x="215.37044386" xlink:href="#m0c4cda11fe" y="258.26947307"/>
     <use style="stroke:#000000;stroke-linecap:butt;stroke-width:0.5;" x="239.946957888" xlink:href="#m0c4cda11fe" y="257.650068743"/>
     <use style="stroke:#000000;stroke-linecap:butt;stroke-width:0.5;" x="266.670353667" xlink:href="#m0c4cda11fe" y="256.254024333"/>
     <use style="stroke:#000000;stroke-linecap:butt;stroke-width:0.5;" x="300.599861992" xlink:href="#m0c4cda11fe" y="248.175724744"/>
     <use style="stroke:#000000;stroke-linecap:butt;stroke-width:0.5;" x="282.034452418" xlink:href="#m0c4cda11fe" y="224.167944315"/>
    </g>
   </g>
   <g id="line2d_31">
    <path clip-path="url(#p7ff5b81e1d)" d="
M79.2054 237.6
L142.86 237.489
L185.851 237.204
L216.666 236.788
L240.168 236.257
L260.103 235.586
L280.966 234.656
L287.092 234.2
L290.807 233.709
L293.717 233.106
L296.191 232.37
L298.371 231.493
L300.31 230.477
L302.042 229.323
L303.587 228.029
L304.931 226.616
L306.084 225.082
L307.028 223.453
L307.756 221.754
L308.262 220.009
L308.547 218.235
L308.609 216.44
L308.446 214.671
L308.071 212.978
L307.491 211.356
L306.695 209.795
L305.729 208.384
L304.589 207.105
L303.3 205.99
L301.899 205.062
L300.345 204.304
L298.753 203.77
L297.075 203.444
L295.342 203.343
L293.711 203.463
L292.113 203.789
L290.584 204.31
L289.03 205.083
L287.613 206.046
L286.368 207.165
L285.316 208.393
L284.373 209.849
L283.669 211.348
L283.194 212.824
L282.894 214.454
L282.815 216.234
L282.967 217.866
L283.369 219.579
L283.928 221.046
L284.727 222.524
L285.799 223.975
L286.877 225.083
L288.172 226.107
L289.699 227.003
L291.004 227.557
L292.449 227.977
L294.032 228.226
L295.746 228.263
L297.575 228.037
L299.489 227.488
L300.789 226.91
L302.086 226.136
L303.352 225.143
L304.549 223.908
L305.629 222.409
L306.528 220.627
L307.163 218.551
L307.349 217.405
L307.426 216.188
L307.377 214.908
L307.18 213.572
L306.813 212.192
L306.251 210.785
L305.466 209.376
L304.429 207.999
L303.113 206.697
L301.487 205.532
L299.531 204.586
L297.234 203.964
L294.609 203.81
L291.713 204.307
L288.685 205.685
L285.807 208.219
L283.618 212.179
L283.122 217.673
L286.073 224.082
L294.936 228.186
L294.936 228.186" style="fill:none;stroke:#000000;"/>
   </g>
   <g id="line2d_32">
    <g clip-path="url(#p7ff5b81e1d)">
     <use style="stroke:#000000;stroke-linecap:butt;stroke-width:0.5;" x="79.2054173381" xlink:href="#m0c4cda11fe" y="237.599999999"/>
     <use style="stroke:#000000;stroke-linecap:butt;stroke-width:0.5;" x="100.964578863" xlink:href="#m0c4cda11fe" y="237.589256144"/>
     <use style="stroke:#000000;stroke-linecap:butt;stroke-width:0.5;" x="122.947050499" xlink:href="#m0c4cda11fe" y="237.552258757"/>
     <use style="stroke:#000000;stroke-linecap:butt;stroke-width:0.5;" x="145.198930536" xlink:href="#m0c4cda11fe" y="237.479159699"/>
     <use style="stroke:#000000;stroke-linecap:butt;stroke-width:0.5;" x="167.79317456" xlink:href="#m0c4cda11fe" y="237.35443444"/>
     <use style="stroke:#000000;stroke-linecap:butt;stroke-width:0.5;" x="190.838347077" xlink:href="#m0c4cda11fe" y="237.152138066"/>
     <use style="stroke:#000000;stroke-linecap:butt;stroke-width:0.5;" x="214.50729089" xlink:href="#m0c4cda11fe" y="236.825762089"/>
     <use style="stroke:#000000;stroke-linecap:butt;stroke-width:0.5;" x="239.105584548" xlink:href="#m0c4cda11fe" y="236.286061699"/>
     <use style="stroke:#000000;stroke-linecap:butt;stroke-width:0.5;" x="265.337344213" xlink:href="#m0c4cda11fe" y="235.37386029"/>
     <use style="stroke:#000000;stroke-linecap:butt;stroke-width:0.5;" x="302.05269867" xlink:href="#m0c4cda11fe" y="229.315345211"/>
    </g>
   </g>
   <g id="line2d_33">
    <path clip-path="url(#p7ff5b81e1d)" d="
M79.2054 216
L201.068 215.889
L249.571 215.646
L275.403 215.311
L288.981 215.176
L292.065 215.373
L294.087 215.702
L295.089 215.965
L295.089 215.965" style="fill:none;stroke:#000000;"/>
   </g>
   <g id="line2d_34">
    <g clip-path="url(#p7ff5b81e1d)">
     <use style="stroke:#000000;stroke-linecap:butt;stroke-width:0.5;" x="79.2054000608" xlink:href="#m0c4cda11fe" y="216.0"/>
     <use style="stroke:#000000;stroke-linecap:butt;stroke-width:0.5;" x="100.916006945" xlink:href="#m0c4cda11fe" y="215.998036184"/>
     <use style="stroke:#000000;stroke-linecap:butt;stroke-width:0.5;" x="122.901370711" xlink:href="#m0c4cda11fe" y="215.991190259"/>
     <use style="stroke:#000000;stroke-linecap:butt;stroke-width:0.5;" x="145.230309196" xlink:href="#m0c4cda11fe" y="215.977416019"/>
     <use style="stroke:#000000;stroke-linecap:butt;stroke-width:0.5;" x="168.015041566" xlink:href="#m0c4cda11fe" y="215.953279179"/>
     <use style="stroke:#000000;stroke-linecap:butt;stroke-width:0.5;" x="191.439048033" xlink:href="#m0c4cda11fe" y="215.912467206"/>
     <use style="stroke:#000000;stroke-linecap:butt;stroke-width:0.5;" x="215.840169814" xlink:href="#m0c4cda11fe" y="215.841705115"/>
     <use style="stroke:#000000;stroke-linecap:butt;stroke-width:0.5;" x="241.98450739" xlink:href="#m0c4cda11fe" y="215.706025824"/>
     <use style="stroke:#000000;stroke-linecap:butt;stroke-width:0.5;" x="272.824385773" xlink:href="#m0c4cda11fe" y="215.356059658"/>
    </g>
   </g>
   <g id="line2d_35">
    <path clip-path="url(#p7ff5b81e1d)" d="
M264.185 216
L264.294 218.604
L264.622 221.19
L265.166 223.738
L265.921 226.233
L266.884 228.655
L268.046 230.987
L269.4 233.214
L270.937 235.319
L272.644 237.288
L274.511 239.107
L276.524 240.762
L278.669 242.243
L280.931 243.538
L283.293 244.639
L285.74 245.537
L288.253 246.227
L290.815 246.704
L293.409 246.963
L296.015 247.005
L298.615 246.827
L301.191 246.431
L303.725 245.821
L306.198 245
L308.594 243.974
L310.895 242.751
L313.086 241.339
L315.15 239.747
L317.073 237.989
L318.842 236.075
L320.444 234.019
L321.868 231.836
L323.103 229.541
L324.142 227.15
L324.976 224.681
L325.599 222.151
L326.008 219.577
L326.2 216.977
L326.172 214.371
L325.926 211.777
L325.463 209.212
L324.787 206.695
L323.901 204.244
L322.813 201.876
L321.529 199.607
L320.06 197.455
L318.415 195.433
L316.607 193.557
L314.647 191.839
L312.549 190.291
L310.33 188.925
L308.003 187.751
L305.586 186.776
L303.096 186.007
L300.55 185.45
L297.966 185.108
L295.363 184.985
L292.758 185.081
L290.171 185.395
L287.619 185.925
L285.121 186.668
L282.694 187.618
L280.355 188.768
L278.122 190.11
L276.008 191.636
L274.03 193.333
L272.202 195.19
L270.536 197.195
L269.044 199.332
L267.737 201.587
L266.624 203.943
L265.713 206.385
L265.01 208.894
L264.52 211.454
L264.246 214.046
L264.185 216
L264.185 216" style="fill:none;stroke:#0000ff;"/>
   </g>
   <g id="line2d_36">
    <path clip-path="url(#p7ff5b81e1d)" d="
M283.015 216
L283.112 217.532
L283.401 219.04
L283.877 220.5
L284.532 221.888
L285.357 223.183
L286.339 224.363
L287.461 225.411
L288.706 226.31
L290.054 227.045
L291.483 227.604
L292.972 227.979
L294.496 228.164
L296.032 228.156
L297.554 227.955
L299.038 227.564
L300.462 226.99
L301.802 226.241
L303.038 225.33
L304.149 224.27
L305.118 223.079
L305.929 221.776
L306.57 220.381
L307.031 218.916
L307.303 217.405
L307.384 215.872
L307.271 214.341
L306.967 212.836
L306.476 211.381
L305.805 210
L304.967 208.714
L303.973 207.544
L302.84 206.508
L301.586 205.622
L300.23 204.902
L298.794 204.357
L297.302 203.998
L295.776 203.829
L294.241 203.853
L292.721 204.07
L291.24 204.477
L289.823 205.066
L288.49 205.829
L287.265 206.753
L286.165 207.825
L285.209 209.026
L284.411 210.337
L283.784 211.739
L283.339 213.208
L283.082 214.722
L283.015 216
L283.015 216" style="fill:none;stroke:#ff0000;stroke-dasharray:6.000000,6.000000;stroke-dashoffset:0.0;stroke-linecap:butt;"/>
   </g>
   <g id="line2d_37">
    <path clip-path="url(#p7ff5b81e1d)" d="
M252 216
L252.086 218.722
L252.343 221.432
L252.77 224.122
L253.366 226.779
L254.128 229.393
L255.054 231.954
L256.139 234.451
L257.379 236.875
L258.769 239.217
L260.304 241.466
L261.978 243.614
L263.783 245.652
L265.714 247.572
L267.761 249.367
L269.918 251.029
L272.175 252.553
L274.524 253.931
L276.954 255.158
L279.458 256.23
L282.023 257.141
L284.641 257.89
L287.301 258.472
L289.993 258.885
L292.705 259.128
L295.427 259.199
L298.148 259.099
L300.857 258.828
L303.544 258.386
L306.198 257.777
L308.808 257.001
L311.364 256.062
L313.856 254.964
L316.274 253.711
L318.608 252.309
L320.849 250.762
L322.988 249.077
L325.016 247.261
L326.927 245.32
L328.711 243.263
L330.362 241.098
L331.873 238.833
L333.239 236.477
L334.453 234.04
L335.512 231.531
L336.41 228.96
L337.145 226.338
L337.713 223.675
L338.112 220.982
L338.34 218.268
L338.398 215.546
L338.283 212.826
L337.998 210.118
L337.542 207.433
L336.918 204.782
L336.129 202.177
L335.176 199.625
L334.065 197.139
L332.8 194.728
L331.385 192.402
L329.827 190.169
L328.13 188.039
L326.303 186.02
L324.353 184.12
L322.287 182.347
L320.113 180.707
L317.84 179.208
L315.477 177.854
L313.033 176.653
L310.519 175.607
L307.944 174.722
L305.318 174.002
L302.652 173.448
L299.956 173.063
L297.242 172.848
L294.519 172.805
L291.799 172.934
L289.093 173.234
L286.411 173.704
L283.763 174.341
L281.162 175.145
L278.616 176.11
L276.136 177.234
L273.731 178.512
L271.412 179.939
L269.187 181.51
L267.066 183.217
L265.057 185.054
L263.167 187.015
L261.405 189.091
L259.777 191.273
L258.289 193.554
L256.948 195.924
L255.759 198.374
L254.727 200.893
L253.856 203.473
L253.149 206.103
L252.609 208.772
L252.238 211.469
L252.038 214.185
L252 216
L252 216" style="fill:none;stroke:#008000;stroke-dasharray:6.000000,6.000000;stroke-dashoffset:0.0;stroke-linecap:butt;"/>
   </g>
   <g id="matplotlib.axis_1">
    <g id="xtick_1">
     <g id="line2d_38">
      <defs>
       <path d="
M0 0
L0 -4" id="m0012dd4eef" style="stroke:#000000;stroke-linecap:butt;stroke-width:0.5;"/>
      </defs>
      <g>
       <use style="stroke:#000000;stroke-linecap:butt;stroke-width:0.5;" x="79.2" xlink:href="#m0012dd4eef" y="388.8"/>
      </g>
     </g>
     <g id="line2d_39">
      <defs>
       <path d="
M0 0
L0 4" id="m476344969c" style="stroke:#000000;stroke-linecap:butt;stroke-width:0.5;"/>
      </defs>
      <g>
       <use style="stroke:#000000;stroke-linecap:butt;stroke-width:0.5;" x="79.2" xlink:href="#m476344969c" y="43.2"/>
      </g>
     </g>
     <g id="text_1">
      <!-- $- 10 M$ -->
      <defs>
       <path d="
M5.07812 0
Q4.10938 0 4.10938 1.3125
Q4.15625 1.5625 4.29688 2.14062
Q4.4375 2.73438 4.6875 3.125
Q4.9375 3.51562 5.42188 3.51562
Q14.9375 3.51562 16.5 9.625
L29.5 61.8125
Q29.6875 62.7969 29.6875 63.1875
Q29.6875 64.2656 28.5156 64.4062
Q26.6094 64.7969 21.2969 64.7969
Q20.3125 64.7969 20.3125 66.1094
Q20.3594 66.3594 20.5 66.9688
Q20.6562 67.5781 20.9219 67.9375
Q21.1875 68.3125 21.5781 68.3125
L39.2031 68.3125
Q40.3281 68.3125 40.4844 67.1875
L48.2969 9.90625
L84.7188 67.1875
Q85.4062 68.3125 86.625 68.3125
L103.609 68.3125
Q104.594 68.3125 104.594 67
Q104.547 66.75 104.391 66.1406
Q104.25 65.5312 103.984 65.1562
Q103.719 64.7969 103.328 64.7969
Q97.2188 64.7969 94.8281 64.1094
Q93.5 63.6719 92.9219 61.375
L79.2031 6.5
Q79 5.51562 79 5.07812
Q79 4.6875 79.125 4.42188
Q79.25 4.15625 79.4688 4.07812
Q79.6875 4 80.1719 3.90625
Q82.0781 3.51562 87.4062 3.51562
Q88.375 3.51562 88.375 2.20312
Q88.0312 0.78125 87.8281 0.390625
Q87.6406 0 86.7188 0
L60.5938 0
Q59.625 0 59.625 1.3125
Q59.6719 1.5625 59.8125 2.17188
Q59.9688 2.78125 60.2344 3.14062
Q60.5 3.51562 60.8906 3.51562
Q67 3.51562 69.3906 4.20312
Q70.7031 4.64062 71.2969 6.89062
L85.6875 64.7969
L45.3125 1.125
Q44.7344 0 43.3125 0
Q42.0469 0 41.8906 1.125
L33.4062 64.0156
L19.6719 9.1875
Q19.5781 8.9375 19.5312 8.5625
Q19.4844 8.20312 19.3906 7.71875
Q19.3906 5.125 21.6562 4.3125
Q23.9219 3.51562 27.2031 3.51562
Q28.2188 3.51562 28.2188 2.20312
Q27.875 0.875 27.6562 0.4375
Q27.4375 0 26.5156 0
z
" id="Cmmi10-4d"/>
       <path d="
M9.28125 0
L9.28125 3.51562
Q21.7812 3.51562 21.7812 6.6875
L21.7812 59.1875
Q16.6094 56.6875 8.6875 56.6875
L8.6875 60.2031
Q20.9531 60.2031 27.2031 66.6094
L28.6094 66.6094
Q28.9531 66.6094 29.2656 66.3281
Q29.5938 66.0625 29.5938 65.7188
L29.5938 6.6875
Q29.5938 3.51562 42.0938 3.51562
L42.0938 0
z
" id="Cmr10-31"/>
       <path d="
M10.2031 23
Q9.375 23 8.82812 23.625
Q8.29688 24.2656 8.29688 25
Q8.29688 25.7344 8.82812 26.3594
Q9.375 27 10.2031 27
L67.5781 27
Q68.3594 27 68.875 26.3594
Q69.3906 25.7344 69.3906 25
Q69.3906 24.2656 68.875 23.625
Q68.3594 23 67.5781 23
z
" id="Cmsy10-a1"/>
       <path d="
M25 -2.20312
Q12.75 -2.20312 8.32812 7.875
Q3.90625 17.9688 3.90625 31.8906
Q3.90625 40.5781 5.48438 48.2344
Q7.07812 55.9062 11.7812 61.25
Q16.5 66.6094 25 66.6094
Q31.5938 66.6094 35.7812 63.375
Q39.9844 60.1562 42.1875 55.0469
Q44.3906 49.9531 45.1875 44.1094
Q46 38.2812 46 31.8906
Q46 23.2969 44.4062 15.7969
Q42.8281 8.29688 38.1875 3.04688
Q33.5469 -2.20312 25 -2.20312
M25 0.390625
Q30.5625 0.390625 33.2969 6.09375
Q36.0312 11.8125 36.6719 18.75
Q37.3125 25.6875 37.3125 33.5
Q37.3125 41.0156 36.6719 47.3594
Q36.0312 53.7188 33.3125 58.8594
Q30.6094 64.0156 25 64.0156
Q19.3438 64.0156 16.6094 58.8281
Q13.875 53.6562 13.2344 47.3281
Q12.5938 41.0156 12.5938 33.5
Q12.5938 27.9375 12.8594 23
Q13.1406 18.0625 14.3125 12.8125
Q15.4844 7.5625 18.0938 3.96875
Q20.7031 0.390625 25 0.390625" id="Cmr10-30"/>
      </defs>
      <g transform="translate(62.7 401.44)scale(0.12 -0.12)">
       <use transform="translate(0.0 3.6875)" xlink:href="#Cmsy10-a1"/>
       <use transform="translate(77.685546875 3.6875)" xlink:href="#Cmr10-31"/>
       <use transform="translate(127.685546875 3.6875)" xlink:href="#Cmr10-30"/>
       <use transform="translate(177.685546875 3.6875)" xlink:href="#Cmmi10-4d"/>
      </g>
     </g>
    </g>
    <g id="xtick_2">
     <g id="line2d_40">
      <g>
       <use style="stroke:#000000;stroke-linecap:butt;stroke-width:0.5;" x="100.8" xlink:href="#m0012dd4eef" y="388.8"/>
      </g>
     </g>
     <g id="line2d_41">
      <g>
       <use style="stroke:#000000;stroke-linecap:butt;stroke-width:0.5;" x="100.8" xlink:href="#m476344969c" y="43.2"/>
      </g>
     </g>
    </g>
    <g id="xtick_3">
     <g id="line2d_42">
      <g>
       <use style="stroke:#000000;stroke-linecap:butt;stroke-width:0.5;" x="122.4" xlink:href="#m0012dd4eef" y="388.8"/>
      </g>
     </g>
     <g id="line2d_43">
      <g>
       <use style="stroke:#000000;stroke-linecap:butt;stroke-width:0.5;" x="122.4" xlink:href="#m476344969c" y="43.2"/>
      </g>
     </g>
     <g id="text_2">
      <!-- $- 8 M$ -->
      <defs>
       <path d="
M4.20312 15.1875
Q4.20312 21.1875 8.15625 25.7969
Q12.1094 30.4219 18.3125 33.5
L14.5938 35.8906
Q11.1875 38.1406 9.03125 41.875
Q6.89062 45.6094 6.89062 49.7031
Q6.89062 54.5 9.40625 58.3438
Q11.9219 62.2031 16.0938 64.4062
Q20.2656 66.6094 25 66.6094
Q29.4375 66.6094 33.5625 64.7969
Q37.7031 62.9844 40.3594 59.6094
Q43.0156 56.25 43.0156 51.6094
Q43.0156 48.25 41.4219 45.3594
Q39.8438 42.4844 37.0781 40.1875
Q34.3281 37.8906 31.2031 36.2812
L36.9219 32.625
Q40.875 30.0312 43.2812 25.8281
Q45.7031 21.625 45.7031 17
Q45.7031 11.5781 42.7969 7.125
Q39.8906 2.6875 35.1094 0.234375
Q30.3281 -2.20312 25 -2.20312
Q19.8281 -2.20312 15.0156 -0.09375
Q10.2031 2 7.20312 5.98438
Q4.20312 9.96875 4.20312 15.1875
M9.625 15.1875
Q9.625 11.2344 11.7969 7.95312
Q13.9688 4.6875 17.5312 2.82812
Q21.0938 0.984375 25 0.984375
Q30.8125 0.984375 35.5469 4.375
Q40.2812 7.76562 40.2812 13.375
Q40.2812 15.2812 39.5156 17.1562
Q38.7656 19.0469 37.4219 20.5781
Q36.0781 22.125 34.4219 23.0938
L21 31.7812
Q17.875 30.125 15.25 27.5781
Q12.6406 25.0469 11.125 21.875
Q9.625 18.7031 9.625 15.1875
M16.5 45.7031
L28.6094 37.8906
Q32.8125 40.3281 35.5 43.7969
Q38.1875 47.2656 38.1875 51.6094
Q38.1875 54.9844 36.2969 57.7812
Q34.4219 60.5938 31.3906 62.1562
Q28.375 63.7188 24.9062 63.7188
Q21.875 63.7188 18.7969 62.5469
Q15.7188 61.375 13.7188 59.0469
Q11.7188 56.7344 11.7188 53.6094
Q11.7188 48.9219 16.5 45.7031" id="Cmr10-38"/>
      </defs>
      <g transform="translate(108.9 401.44)scale(0.12 -0.12)">
       <use transform="translate(0.0 3.6875)" xlink:href="#Cmsy10-a1"/>
       <use transform="translate(77.685546875 3.6875)" xlink:href="#Cmr10-38"/>
       <use transform="translate(127.685546875 3.6875)" xlink:href="#Cmmi10-4d"/>
      </g>
     </g>
    </g>
    <g id="xtick_4">
     <g id="line2d_44">
      <g>
       <use style="stroke:#000000;stroke-linecap:butt;stroke-width:0.5;" x="144.0" xlink:href="#m0012dd4eef" y="388.8"/>
      </g>
     </g>
     <g id="line2d_45">
      <g>
       <use style="stroke:#000000;stroke-linecap:butt;stroke-width:0.5;" x="144.0" xlink:href="#m476344969c" y="43.2"/>
      </g>
     </g>
    </g>
    <g id="xtick_5">
     <g id="line2d_46">
      <g>
       <use style="stroke:#000000;stroke-linecap:butt;stroke-width:0.5;" x="165.6" xlink:href="#m0012dd4eef" y="388.8"/>
      </g>
     </g>
     <g id="line2d_47">
      <g>
       <use style="stroke:#000000;stroke-linecap:butt;stroke-width:0.5;" x="165.6" xlink:href="#m476344969c" y="43.2"/>
      </g>
     </g>
     <g id="text_3">
      <!-- $- 6 M$ -->
      <defs>
       <path d="
M25 -2.20312
Q18.7969 -2.20312 14.6406 1.09375
Q10.5 4.39062 8.21875 9.64062
Q5.95312 14.8906 5.07812 20.6562
Q4.20312 26.4219 4.20312 32.3281
Q4.20312 40.2344 7.28125 48.1875
Q10.3594 56.1562 16.3281 61.375
Q22.3125 66.6094 30.5156 66.6094
Q33.9375 66.6094 36.8906 65.3125
Q39.8438 64.0156 41.5312 61.5
Q43.2188 58.9844 43.2188 55.4219
Q43.2188 53.375 41.8281 51.9844
Q40.4375 50.5938 38.375 50.5938
Q36.4219 50.5938 35 52
Q33.5938 53.4219 33.5938 55.4219
Q33.5938 57.375 35 58.7812
Q36.4219 60.2031 38.375 60.2031
L38.9219 60.2031
Q37.6406 62.0156 35.3281 62.8594
Q33.0156 63.7188 30.5156 63.7188
Q27.4844 63.7188 24.9219 62.3906
Q22.3594 61.0781 20.3125 58.8281
Q18.2656 56.5938 16.8906 53.875
Q15.5312 51.1719 14.7656 47.7031
Q14.0156 44.2344 13.8125 41.2031
Q13.625 38.1875 13.625 33.5938
Q15.375 37.7031 18.5938 40.3125
Q21.8281 42.9219 25.875 42.9219
Q30.3281 42.9219 33.9844 41.1094
Q37.6406 39.3125 40.2812 36.1094
Q42.9219 32.9062 44.3125 28.7969
Q45.7031 24.7031 45.7031 20.5156
Q45.7031 14.6562 43.0938 9.34375
Q40.4844 4.04688 35.7344 0.921875
Q31 -2.20312 25 -2.20312
M25 0.984375
Q28.8594 0.984375 31.2031 2.73438
Q33.5469 4.5 34.6406 7.39062
Q35.75 10.2969 36.0156 13.25
Q36.2812 16.2188 36.2812 20.5156
Q36.2812 26.1719 35.7344 30.1719
Q35.2031 34.1875 32.8125 37.2344
Q30.4219 40.2812 25.4844 40.2812
Q21.4375 40.2812 18.8281 37.5469
Q16.2188 34.8125 15.0156 30.6406
Q13.8125 26.4688 13.8125 22.6094
Q13.8125 21.2969 13.9219 20.6094
Q13.9219 20.4531 13.8906 20.3594
Q13.875 20.2656 13.8125 20.125
Q13.8125 15.8281 14.6875 11.4219
Q15.5781 7.03125 18.0625 4
Q20.5625 0.984375 25 0.984375" id="Cmr10-36"/>
      </defs>
      <g transform="translate(152.1 401.44)scale(0.12 -0.12)">
       <use transform="translate(0.0 3.6875)" xlink:href="#Cmsy10-a1"/>
       <use transform="translate(77.685546875 3.6875)" xlink:href="#Cmr10-36"/>
       <use transform="translate(127.685546875 3.6875)" xlink:href="#Cmmi10-4d"/>
      </g>
     </g>
    </g>
    <g id="xtick_6">
     <g id="line2d_48">
      <g>
       <use style="stroke:#000000;stroke-linecap:butt;stroke-width:0.5;" x="187.2" xlink:href="#m0012dd4eef" y="388.8"/>
      </g>
     </g>
     <g id="line2d_49">
      <g>
       <use style="stroke:#000000;stroke-linecap:butt;stroke-width:0.5;" x="187.2" xlink:href="#m476344969c" y="43.2"/>
      </g>
     </g>
    </g>
    <g id="xtick_7">
     <g id="line2d_50">
      <g>
       <use style="stroke:#000000;stroke-linecap:butt;stroke-width:0.5;" x="208.8" xlink:href="#m0012dd4eef" y="388.8"/>
      </g>
     </g>
     <g id="line2d_51">
      <g>
       <use style="stroke:#000000;stroke-linecap:butt;stroke-width:0.5;" x="208.8" xlink:href="#m476344969c" y="43.2"/>
      </g>
     </g>
     <g id="text_4">
      <!-- $- 4 M$ -->
      <defs>
       <path d="
M2.78125 16.5
L2.78125 20.0156
L33.6875 66.1094
Q34.0312 66.6094 34.7188 66.6094
L36.1875 66.6094
Q37.3125 66.6094 37.3125 65.4844
L37.3125 20.0156
L47.125 20.0156
L47.125 16.5
L37.3125 16.5
L37.3125 6.6875
Q37.3125 4.64062 40.2344 4.07812
Q43.1719 3.51562 47.0156 3.51562
L47.0156 0
L19.4844 0
L19.4844 3.51562
Q23.3438 3.51562 26.2656 4.07812
Q29.2031 4.64062 29.2031 6.6875
L29.2031 16.5
z

M6.10938 20.0156
L29.7812 20.0156
L29.7812 55.4219
z
" id="Cmr10-34"/>
      </defs>
      <g transform="translate(195.3 401.08)scale(0.12 -0.12)">
       <use transform="translate(0.0 0.6875)" xlink:href="#Cmsy10-a1"/>
       <use transform="translate(77.685546875 0.6875)" xlink:href="#Cmr10-34"/>
       <use transform="translate(127.685546875 0.6875)" xlink:href="#Cmmi10-4d"/>
      </g>
     </g>
    </g>
    <g id="xtick_8">
     <g id="line2d_52">
      <g>
       <use style="stroke:#000000;stroke-linecap:butt;stroke-width:0.5;" x="230.4" xlink:href="#m0012dd4eef" y="388.8"/>
      </g>
     </g>
     <g id="line2d_53">
      <g>
       <use style="stroke:#000000;stroke-linecap:butt;stroke-width:0.5;" x="230.4" xlink:href="#m476344969c" y="43.2"/>
      </g>
     </g>
    </g>
    <g id="xtick_9">
     <g id="line2d_54">
      <g>
       <use style="stroke:#000000;stroke-linecap:butt;stroke-width:0.5;" x="252.0" xlink:href="#m0012dd4eef" y="388.8"/>
      </g>
     </g>
     <g id="line2d_55">
      <g>
       <use style="stroke:#000000;stroke-linecap:butt;stroke-width:0.5;" x="252.0" xlink:href="#m476344969c" y="43.2"/>
      </g>
     </g>
     <g id="text_5">
      <!-- $- 2 M$ -->
      <defs>
       <path d="
M4.98438 0
L4.98438 2.6875
Q4.98438 2.9375 5.17188 3.21875
L20.7031 20.4062
Q24.2188 24.2188 26.4062 26.7969
Q28.6094 29.3906 30.75 32.7656
Q32.9062 36.1406 34.1562 39.625
Q35.4062 43.1094 35.4062 47.0156
Q35.4062 51.125 33.8906 54.8594
Q32.375 58.5938 29.375 60.8438
Q26.375 63.0938 22.125 63.0938
Q17.7812 63.0938 14.3125 60.4688
Q10.8438 57.8594 9.42188 53.7188
Q9.8125 53.8125 10.5 53.8125
Q12.75 53.8125 14.3281 52.2969
Q15.9219 50.7812 15.9219 48.3906
Q15.9219 46.0938 14.3281 44.5
Q12.75 42.9219 10.5 42.9219
Q8.15625 42.9219 6.5625 44.5469
Q4.98438 46.1875 4.98438 48.3906
Q4.98438 52.1562 6.39062 55.4375
Q7.8125 58.7344 10.4688 61.2969
Q13.1406 63.875 16.4844 65.2344
Q19.8281 66.6094 23.5781 66.6094
Q29.2969 66.6094 34.2188 64.1875
Q39.1562 61.7656 42.0312 57.3438
Q44.9219 52.9375 44.9219 47.0156
Q44.9219 42.6719 43.0156 38.7656
Q41.1094 34.8594 38.125 31.6562
Q35.1562 28.4688 30.5156 24.4062
Q25.875 20.3594 24.4219 19
L13.0938 8.10938
L22.7031 8.10938
Q29.7812 8.10938 34.5469 8.21875
Q39.3125 8.34375 39.5938 8.59375
Q40.7656 9.85938 42 17.8281
L44.9219 17.8281
L42.0938 0
z
" id="Cmr10-32"/>
      </defs>
      <g transform="translate(238.5 401.08)scale(0.12 -0.12)">
       <use transform="translate(0.0 0.6875)" xlink:href="#Cmsy10-a1"/>
       <use transform="translate(77.685546875 0.6875)" xlink:href="#Cmr10-32"/>
       <use transform="translate(127.685546875 0.6875)" xlink:href="#Cmmi10-4d"/>
      </g>
     </g>
    </g>
    <g id="xtick_10">
     <g id="line2d_56">
      <g>
       <use style="stroke:#000000;stroke-linecap:butt;stroke-width:0.5;" x="273.6" xlink:href="#m0012dd4eef" y="388.8"/>
      </g>
     </g>
     <g id="line2d_57">
      <g>
       <use style="stroke:#000000;stroke-linecap:butt;stroke-width:0.5;" x="273.6" xlink:href="#m476344969c" y="43.2"/>
      </g>
     </g>
    </g>
    <g id="xtick_11">
     <g id="line2d_58">
      <g>
       <use style="stroke:#000000;stroke-linecap:butt;stroke-width:0.5;" x="295.2" xlink:href="#m0012dd4eef" y="388.8"/>
      </g>
     </g>
     <g id="line2d_59">
      <g>
       <use style="stroke:#000000;stroke-linecap:butt;stroke-width:0.5;" x="295.2" xlink:href="#m476344969c" y="43.2"/>
      </g>
     </g>
     <g id="text_6">
      <!-- $0$ -->
      <g transform="translate(292.2 401.2)scale(0.12 -0.12)">
       <use transform="translate(0.0 3.390625)" xlink:href="#Cmr10-30"/>
      </g>
     </g>
    </g>
    <g id="xtick_12">
     <g id="line2d_60">
      <g>
       <use style="stroke:#000000;stroke-linecap:butt;stroke-width:0.5;" x="316.8" xlink:href="#m0012dd4eef" y="388.8"/>
      </g>
     </g>
     <g id="line2d_61">
      <g>
       <use style="stroke:#000000;stroke-linecap:butt;stroke-width:0.5;" x="316.8" xlink:href="#m476344969c" y="43.2"/>
      </g>
     </g>
    </g>
    <g id="xtick_13">
     <g id="line2d_62">
      <g>
       <use style="stroke:#000000;stroke-linecap:butt;stroke-width:0.5;" x="338.4" xlink:href="#m0012dd4eef" y="388.8"/>
      </g>
     </g>
     <g id="line2d_63">
      <g>
       <use style="stroke:#000000;stroke-linecap:butt;stroke-width:0.5;" x="338.4" xlink:href="#m476344969c" y="43.2"/>
      </g>
     </g>
     <g id="text_7">
      <!-- $2 M$ -->
      <g transform="translate(329.52 401.08)scale(0.12 -0.12)">
       <use transform="translate(0.0 0.6875)" xlink:href="#Cmr10-32"/>
       <use transform="translate(50.0 0.6875)" xlink:href="#Cmmi10-4d"/>
      </g>
     </g>
    </g>
    <g id="xtick_14">
     <g id="line2d_64">
      <g>
       <use style="stroke:#000000;stroke-linecap:butt;stroke-width:0.5;" x="360.0" xlink:href="#m0012dd4eef" y="388.8"/>
      </g>
     </g>
     <g id="line2d_65">
      <g>
       <use style="stroke:#000000;stroke-linecap:butt;stroke-width:0.5;" x="360.0" xlink:href="#m476344969c" y="43.2"/>
      </g>
     </g>
    </g>
    <g id="xtick_15">
     <g id="line2d_66">
      <g>
       <use style="stroke:#000000;stroke-linecap:butt;stroke-width:0.5;" x="381.6" xlink:href="#m0012dd4eef" y="388.8"/>
      </g>
     </g>
     <g id="line2d_67">
      <g>
       <use style="stroke:#000000;stroke-linecap:butt;stroke-width:0.5;" x="381.6" xlink:href="#m476344969c" y="43.2"/>
      </g>
     </g>
     <g id="text_8">
      <!-- $4 M$ -->
      <g transform="translate(372.72 401.08)scale(0.12 -0.12)">
       <use transform="translate(0.0 0.6875)" xlink:href="#Cmr10-34"/>
       <use transform="translate(50.0 0.6875)" xlink:href="#Cmmi10-4d"/>
      </g>
     </g>
    </g>
    <g id="xtick_16">
     <g id="line2d_68">
      <g>
       <use style="stroke:#000000;stroke-linecap:butt;stroke-width:0.5;" x="403.2" xlink:href="#m0012dd4eef" y="388.8"/>
      </g>
     </g>
     <g id="line2d_69">
      <g>
       <use style="stroke:#000000;stroke-linecap:butt;stroke-width:0.5;" x="403.2" xlink:href="#m476344969c" y="43.2"/>
      </g>
     </g>
    </g>
    <g id="xtick_17">
     <g id="line2d_70">
      <g>
       <use style="stroke:#000000;stroke-linecap:butt;stroke-width:0.5;" x="424.8" xlink:href="#m0012dd4eef" y="388.8"/>
      </g>
     </g>
     <g id="line2d_71">
      <g>
       <use style="stroke:#000000;stroke-linecap:butt;stroke-width:0.5;" x="424.8" xlink:href="#m476344969c" y="43.2"/>
      </g>
     </g>
     <g id="text_9">
      <!-- $6 M$ -->
      <g transform="translate(415.92 401.44)scale(0.12 -0.12)">
       <use transform="translate(0.0 3.6875)" xlink:href="#Cmr10-36"/>
       <use transform="translate(50.0 3.6875)" xlink:href="#Cmmi10-4d"/>
      </g>
     </g>
    </g>
    <g id="xtick_18">
     <g id="line2d_72">
      <g>
       <use style="stroke:#000000;stroke-linecap:butt;stroke-width:0.5;" x="446.4" xlink:href="#m0012dd4eef" y="388.8"/>
      </g>
     </g>
     <g id="line2d_73">
      <g>
       <use style="stroke:#000000;stroke-linecap:butt;stroke-width:0.5;" x="446.4" xlink:href="#m476344969c" y="43.2"/>
      </g>
     </g>
    </g>
    <g id="xtick_19">
     <g id="line2d_74">
      <g>
       <use style="stroke:#000000;stroke-linecap:butt;stroke-width:0.5;" x="468.0" xlink:href="#m0012dd4eef" y="388.8"/>
      </g>
     </g>
     <g id="line2d_75">
      <g>
       <use style="stroke:#000000;stroke-linecap:butt;stroke-width:0.5;" x="468.0" xlink:href="#m476344969c" y="43.2"/>
      </g>
     </g>
     <g id="text_10">
      <!-- $8 M$ -->
      <g transform="translate(459.12 401.44)scale(0.12 -0.12)">
       <use transform="translate(0.0 3.6875)" xlink:href="#Cmr10-38"/>
       <use transform="translate(50.0 3.6875)" xlink:href="#Cmmi10-4d"/>
      </g>
     </g>
    </g>
    <g id="xtick_20">
     <g id="line2d_76">
      <g>
       <use style="stroke:#000000;stroke-linecap:butt;stroke-width:0.5;" x="489.6" xlink:href="#m0012dd4eef" y="388.8"/>
      </g>
     </g>
     <g id="line2d_77">
      <g>
       <use style="stroke:#000000;stroke-linecap:butt;stroke-width:0.5;" x="489.6" xlink:href="#m476344969c" y="43.2"/>
      </g>
     </g>
    </g>
    <g id="xtick_21">
     <g id="line2d_78">
      <g>
       <use style="stroke:#000000;stroke-linecap:butt;stroke-width:0.5;" x="511.2" xlink:href="#m0012dd4eef" y="388.8"/>
      </g>
     </g>
     <g id="line2d_79">
      <g>
       <use style="stroke:#000000;stroke-linecap:butt;stroke-width:0.5;" x="511.2" xlink:href="#m476344969c" y="43.2"/>
      </g>
     </g>
     <g id="text_11">
      <!-- $10 M$ -->
      <g transform="translate(499.32 401.44)scale(0.12 -0.12)">
       <use transform="translate(0.0 3.6875)" xlink:href="#Cmr10-31"/>
       <use transform="translate(50.0 3.6875)" xlink:href="#Cmr10-30"/>
       <use transform="translate(100.0 3.6875)" xlink:href="#Cmmi10-4d"/>
      </g>
     </g>
    </g>
    <g id="text_12">
     <!-- $r\cos(\phi)$ -->
     <defs>
      <path d="
M31 -24.8125
Q25.4375 -20.4062 21.4062 -14.7188
Q17.3906 -9.03125 14.8125 -2.57812
Q12.25 3.85938 10.9844 10.8906
Q9.71875 17.9219 9.71875 25
Q9.71875 32.1719 10.9844 39.2031
Q12.25 46.2344 14.8594 52.7344
Q17.4844 59.2344 21.5312 64.8906
Q25.5938 70.5625 31 74.8125
Q31 75 31.5 75
L32.4219 75
Q32.7188 75 32.9531 74.7344
Q33.2031 74.4688 33.2031 74.125
Q33.2031 73.6875 33.0156 73.4844
Q28.125 68.7031 24.875 63.2344
Q21.625 57.7656 19.6406 51.5781
Q17.6719 45.4062 16.7969 38.7812
Q15.9219 32.1719 15.9219 25
Q15.9219 -6.78125 32.9062 -23.2969
Q33.2031 -23.5781 33.2031 -24.125
Q33.2031 -24.3594 32.9375 -24.6719
Q32.6719 -25 32.4219 -25
L31.5 -25
Q31 -25 31 -24.8125" id="Cmr10-28"/>
      <path d="
M6.5 -25
Q5.60938 -25 5.60938 -24.125
Q5.60938 -23.6875 5.8125 -23.4844
Q22.9062 -6.78125 22.9062 25
Q22.9062 56.7812 6 73.2969
Q5.60938 73.5312 5.60938 74.125
Q5.60938 74.4688 5.875 74.7344
Q6.15625 75 6.5 75
L7.42188 75
Q7.71875 75 7.90625 74.8125
Q15.0938 69.1406 19.875 61.0312
Q24.6562 52.9375 26.875 43.75
Q29.1094 34.5781 29.1094 25
Q29.1094 17.9219 27.9062 11.0625
Q26.7031 4.20312 24.0938 -2.45312
Q21.4844 -9.125 17.4844 -14.7656
Q13.4844 -20.4062 7.90625 -24.8125
Q7.71875 -25 7.42188 -25
z
" id="Cmr10-29"/>
      <path d="
M25 -1.125
Q19 -1.125 13.8594 1.92188
Q8.73438 4.98438 5.75 10.1094
Q2.78125 15.2344 2.78125 21.2969
Q2.78125 25.875 4.42188 30.125
Q6.0625 34.375 9.10938 37.7188
Q12.1562 41.0625 16.2031 42.9375
Q20.2656 44.8281 25 44.8281
Q31.1562 44.8281 36.2031 41.5781
Q41.2656 38.3281 44.1875 32.875
Q47.125 27.4375 47.125 21.2969
Q47.125 15.2812 44.1406 10.125
Q41.1562 4.98438 36.0469 1.92188
Q30.9531 -1.125 25 -1.125
M25 1.8125
Q33.0156 1.8125 35.6875 7.60938
Q38.375 13.4219 38.375 22.4062
Q38.375 27.4375 37.8438 30.7344
Q37.3125 34.0312 35.5 36.7188
Q34.375 38.375 32.6406 39.625
Q30.9062 40.875 28.9688 41.5312
Q27.0469 42.1875 25 42.1875
Q21.875 42.1875 19.0625 40.7656
Q16.2656 39.3594 14.4062 36.7188
Q12.5469 33.8906 12.0312 30.4844
Q11.5312 27.0938 11.5312 22.4062
Q11.5312 16.7969 12.5 12.3281
Q13.4844 7.85938 16.4375 4.82812
Q19.3906 1.8125 25 1.8125" id="Cmr10-6f"/>
      <path d="
M7.71875 1.70312
Q7.71875 2.29688 7.8125 2.59375
L15.2812 32.4219
Q16.0156 35.2031 16.0156 37.3125
Q16.0156 41.6094 13.0938 41.6094
Q9.96875 41.6094 8.45312 37.8594
Q6.9375 34.125 5.51562 28.4219
Q5.51562 28.125 5.21875 27.9531
Q4.9375 27.7812 4.6875 27.7812
L3.51562 27.7812
Q3.17188 27.7812 2.92188 28.1406
Q2.6875 28.5156 2.6875 28.8125
Q3.76562 33.1562 4.76562 36.1719
Q5.76562 39.2031 7.89062 41.6875
Q10.0156 44.1875 13.1875 44.1875
Q16.6562 44.1875 19.2656 42.1875
Q21.875 40.1875 22.5156 36.9219
Q25.0469 40.2344 28.2969 42.2031
Q31.5469 44.1875 35.4062 44.1875
Q38.5781 44.1875 40.9844 42.3281
Q43.4062 40.4844 43.4062 37.3125
Q43.4062 34.7656 41.8125 32.875
Q40.2344 31 37.5938 31
Q35.9844 31 34.8906 32
Q33.7969 33.0156 33.7969 34.625
Q33.7969 36.8125 35.4062 38.5469
Q37.0156 40.2812 39.1094 40.2812
Q37.5 41.6094 35.2031 41.6094
Q30.9062 41.6094 27.7344 38.5469
Q24.5625 35.5 22.0156 30.8125
L14.8906 2.20312
Q14.5469 0.828125 13.3438 -0.140625
Q12.1562 -1.125 10.6875 -1.125
Q9.46875 -1.125 8.59375 -0.34375
Q7.71875 0.4375 7.71875 1.70312" id="Cmmi10-72"/>
      <path d="
M24.9062 -1.125
Q18.8438 -1.125 13.9062 2.01562
Q8.98438 5.17188 6.15625 10.4219
Q3.32812 15.6719 3.32812 21.5781
Q3.32812 27.4844 6.125 32.9062
Q8.9375 38.3281 13.8906 41.5781
Q18.8438 44.8281 24.9062 44.8281
Q30.7656 44.8281 35.5625 42.5312
Q40.375 40.2344 40.375 35.0156
Q40.375 33.0625 38.9844 31.6094
Q37.5938 30.1719 35.5938 30.1719
Q33.5938 30.1719 32.2031 31.6094
Q30.8125 33.0625 30.8125 35.0156
Q30.8125 36.7656 31.9375 38.0625
Q33.0625 39.3594 34.7188 39.7031
Q31.25 41.8906 25 41.8906
Q20.2188 41.8906 17.2812 38.7188
Q14.3594 35.5469 13.1875 30.8594
Q12.0156 26.1719 12.0156 21.5781
Q12.0156 16.75 13.4531 12.2344
Q14.8906 7.71875 18.0938 4.76562
Q21.2969 1.8125 26.125 1.8125
Q30.8594 1.8125 34.1719 4.71875
Q37.5 7.625 38.7188 12.3125
Q38.7188 12.8906 39.5 12.8906
L40.7188 12.8906
Q41.0156 12.8906 41.25 12.625
Q41.5 12.3594 41.5 12.0156
L41.5 11.7188
Q39.9844 5.8125 35.4844 2.34375
Q31 -1.125 24.9062 -1.125" id="Cmr10-63"/>
      <path d="
M3.32812 -0.296875
L3.32812 16.0156
Q3.32812 16.7969 4.20312 16.7969
L5.42188 16.7969
Q6 16.7969 6.20312 16.0156
Q8.98438 1.51562 19.6719 1.51562
Q24.4219 1.51562 27.6094 3.65625
Q30.8125 5.8125 30.8125 10.2969
Q30.8125 13.5312 28.3125 15.7969
Q25.8281 18.0625 22.4062 18.8906
L15.7188 20.2188
Q12.3594 20.9531 9.59375 22.4531
Q6.84375 23.9688 5.07812 26.4844
Q3.32812 29 3.32812 32.3281
Q3.32812 36.7188 5.64062 39.5156
Q7.95312 42.3281 11.6562 43.5781
Q15.375 44.8281 19.6719 44.8281
Q24.8125 44.8281 28.6094 42.0938
L31.5 44.5781
Q31.5 44.8281 31.9844 44.8281
L32.7188 44.8281
Q33.0156 44.8281 33.25 44.5469
Q33.5 44.2812 33.5 44
L33.5 30.9062
Q33.5 29.9844 32.7188 29.9844
L31.5 29.9844
Q30.6094 29.9844 30.6094 30.9062
Q30.6094 36.1406 27.7031 39.3125
Q24.8125 42.4844 19.5781 42.4844
Q15.0938 42.4844 11.7969 40.8125
Q8.5 39.1562 8.5 35.1094
Q8.5 32.3281 10.8594 30.5469
Q13.2344 28.7656 16.4062 27.9844
L23.1875 26.7031
Q26.6094 25.9219 29.5625 24.0625
Q32.5156 22.2188 34.25 19.375
Q35.9844 16.5469 35.9844 12.9844
Q35.9844 9.375 34.7344 6.70312
Q33.5 4.04688 31.2656 2.28125
Q29.0469 0.53125 26.0156 -0.296875
Q23 -1.125 19.6719 -1.125
Q13.4219 -1.125 8.98438 3.07812
L5.32812 -0.875
Q5.32812 -1.125 4.78125 -1.125
L4.20312 -1.125
Q3.32812 -1.125 3.32812 -0.296875" id="Cmr10-73"/>
      <path d="
M19.3906 -19.4844
L23.875 -1.42188
Q18.7969 -1.42188 14.4062 0.953125
Q10.0156 3.32812 7.34375 7.5625
Q4.6875 11.8125 4.6875 16.7969
Q4.6875 22.2188 7.375 27.1406
Q10.0625 32.0781 14.7188 36.1094
Q19.3906 40.1406 24.75 42.3125
Q30.125 44.4844 35.4062 44.4844
L41.4062 68.7969
Q41.6094 69.3906 42.1875 69.3906
L43.4062 69.3906
Q43.7969 69.3906 44.0312 69.0469
Q44.2812 68.7031 44.2812 68.4062
L38.2812 44.4844
Q42.0469 44.4844 45.5625 43.1094
Q49.0781 41.75 51.7812 39.2812
Q54.5 36.8125 56 33.4688
Q57.5156 30.125 57.5156 26.3125
Q57.5156 20.9062 54.8281 15.9688
Q52.1562 11.0312 47.6094 7.07812
Q43.0625 3.125 37.4688 0.84375
Q31.8906 -1.42188 26.8125 -1.42188
L22.2188 -19.9219
Q22.0156 -20.5156 21.3906 -20.5156
L20.2188 -20.5156
Q19.8281 -20.5156 19.6094 -20.1406
Q19.3906 -19.7812 19.3906 -19.4844
M24.5156 1.21875
L34.7188 41.8906
Q32.1719 41.8906 29.3906 40.8594
Q26.6094 39.8438 24.1406 38.2812
Q21.6875 36.7188 19.6719 34.7188
Q17.2344 32.2812 15.375 28.9531
Q13.5312 25.6406 12.5781 21.9531
Q11.625 18.2656 11.625 14.7031
Q11.625 10.9375 13.2344 7.85938
Q14.8438 4.78125 17.7656 3
Q20.7031 1.21875 24.5156 1.21875
M27.4844 1.21875
Q31.25 1.21875 35.5 3.35938
Q39.75 5.51562 42.4844 8.40625
Q46.2344 12.1094 48.4062 17.5
Q50.5938 22.9062 50.5938 28.4219
Q50.5938 32.125 48.9688 35.2188
Q47.3594 38.3281 44.4219 40.1094
Q41.5 41.8906 37.7031 41.8906
z
" id="Cmmi10-c1"/>
     </defs>
     <g transform="translate(276.18 418.44)scale(0.12 -0.12)">
      <use transform="translate(0.0 25.0)" xlink:href="#Cmmi10-72"/>
      <use transform="translate(45.1171875 25.0)" xlink:href="#Cmr10-63"/>
      <use transform="translate(89.501953125 25.0)" xlink:href="#Cmr10-6f"/>
      <use transform="translate(139.501953125 25.0)" xlink:href="#Cmr10-73"/>
      <use transform="translate(178.90625 25.0)" xlink:href="#Cmr10-28"/>
      <use transform="translate(217.724609375 25.0)" xlink:href="#Cmmi10-c1"/>
      <use transform="translate(277.24609375 25.0)" xlink:href="#Cmr10-29"/>
     </g>
    </g>
   </g>
   <g id="matplotlib.axis_2">
    <g id="ytick_1">
     <g id="line2d_80">
      <defs>
       <path d="
M0 0
L4 0" id="me8a85f7bf6" style="stroke:#000000;stroke-linecap:butt;stroke-width:0.5;"/>
      </defs>
      <g>
       <use style="stroke:#000000;stroke-linecap:butt;stroke-width:0.5;" x="72.0" xlink:href="#me8a85f7bf6" y="388.8"/>
      </g>
     </g>
     <g id="line2d_81">
      <defs>
       <path d="
M0 0
L-4 0" id="m1a32005dea" style="stroke:#000000;stroke-linecap:butt;stroke-width:0.5;"/>
      </defs>
      <g>
       <use style="stroke:#000000;stroke-linecap:butt;stroke-width:0.5;" x="518.4" xlink:href="#m1a32005dea" y="388.8"/>
      </g>
     </g>
     <g id="text_13">
      <!-- $- 8 M$ -->
      <g transform="translate(41.0 393.12)scale(0.12 -0.12)">
       <use transform="translate(0.0 3.6875)" xlink:href="#Cmsy10-a1"/>
       <use transform="translate(77.685546875 3.6875)" xlink:href="#Cmr10-38"/>
       <use transform="translate(127.685546875 3.6875)" xlink:href="#Cmmi10-4d"/>
      </g>
     </g>
    </g>
    <g id="ytick_2">
     <g id="line2d_82">
      <g>
       <use style="stroke:#000000;stroke-linecap:butt;stroke-width:0.5;" x="72.0" xlink:href="#me8a85f7bf6" y="367.2"/>
      </g>
     </g>
     <g id="line2d_83">
      <g>
       <use style="stroke:#000000;stroke-linecap:butt;stroke-width:0.5;" x="518.4" xlink:href="#m1a32005dea" y="367.2"/>
      </g>
     </g>
    </g>
    <g id="ytick_3">
     <g id="line2d_84">
      <g>
       <use style="stroke:#000000;stroke-linecap:butt;stroke-width:0.5;" x="72.0" xlink:href="#me8a85f7bf6" y="345.6"/>
      </g>
     </g>
     <g id="line2d_85">
      <g>
       <use style="stroke:#000000;stroke-linecap:butt;stroke-width:0.5;" x="518.4" xlink:href="#m1a32005dea" y="345.6"/>
      </g>
     </g>
     <g id="text_14">
      <!-- $- 6 M$ -->
      <g transform="translate(41.0 349.92)scale(0.12 -0.12)">
       <use transform="translate(0.0 3.6875)" xlink:href="#Cmsy10-a1"/>
       <use transform="translate(77.685546875 3.6875)" xlink:href="#Cmr10-36"/>
       <use transform="translate(127.685546875 3.6875)" xlink:href="#Cmmi10-4d"/>
      </g>
     </g>
    </g>
    <g id="ytick_4">
     <g id="line2d_86">
      <g>
       <use style="stroke:#000000;stroke-linecap:butt;stroke-width:0.5;" x="72.0" xlink:href="#me8a85f7bf6" y="324.0"/>
      </g>
     </g>
     <g id="line2d_87">
      <g>
       <use style="stroke:#000000;stroke-linecap:butt;stroke-width:0.5;" x="518.4" xlink:href="#m1a32005dea" y="324.0"/>
      </g>
     </g>
    </g>
    <g id="ytick_5">
     <g id="line2d_88">
      <g>
       <use style="stroke:#000000;stroke-linecap:butt;stroke-width:0.5;" x="72.0" xlink:href="#me8a85f7bf6" y="302.4"/>
      </g>
     </g>
     <g id="line2d_89">
      <g>
       <use style="stroke:#000000;stroke-linecap:butt;stroke-width:0.5;" x="518.4" xlink:href="#m1a32005dea" y="302.4"/>
      </g>
     </g>
     <g id="text_15">
      <!-- $- 4 M$ -->
      <g transform="translate(41.0 306.54)scale(0.12 -0.12)">
       <use transform="translate(0.0 0.6875)" xlink:href="#Cmsy10-a1"/>
       <use transform="translate(77.685546875 0.6875)" xlink:href="#Cmr10-34"/>
       <use transform="translate(127.685546875 0.6875)" xlink:href="#Cmmi10-4d"/>
      </g>
     </g>
    </g>
    <g id="ytick_6">
     <g id="line2d_90">
      <g>
       <use style="stroke:#000000;stroke-linecap:butt;stroke-width:0.5;" x="72.0" xlink:href="#me8a85f7bf6" y="280.8"/>
      </g>
     </g>
     <g id="line2d_91">
      <g>
       <use style="stroke:#000000;stroke-linecap:butt;stroke-width:0.5;" x="518.4" xlink:href="#m1a32005dea" y="280.8"/>
      </g>
     </g>
    </g>
    <g id="ytick_7">
     <g id="line2d_92">
      <g>
       <use style="stroke:#000000;stroke-linecap:butt;stroke-width:0.5;" x="72.0" xlink:href="#me8a85f7bf6" y="259.2"/>
      </g>
     </g>
     <g id="line2d_93">
      <g>
       <use style="stroke:#000000;stroke-linecap:butt;stroke-width:0.5;" x="518.4" xlink:href="#m1a32005dea" y="259.2"/>
      </g>
     </g>
     <g id="text_16">
      <!-- $- 2 M$ -->
      <g transform="translate(41.0 263.34)scale(0.12 -0.12)">
       <use transform="translate(0.0 0.6875)" xlink:href="#Cmsy10-a1"/>
       <use transform="translate(77.685546875 0.6875)" xlink:href="#Cmr10-32"/>
       <use transform="translate(127.685546875 0.6875)" xlink:href="#Cmmi10-4d"/>
      </g>
     </g>
    </g>
    <g id="ytick_8">
     <g id="line2d_94">
      <g>
       <use style="stroke:#000000;stroke-linecap:butt;stroke-width:0.5;" x="72.0" xlink:href="#me8a85f7bf6" y="237.6"/>
      </g>
     </g>
     <g id="line2d_95">
      <g>
       <use style="stroke:#000000;stroke-linecap:butt;stroke-width:0.5;" x="518.4" xlink:href="#m1a32005dea" y="237.6"/>
      </g>
     </g>
    </g>
    <g id="ytick_9">
     <g id="line2d_96">
      <g>
       <use style="stroke:#000000;stroke-linecap:butt;stroke-width:0.5;" x="72.0" xlink:href="#me8a85f7bf6" y="216.0"/>
      </g>
     </g>
     <g id="line2d_97">
      <g>
       <use style="stroke:#000000;stroke-linecap:butt;stroke-width:0.5;" x="518.4" xlink:href="#m1a32005dea" y="216.0"/>
      </g>
     </g>
     <g id="text_17">
      <!-- $0$ -->
      <g transform="translate(62.0 220.2)scale(0.12 -0.12)">
       <use transform="translate(0.0 3.390625)" xlink:href="#Cmr10-30"/>
      </g>
     </g>
    </g>
    <g id="ytick_10">
     <g id="line2d_98">
      <g>
       <use style="stroke:#000000;stroke-linecap:butt;stroke-width:0.5;" x="72.0" xlink:href="#me8a85f7bf6" y="194.4"/>
      </g>
     </g>
     <g id="line2d_99">
      <g>
       <use style="stroke:#000000;stroke-linecap:butt;stroke-width:0.5;" x="518.4" xlink:href="#m1a32005dea" y="194.4"/>
      </g>
     </g>
    </g>
    <g id="ytick_11">
     <g id="line2d_100">
      <g>
       <use style="stroke:#000000;stroke-linecap:butt;stroke-width:0.5;" x="72.0" xlink:href="#me8a85f7bf6" y="172.8"/>
      </g>
     </g>
     <g id="line2d_101">
      <g>
       <use style="stroke:#000000;stroke-linecap:butt;stroke-width:0.5;" x="518.4" xlink:href="#m1a32005dea" y="172.8"/>
      </g>
     </g>
     <g id="text_18">
      <!-- $2 M$ -->
      <g transform="translate(50.24 176.94)scale(0.12 -0.12)">
       <use transform="translate(0.0 0.6875)" xlink:href="#Cmr10-32"/>
       <use transform="translate(50.0 0.6875)" xlink:href="#Cmmi10-4d"/>
      </g>
     </g>
    </g>
    <g id="ytick_12">
     <g id="line2d_102">
      <g>
       <use style="stroke:#000000;stroke-linecap:butt;stroke-width:0.5;" x="72.0" xlink:href="#me8a85f7bf6" y="151.2"/>
      </g>
     </g>
     <g id="line2d_103">
      <g>
       <use style="stroke:#000000;stroke-linecap:butt;stroke-width:0.5;" x="518.4" xlink:href="#m1a32005dea" y="151.2"/>
      </g>
     </g>
    </g>
    <g id="ytick_13">
     <g id="line2d_104">
      <g>
       <use style="stroke:#000000;stroke-linecap:butt;stroke-width:0.5;" x="72.0" xlink:href="#me8a85f7bf6" y="129.6"/>
      </g>
     </g>
     <g id="line2d_105">
      <g>
       <use style="stroke:#000000;stroke-linecap:butt;stroke-width:0.5;" x="518.4" xlink:href="#m1a32005dea" y="129.6"/>
      </g>
     </g>
     <g id="text_19">
      <!-- $4 M$ -->
      <g transform="translate(50.24 133.74)scale(0.12 -0.12)">
       <use transform="translate(0.0 0.6875)" xlink:href="#Cmr10-34"/>
       <use transform="translate(50.0 0.6875)" xlink:href="#Cmmi10-4d"/>
      </g>
     </g>
    </g>
    <g id="ytick_14">
     <g id="line2d_106">
      <g>
       <use style="stroke:#000000;stroke-linecap:butt;stroke-width:0.5;" x="72.0" xlink:href="#me8a85f7bf6" y="108.0"/>
      </g>
     </g>
     <g id="line2d_107">
      <g>
       <use style="stroke:#000000;stroke-linecap:butt;stroke-width:0.5;" x="518.4" xlink:href="#m1a32005dea" y="108.0"/>
      </g>
     </g>
    </g>
    <g id="ytick_15">
     <g id="line2d_108">
      <g>
       <use style="stroke:#000000;stroke-linecap:butt;stroke-width:0.5;" x="72.0" xlink:href="#me8a85f7bf6" y="86.4"/>
      </g>
     </g>
     <g id="line2d_109">
      <g>
       <use style="stroke:#000000;stroke-linecap:butt;stroke-width:0.5;" x="518.4" xlink:href="#m1a32005dea" y="86.4"/>
      </g>
     </g>
     <g id="text_20">
      <!-- $6 M$ -->
      <g transform="translate(50.24 90.72)scale(0.12 -0.12)">
       <use transform="translate(0.0 3.6875)" xlink:href="#Cmr10-36"/>
       <use transform="translate(50.0 3.6875)" xlink:href="#Cmmi10-4d"/>
      </g>
     </g>
    </g>
    <g id="ytick_16">
     <g id="line2d_110">
      <g>
       <use style="stroke:#000000;stroke-linecap:butt;stroke-width:0.5;" x="72.0" xlink:href="#me8a85f7bf6" y="64.8"/>
      </g>
     </g>
     <g id="line2d_111">
      <g>
       <use style="stroke:#000000;stroke-linecap:butt;stroke-width:0.5;" x="518.4" xlink:href="#m1a32005dea" y="64.8"/>
      </g>
     </g>
    </g>
    <g id="ytick_17">
     <g id="line2d_112">
      <g>
       <use style="stroke:#000000;stroke-linecap:butt;stroke-width:0.5;" x="72.0" xlink:href="#me8a85f7bf6" y="43.2"/>
      </g>
     </g>
     <g id="line2d_113">
      <g>
       <use style="stroke:#000000;stroke-linecap:butt;stroke-width:0.5;" x="518.4" xlink:href="#m1a32005dea" y="43.2"/>
      </g>
     </g>
     <g id="text_21">
      <!-- $8 M$ -->
      <g transform="translate(50.24 47.52)scale(0.12 -0.12)">
       <use transform="translate(0.0 3.6875)" xlink:href="#Cmr10-38"/>
       <use transform="translate(50.0 3.6875)" xlink:href="#Cmmi10-4d"/>
      </g>
     </g>
    </g>
    <g id="text_22">
     <!-- $r\sin(\phi)$ -->
     <defs>
      <path d="
M2.98438 0
L2.98438 3.51562
Q6.39062 3.51562 8.59375 4.04688
Q10.7969 4.59375 10.7969 6.6875
L10.7969 33.9844
Q10.7969 36.6719 9.98438 37.8594
Q9.1875 39.0625 7.67188 39.3281
Q6.15625 39.5938 2.98438 39.5938
L2.98438 43.1094
L17.4844 44.1875
L17.4844 34.4219
Q19.4844 38.7188 23.4062 41.4531
Q27.3438 44.1875 31.9844 44.1875
Q38.9219 44.1875 42.4062 40.8594
Q45.9062 37.5469 45.9062 30.7188
L45.9062 6.6875
Q45.9062 4.59375 48.0938 4.04688
Q50.2969 3.51562 53.7188 3.51562
L53.7188 0
L30.8125 0
L30.8125 3.51562
Q34.2344 3.51562 36.4219 4.04688
Q38.625 4.59375 38.625 6.6875
L38.625 30.4219
Q38.625 35.2969 37.2031 38.4531
Q35.7969 41.6094 31.3906 41.6094
Q25.5938 41.6094 21.8438 36.9688
Q18.1094 32.3281 18.1094 26.4219
L18.1094 6.6875
Q18.1094 4.59375 20.3125 4.04688
Q22.5156 3.51562 25.875 3.51562
L25.875 0
z
" id="Cmr10-6e"/>
      <path d="
M3.07812 0
L3.07812 3.51562
Q6.5 3.51562 8.6875 4.04688
Q10.8906 4.59375 10.8906 6.6875
L10.8906 33.9844
Q10.8906 37.8438 9.39062 38.7188
Q7.90625 39.5938 3.51562 39.5938
L3.51562 43.1094
L17.9219 44.1875
L17.9219 6.6875
Q17.9219 4.59375 19.8281 4.04688
Q21.7344 3.51562 24.9062 3.51562
L24.9062 0
z

M7.32812 61.375
Q7.32812 63.5781 8.98438 65.2344
Q10.6406 66.8906 12.7969 66.8906
Q14.2031 66.8906 15.5156 66.1562
Q16.8438 65.4375 17.5781 64.1094
Q18.3125 62.7969 18.3125 61.375
Q18.3125 59.2344 16.6406 57.5625
Q14.9844 55.9062 12.7969 55.9062
Q10.6406 55.9062 8.98438 57.5625
Q7.32812 59.2344 7.32812 61.375" id="Cmr10-69"/>
     </defs>
     <g transform="translate(36.0 234.3)rotate(-90.0)scale(0.12 -0.12)">
      <use transform="translate(0.0 25.0)" xlink:href="#Cmmi10-72"/>
      <use transform="translate(45.1171875 25.0)" xlink:href="#Cmr10-73"/>
      <use transform="translate(84.521484375 25.0)" xlink:href="#Cmr10-69"/>
      <use transform="translate(112.20703125 25.0)" xlink:href="#Cmr10-6e"/>
      <use transform="translate(167.724609375 25.0)" xlink:href="#Cmr10-28"/>
      <use transform="translate(206.54296875 25.0)" xlink:href="#Cmmi10-c1"/>
      <use transform="translate(266.064453125 25.0)" xlink:href="#Cmr10-29"/>
     </g>
    </g>
   </g>
   <g id="patch_3">
    <path d="
M72 43.2
L518.4 43.2" style="fill:none;stroke:#000000;"/>
   </g>
   <g id="patch_4">
    <path d="
M518.4 388.8
L518.4 43.2" style="fill:none;stroke:#000000;"/>
   </g>
   <g id="patch_5">
    <path d="
M72 388.8
L518.4 388.8" style="fill:none;stroke:#000000;"/>
   </g>
   <g id="patch_6">
    <path d="
M72 388.8
L72 43.2" style="fill:none;stroke:#000000;"/>
   </g>
   <g id="legend_1">
    <g id="patch_7">
     <path d="
M79.2 118.129
L285.606 118.129
L285.606 50.4
L79.2 50.4
L79.2 118.129
z
" style="fill:#ffffff;stroke:#000000;"/>
    </g>
    <g id="line2d_114">
     <path d="
M89.28 62.0617
L109.44 62.0617" style="fill:none;stroke:#0000ff;"/>
    </g>
    <g id="line2d_115"/>
    <g id="text_23">
     <!-- Outer event horizon -->
     <defs>
      <path d="
M39.4062 66.2188
Q28.6562 66.2188 22.3281 58.2031
Q16.0156 50.2031 16.0156 36.375
Q16.0156 22.6094 22.3281 14.5938
Q28.6562 6.59375 39.4062 6.59375
Q50.1406 6.59375 56.4219 14.5938
Q62.7031 22.6094 62.7031 36.375
Q62.7031 50.2031 56.4219 58.2031
Q50.1406 66.2188 39.4062 66.2188
M39.4062 74.2188
Q54.7344 74.2188 63.9062 63.9375
Q73.0938 53.6562 73.0938 36.375
Q73.0938 19.1406 63.9062 8.85938
Q54.7344 -1.42188 39.4062 -1.42188
Q24.0312 -1.42188 14.8125 8.82812
Q5.60938 19.0938 5.60938 36.375
Q5.60938 53.6562 14.8125 63.9375
Q24.0312 74.2188 39.4062 74.2188" id="DejaVuSans-4f"/>
      <path d="
M2.98438 54.6875
L12.5 54.6875
L29.5938 8.79688
L46.6875 54.6875
L56.2031 54.6875
L35.6875 0
L23.4844 0
z
" id="DejaVuSans-76"/>
      <path d="
M30.6094 48.3906
Q23.3906 48.3906 19.1875 42.75
Q14.9844 37.1094 14.9844 27.2969
Q14.9844 17.4844 19.1562 11.8438
Q23.3438 6.20312 30.6094 6.20312
Q37.7969 6.20312 41.9844 11.8594
Q46.1875 17.5312 46.1875 27.2969
Q46.1875 37.0156 41.9844 42.7031
Q37.7969 48.3906 30.6094 48.3906
M30.6094 56
Q42.3281 56 49.0156 48.375
Q55.7188 40.7656 55.7188 27.2969
Q55.7188 13.875 49.0156 6.21875
Q42.3281 -1.42188 30.6094 -1.42188
Q18.8438 -1.42188 12.1719 6.21875
Q5.51562 13.875 5.51562 27.2969
Q5.51562 40.7656 12.1719 48.375
Q18.8438 56 30.6094 56" id="DejaVuSans-6f"/>
      <path d="
M54.8906 33.0156
L54.8906 0
L45.9062 0
L45.9062 32.7188
Q45.9062 40.4844 42.875 44.3281
Q39.8438 48.1875 33.7969 48.1875
Q26.5156 48.1875 22.3125 43.5469
Q18.1094 38.9219 18.1094 30.9062
L18.1094 0
L9.07812 0
L9.07812 54.6875
L18.1094 54.6875
L18.1094 46.1875
Q21.3438 51.125 25.7031 53.5625
Q30.0781 56 35.7969 56
Q45.2188 56 50.0469 50.1719
Q54.8906 44.3438 54.8906 33.0156" id="DejaVuSans-6e"/>
      <path d="
M5.51562 54.6875
L48.1875 54.6875
L48.1875 46.4844
L14.4062 7.17188
L48.1875 7.17188
L48.1875 0
L4.29688 0
L4.29688 8.20312
L38.0938 47.5156
L5.51562 47.5156
z
" id="DejaVuSans-7a"/>
      <path id="DejaVuSans-20"/>
      <path d="
M54.8906 33.0156
L54.8906 0
L45.9062 0
L45.9062 32.7188
Q45.9062 40.4844 42.875 44.3281
Q39.8438 48.1875 33.7969 48.1875
Q26.5156 48.1875 22.3125 43.5469
Q18.1094 38.9219 18.1094 30.9062
L18.1094 0
L9.07812 0
L9.07812 75.9844
L18.1094 75.9844
L18.1094 46.1875
Q21.3438 51.125 25.7031 53.5625
Q30.0781 56 35.7969 56
Q45.2188 56 50.0469 50.1719
Q54.8906 44.3438 54.8906 33.0156" id="DejaVuSans-68"/>
      <path d="
M9.42188 54.6875
L18.4062 54.6875
L18.4062 0
L9.42188 0
z

M9.42188 75.9844
L18.4062 75.9844
L18.4062 64.5938
L9.42188 64.5938
z
" id="DejaVuSans-69"/>
      <path d="
M8.5 21.5781
L8.5 54.6875
L17.4844 54.6875
L17.4844 21.9219
Q17.4844 14.1562 20.5 10.2656
Q23.5312 6.39062 29.5938 6.39062
Q36.8594 6.39062 41.0781 11.0312
Q45.3125 15.6719 45.3125 23.6875
L45.3125 54.6875
L54.2969 54.6875
L54.2969 0
L45.3125 0
L45.3125 8.40625
Q42.0469 3.42188 37.7188 1
Q33.4062 -1.42188 27.6875 -1.42188
Q18.2656 -1.42188 13.375 4.4375
Q8.5 10.2969 8.5 21.5781
M31.1094 56
z
" id="DejaVuSans-75"/>
      <path d="
M18.3125 70.2188
L18.3125 54.6875
L36.8125 54.6875
L36.8125 47.7031
L18.3125 47.7031
L18.3125 18.0156
Q18.3125 11.3281 20.1406 9.42188
Q21.9688 7.51562 27.5938 7.51562
L36.8125 7.51562
L36.8125 0
L27.5938 0
Q17.1875 0 13.2344 3.875
Q9.28125 7.76562 9.28125 18.0156
L9.28125 47.7031
L2.6875 47.7031
L2.6875 54.6875
L9.28125 54.6875
L9.28125 70.2188
z
" id="DejaVuSans-74"/>
      <path d="
M56.2031 29.5938
L56.2031 25.2031
L14.8906 25.2031
Q15.4844 15.9219 20.4844 11.0625
Q25.4844 6.20312 34.4219 6.20312
Q39.5938 6.20312 44.4531 7.46875
Q49.3125 8.73438 54.1094 11.2812
L54.1094 2.78125
Q49.2656 0.734375 44.1875 -0.34375
Q39.1094 -1.42188 33.8906 -1.42188
Q20.7969 -1.42188 13.1562 6.1875
Q5.51562 13.8125 5.51562 26.8125
Q5.51562 40.2344 12.7656 48.1094
Q20.0156 56 32.3281 56
Q43.3594 56 49.7812 48.8906
Q56.2031 41.7969 56.2031 29.5938
M47.2188 32.2344
Q47.125 39.5938 43.0938 43.9844
Q39.0625 48.3906 32.4219 48.3906
Q24.9062 48.3906 20.3906 44.1406
Q15.875 39.8906 15.1875 32.1719
z
" id="DejaVuSans-65"/>
      <path d="
M41.1094 46.2969
Q39.5938 47.1719 37.8125 47.5781
Q36.0312 48 33.8906 48
Q26.2656 48 22.1875 43.0469
Q18.1094 38.0938 18.1094 28.8125
L18.1094 0
L9.07812 0
L9.07812 54.6875
L18.1094 54.6875
L18.1094 46.1875
Q20.9531 51.1719 25.4844 53.5781
Q30.0312 56 36.5312 56
Q37.4531 56 38.5781 55.875
Q39.7031 55.7656 41.0625 55.5156
z
" id="DejaVuSans-72"/>
     </defs>
     <g transform="translate(125.28 67.10175)scale(0.144 -0.144)">
      <use xlink:href="#DejaVuSans-4f"/>
      <use x="78.7109375" xlink:href="#DejaVuSans-75"/>
      <use x="142.08984375" xlink:href="#DejaVuSans-74"/>
      <use x="181.298828125" xlink:href="#DejaVuSans-65"/>
      <use x="242.822265625" xlink:href="#DejaVuSans-72"/>
      <use x="283.935546875" xlink:href="#DejaVuSans-20"/>
      <use x="315.72265625" xlink:href="#DejaVuSans-65"/>
      <use x="377.24609375" xlink:href="#DejaVuSans-76"/>
      <use x="436.42578125" xlink:href="#DejaVuSans-65"/>
      <use x="497.94921875" xlink:href="#DejaVuSans-6e"/>
      <use x="561.328125" xlink:href="#DejaVuSans-74"/>
      <use x="600.537109375" xlink:href="#DejaVuSans-20"/>
      <use x="632.32421875" xlink:href="#DejaVuSans-68"/>
      <use x="695.703125" xlink:href="#DejaVuSans-6f"/>
      <use x="756.884765625" xlink:href="#DejaVuSans-72"/>
      <use x="797.998046875" xlink:href="#DejaVuSans-69"/>
      <use x="825.78125" xlink:href="#DejaVuSans-7a"/>
      <use x="878.271484375" xlink:href="#DejaVuSans-6f"/>
      <use x="939.453125" xlink:href="#DejaVuSans-6e"/>
     </g>
    </g>
    <g id="line2d_116">
     <path d="
M89.28 83.1983
L109.44 83.1983" style="fill:none;stroke:#ff0000;stroke-dasharray:6.000000,6.000000;stroke-dashoffset:0.0;stroke-linecap:butt;"/>
    </g>
    <g id="line2d_117"/>
    <g id="text_24">
     <!-- Inner event horizon -->
     <defs>
      <path d="
M9.8125 72.9062
L19.6719 72.9062
L19.6719 0
L9.8125 0
z
" id="DejaVuSans-49"/>
     </defs>
     <g transform="translate(125.28 88.23825)scale(0.144 -0.144)">
      <use xlink:href="#DejaVuSans-49"/>
      <use x="29.4921875" xlink:href="#DejaVuSans-6e"/>
      <use x="92.87109375" xlink:href="#DejaVuSans-6e"/>
      <use x="156.25" xlink:href="#DejaVuSans-65"/>
      <use x="217.7734375" xlink:href="#DejaVuSans-72"/>
      <use x="258.88671875" xlink:href="#DejaVuSans-20"/>
      <use x="290.673828125" xlink:href="#DejaVuSans-65"/>
      <use x="352.197265625" xlink:href="#DejaVuSans-76"/>
      <use x="411.376953125" xlink:href="#DejaVuSans-65"/>
      <use x="472.900390625" xlink:href="#DejaVuSans-6e"/>
      <use x="536.279296875" xlink:href="#DejaVuSans-74"/>
      <use x="575.48828125" xlink:href="#DejaVuSans-20"/>
      <use x="607.275390625" xlink:href="#DejaVuSans-68"/>
      <use x="670.654296875" xlink:href="#DejaVuSans-6f"/>
      <use x="731.8359375" xlink:href="#DejaVuSans-72"/>
      <use x="772.94921875" xlink:href="#DejaVuSans-69"/>
      <use x="800.732421875" xlink:href="#DejaVuSans-7a"/>
      <use x="853.22265625" xlink:href="#DejaVuSans-6f"/>
      <use x="914.404296875" xlink:href="#DejaVuSans-6e"/>
     </g>
    </g>
    <g id="line2d_118">
     <path d="
M89.28 104.335
L109.44 104.335" style="fill:none;stroke:#008000;stroke-dasharray:6.000000,6.000000;stroke-dashoffset:0.0;stroke-linecap:butt;"/>
    </g>
    <g id="line2d_119"/>
    <g id="text_25">
     <!-- Ergosphere boundary -->
     <defs>
      <path d="
M9.8125 72.9062
L55.9062 72.9062
L55.9062 64.5938
L19.6719 64.5938
L19.6719 43.0156
L54.3906 43.0156
L54.3906 34.7188
L19.6719 34.7188
L19.6719 8.29688
L56.7812 8.29688
L56.7812 0
L9.8125 0
z
" id="DejaVuSans-45"/>
      <path d="
M32.1719 -5.07812
Q28.375 -14.8438 24.75 -17.8125
Q21.1406 -20.7969 15.0938 -20.7969
L7.90625 -20.7969
L7.90625 -13.2812
L13.1875 -13.2812
Q16.8906 -13.2812 18.9375 -11.5156
Q21 -9.76562 23.4844 -3.21875
L25.0938 0.875
L2.98438 54.6875
L12.5 54.6875
L29.5938 11.9219
L46.6875 54.6875
L56.2031 54.6875
z
" id="DejaVuSans-79"/>
      <path d="
M45.4062 27.9844
Q45.4062 37.75 41.375 43.1094
Q37.3594 48.4844 30.0781 48.4844
Q22.8594 48.4844 18.8281 43.1094
Q14.7969 37.75 14.7969 27.9844
Q14.7969 18.2656 18.8281 12.8906
Q22.8594 7.51562 30.0781 7.51562
Q37.3594 7.51562 41.375 12.8906
Q45.4062 18.2656 45.4062 27.9844
M54.3906 6.78125
Q54.3906 -7.17188 48.1875 -13.9844
Q42 -20.7969 29.2031 -20.7969
Q24.4688 -20.7969 20.2656 -20.0938
Q16.0625 -19.3906 12.1094 -17.9219
L12.1094 -9.1875
Q16.0625 -11.3281 19.9219 -12.3438
Q23.7812 -13.375 27.7812 -13.375
Q36.625 -13.375 41.0156 -8.76562
Q45.4062 -4.15625 45.4062 5.17188
L45.4062 9.625
Q42.625 4.78125 38.2812 2.39062
Q33.9375 0 27.875 0
Q17.8281 0 11.6719 7.65625
Q5.51562 15.3281 5.51562 27.9844
Q5.51562 40.6719 11.6719 48.3281
Q17.8281 56 27.875 56
Q33.9375 56 38.2812 53.6094
Q42.625 51.2188 45.4062 46.3906
L45.4062 54.6875
L54.3906 54.6875
z
" id="DejaVuSans-67"/>
      <path d="
M45.4062 46.3906
L45.4062 75.9844
L54.3906 75.9844
L54.3906 0
L45.4062 0
L45.4062 8.20312
Q42.5781 3.32812 38.25 0.953125
Q33.9375 -1.42188 27.875 -1.42188
Q17.9688 -1.42188 11.7344 6.48438
Q5.51562 14.4062 5.51562 27.2969
Q5.51562 40.1875 11.7344 48.0938
Q17.9688 56 27.875 56
Q33.9375 56 38.25 53.625
Q42.5781 51.2656 45.4062 46.3906
M14.7969 27.2969
Q14.7969 17.3906 18.875 11.75
Q22.9531 6.10938 30.0781 6.10938
Q37.2031 6.10938 41.2969 11.75
Q45.4062 17.3906 45.4062 27.2969
Q45.4062 37.2031 41.2969 42.8438
Q37.2031 48.4844 30.0781 48.4844
Q22.9531 48.4844 18.875 42.8438
Q14.7969 37.2031 14.7969 27.2969" id="DejaVuSans-64"/>
      <path d="
M48.6875 27.2969
Q48.6875 37.2031 44.6094 42.8438
Q40.5312 48.4844 33.4062 48.4844
Q26.2656 48.4844 22.1875 42.8438
Q18.1094 37.2031 18.1094 27.2969
Q18.1094 17.3906 22.1875 11.75
Q26.2656 6.10938 33.4062 6.10938
Q40.5312 6.10938 44.6094 11.75
Q48.6875 17.3906 48.6875 27.2969
M18.1094 46.3906
Q20.9531 51.2656 25.2656 53.625
Q29.5938 56 35.5938 56
Q45.5625 56 51.7812 48.0938
Q58.0156 40.1875 58.0156 27.2969
Q58.0156 14.4062 51.7812 6.48438
Q45.5625 -1.42188 35.5938 -1.42188
Q29.5938 -1.42188 25.2656 0.953125
Q20.9531 3.32812 18.1094 8.20312
L18.1094 0
L9.07812 0
L9.07812 75.9844
L18.1094 75.9844
z
" id="DejaVuSans-62"/>
      <path d="
M18.1094 8.20312
L18.1094 -20.7969
L9.07812 -20.7969
L9.07812 54.6875
L18.1094 54.6875
L18.1094 46.3906
Q20.9531 51.2656 25.2656 53.625
Q29.5938 56 35.5938 56
Q45.5625 56 51.7812 48.0938
Q58.0156 40.1875 58.0156 27.2969
Q58.0156 14.4062 51.7812 6.48438
Q45.5625 -1.42188 35.5938 -1.42188
Q29.5938 -1.42188 25.2656 0.953125
Q20.9531 3.32812 18.1094 8.20312
M48.6875 27.2969
Q48.6875 37.2031 44.6094 42.8438
Q40.5312 48.4844 33.4062 48.4844
Q26.2656 48.4844 22.1875 42.8438
Q18.1094 37.2031 18.1094 27.2969
Q18.1094 17.3906 22.1875 11.75
Q26.2656 6.10938 33.4062 6.10938
Q40.5312 6.10938 44.6094 11.75
Q48.6875 17.3906 48.6875 27.2969" id="DejaVuSans-70"/>
      <path d="
M44.2812 53.0781
L44.2812 44.5781
Q40.4844 46.5312 36.375 47.5
Q32.2812 48.4844 27.875 48.4844
Q21.1875 48.4844 17.8438 46.4375
Q14.5 44.3906 14.5 40.2812
Q14.5 37.1562 16.8906 35.375
Q19.2812 33.5938 26.5156 31.9844
L29.5938 31.2969
Q39.1562 29.25 43.1875 25.5156
Q47.2188 21.7812 47.2188 15.0938
Q47.2188 7.46875 41.1875 3.01562
Q35.1562 -1.42188 24.6094 -1.42188
Q20.2188 -1.42188 15.4531 -0.5625
Q10.6875 0.296875 5.42188 2
L5.42188 11.2812
Q10.4062 8.6875 15.2344 7.39062
Q20.0625 6.10938 24.8125 6.10938
Q31.1562 6.10938 34.5625 8.28125
Q37.9844 10.4531 37.9844 14.4062
Q37.9844 18.0625 35.5156 20.0156
Q33.0625 21.9688 24.7031 23.7812
L21.5781 24.5156
Q13.2344 26.2656 9.51562 29.9062
Q5.8125 33.5469 5.8125 39.8906
Q5.8125 47.6094 11.2812 51.7969
Q16.75 56 26.8125 56
Q31.7812 56 36.1719 55.2656
Q40.5781 54.5469 44.2812 53.0781" id="DejaVuSans-73"/>
      <path d="
M34.2812 27.4844
Q23.3906 27.4844 19.1875 25
Q14.9844 22.5156 14.9844 16.5
Q14.9844 11.7188 18.1406 8.90625
Q21.2969 6.10938 26.7031 6.10938
Q34.1875 6.10938 38.7031 11.4062
Q43.2188 16.7031 43.2188 25.4844
L43.2188 27.4844
z

M52.2031 31.2031
L52.2031 0
L43.2188 0
L43.2188 8.29688
Q40.1406 3.32812 35.5469 0.953125
Q30.9531 -1.42188 24.3125 -1.42188
Q15.9219 -1.42188 10.9531 3.29688
Q6 8.01562 6 15.9219
Q6 25.1406 12.1719 29.8281
Q18.3594 34.5156 30.6094 34.5156
L43.2188 34.5156
L43.2188 35.4062
Q43.2188 41.6094 39.1406 45
Q35.0625 48.3906 27.6875 48.3906
Q23 48.3906 18.5469 47.2656
Q14.1094 46.1406 10.0156 43.8906
L10.0156 52.2031
Q14.9375 54.1094 19.5781 55.0469
Q24.2188 56 28.6094 56
Q40.4844 56 46.3438 49.8438
Q52.2031 43.7031 52.2031 31.2031" id="DejaVuSans-61"/>
     </defs>
     <g transform="translate(125.28 109.37475)scale(0.144 -0.144)">
      <use xlink:href="#DejaVuSans-45"/>
      <use x="63.18359375" xlink:href="#DejaVuSans-72"/>
      <use x="102.546875" xlink:href="#DejaVuSans-67"/>
      <use x="166.0234375" xlink:href="#DejaVuSans-6f"/>
      <use x="227.205078125" xlink:href="#DejaVuSans-73"/>
      <use x="279.3046875" xlink:href="#DejaVuSans-70"/>
      <use x="342.78125" xlink:href="#DejaVuSans-68"/>
      <use x="406.16015625" xlink:href="#DejaVuSans-65"/>
      <use x="467.68359375" xlink:href="#DejaVuSans-72"/>
      <use x="506.546875" xlink:href="#DejaVuSans-65"/>
      <use x="568.0703125" xlink:href="#DejaVuSans-20"/>
      <use x="599.857421875" xlink:href="#DejaVuSans-62"/>
      <use x="663.333984375" xlink:href="#DejaVuSans-6f"/>
      <use x="724.515625" xlink:href="#DejaVuSans-75"/>
      <use x="787.89453125" xlink:href="#DejaVuSans-6e"/>
      <use x="851.2734375" xlink:href="#DejaVuSans-64"/>
      <use x="914.75" xlink:href="#DejaVuSans-61"/>
      <use x="976.029296875" xlink:href="#DejaVuSans-72"/>
      <use x="1017.14257812" xlink:href="#DejaVuSans-79"/>
     </g>
    </g>
   </g>
  </g>
 </g>
 <defs>
  <clipPath id="p7ff5b81e1d">
   <rect height="345.6" width="446.4" x="72.0" y="43.2"/>
  </clipPath>
 </defs>
</svg>
