<?xml version="1.0" encoding="utf-8" standalone="no"?>
<!DOCTYPE svg PUBLIC "-//W3C//DTD SVG 1.1//EN"
  "http://www.w3.org/Graphics/SVG/1.1/DTD/svg11.dtd">
<!-- Created with matplotlib (http://matplotlib.sourceforge.net/) -->
<svg height="432pt" version="1.1" viewBox="0 0 576 432" width="576pt" xmlns="http://www.w3.org/2000/svg" xmlns:xlink="http://www.w3.org/1999/xlink">
 <defs>
  <style type="text/css">
*{stroke-linecap:square;stroke-linejoin:round;}
  </style>
 </defs>
 <g id="figure_1">
  <g id="patch_1">
   <path d="
M0 432
L576 432
L576 0
L0 0
z
" style="fill:#ffffff;"/>
  </g>
  <g id="axes_1">
   <g id="patch_2">
    <path d="
M72 388.8
L518.4 388.8
L518.4 43.2
L72 43.2
z
" style="fill:#ffffff;"/>
   </g>
   <g id="line2d_1"/>
   <g id="line2d_2"/>
   <g id="line2d_3"/>
   <g id="line2d_4"/>
   <g id="line2d_5"/>
   <g id="line2d_6"/>
   <g id="line2d_7"/>
   <g id="line2d_8"/>
   <g id="line2d_9">
    <path clip-path="url(#p7ff5b81e1d)" d="
M481.338 388.798
L496.843 380.986
L511.197 373.552
L511.197 373.552" style="fill:none;stroke:#000000;"/>
   </g>
   <g id="line2d_10">
    <defs>
     <path d="
M0 3
C0.795609 3 1.55874 2.6839 2.12132 2.12132
C2.6839 1.55874 3 0.795609 3 0
C3 -0.795609 2.6839 -1.55874 2.12132 -2.12132
C1.55874 -2.6839 0.795609 -3 0 -3
C-0.795609 -3 -1.55874 -2.6839 -2.12132 -2.12132
C-2.6839 -1.55874 -3 -0.795609 -3 0
C-3 0.795609 -2.6839 1.55874 -2.12132 2.12132
C-1.55874 2.6839 -0.795609 3 0 3
z
" id="m0c4cda11fe" style="stroke:#000000;stroke-linecap:butt;stroke-width:0.5;"/>
    </defs>
    <g clip-path="url(#p7ff5b81e1d)">
     <use style="stroke:#000000;stroke-linecap:butt;stroke-width:0.5;" x="485.922503099" xlink:href="#m0c4cda11fe" y="386.513648328"/>
    </g>
   </g>
   <g id="line2d_11">
    <path clip-path="url(#p7ff5b81e1d)" d="
M411.334 388.799
L421.756 383.376
L432.362 377.606
L443.221 371.443
L454.395 364.844
L465.97 357.748
L478.056 350.076
L490.783 341.73
L504.319 332.584
L511.198 327.841
L511.198 327.841" style="fill:none;stroke:#000000;"/>
   </g>
   <g id="line2d_12">
    <g clip-path="url(#p7ff5b81e1d)">
     <use style="stroke:#000000;stroke-linecap:butt;stroke-width:0.5;" x="439.255989653" xlink:href="#m0c4cda11fe" y="373.722361438"/>
     <use style="stroke:#000000;stroke-linecap:butt;stroke-width:0.5;" x="467.465595759" xlink:href="#m0c4cda11fe" y="356.812766832"/>
     <use style="stroke:#000000;stroke-linecap:butt;stroke-width:0.5;" x="494.510481089" xlink:href="#m0c4cda11fe" y="339.237946381"/>
    </g>
   </g>
   <g id="line2d_13">
    <path clip-path="url(#p7ff5b81e1d)" d="
M348.057 388.799
L356.54 384.881
L364.91 380.771
L373.188 376.459
L381.394 371.934
L389.539 367.188
L397.649 362.205
L405.732 356.977
L413.82 351.48
L421.933 345.697
L430.105 339.598
L438.361 333.158
L446.741 326.337
L455.292 319.089
L464.061 311.362
L473.117 303.083
L482.536 294.168
L492.417 284.507
L502.891 273.951
L511.198 265.371
L511.198 265.371" style="fill:none;stroke:#000000;"/>
   </g>
   <g id="line2d_14">
    <g clip-path="url(#p7ff5b81e1d)">
     <use style="stroke:#000000;stroke-linecap:butt;stroke-width:0.5;" x="367.113288883" xlink:href="#m0c4cda11fe" y="379.648222162"/>
     <use style="stroke:#000000;stroke-linecap:butt;stroke-width:0.5;" x="396.386546059" xlink:href="#m0c4cda11fe" y="362.997712662"/>
     <use style="stroke:#000000;stroke-linecap:butt;stroke-width:0.5;" x="423.74089042" xlink:href="#m0c4cda11fe" y="344.371553647"/>
     <use style="stroke:#000000;stroke-linecap:butt;stroke-width:0.5;" x="449.145575027" xlink:href="#m0c4cda11fe" y="324.327593022"/>
     <use style="stroke:#000000;stroke-linecap:butt;stroke-width:0.5;" x="472.788693706" xlink:href="#m0c4cda11fe" y="303.388155019"/>
     <use style="stroke:#000000;stroke-linecap:butt;stroke-width:0.5;" x="494.978578479" xlink:href="#m0c4cda11fe" y="281.95386059"/>
    </g>
   </g>
   <g id="line2d_15">
    <path clip-path="url(#p7ff5b81e1d)" d="
M279.43 388.8
L288.046 386.135
L296.394 383.322
L304.496 380.358
L312.357 377.246
L320 373.982
L327.431 370.567
L334.665 366.999
L341.708 363.278
L348.575 359.4
L355.272 355.362
L361.804 351.165
L368.178 346.804
L374.401 342.278
L380.476 337.585
L386.416 332.715
L392.219 327.67
L397.896 322.44
L403.449 317.022
L408.889 311.404
L414.222 305.576
L419.455 299.526
L424.596 293.244
L429.653 286.712
L434.636 279.912
L439.556 272.819
L444.429 265.403
L449.267 257.633
L454.089 249.465
L458.912 240.857
L463.764 231.738
L468.673 222.033
L473.674 211.648
L478.811 200.463
L484.137 188.328
L489.725 175.032
L495.664 160.319
L502.071 143.84
L509.104 125.125
L511.2 119.438
L511.2 119.438" style="fill:none;stroke:#000000;"/>
   </g>
   <g id="line2d_16">
    <g clip-path="url(#p7ff5b81e1d)">
     <use style="stroke:#000000;stroke-linecap:butt;stroke-width:0.5;" x="295.474327816" xlink:href="#m0c4cda11fe" y="383.643520701"/>
     <use style="stroke:#000000;stroke-linecap:butt;stroke-width:0.5;" x="326.708273144" xlink:href="#m0c4cda11fe" y="370.910241691"/>
     <use style="stroke:#000000;stroke-linecap:butt;stroke-width:0.5;" x="356.516341837" xlink:href="#m0c4cda11fe" y="354.582799365"/>
     <use style="stroke:#000000;stroke-linecap:butt;stroke-width:0.5;" x="383.99802799" xlink:href="#m0c4cda11fe" y="334.732242257"/>
     <use style="stroke:#000000;stroke-linecap:butt;stroke-width:0.5;" x="408.431391135" xlink:href="#m0c4cda11fe" y="311.888166333"/>
     <use style="stroke:#000000;stroke-linecap:butt;stroke-width:0.5;" x="429.509919787" xlink:href="#m0c4cda11fe" y="286.901697931"/>
     <use style="stroke:#000000;stroke-linecap:butt;stroke-width:0.5;" x="447.402973264" xlink:href="#m0c4cda11fe" y="260.676456633"/>
     <use style="stroke:#000000;stroke-linecap:butt;stroke-width:0.5;" x="462.617234415" xlink:href="#m0c4cda11fe" y="233.93484652"/>
     <use style="stroke:#000000;stroke-linecap:butt;stroke-width:0.5;" x="475.778646185" xlink:href="#m0c4cda11fe" y="207.12916447"/>
     <use style="stroke:#000000;stroke-linecap:butt;stroke-width:0.5;" x="487.464104556" xlink:href="#m0c4cda11fe" y="180.478908719"/>
     <use style="stroke:#000000;stroke-linecap:butt;stroke-width:0.5;" x="498.126998185" xlink:href="#m0c4cda11fe" y="154.055339492"/>
     <use style="stroke:#000000;stroke-linecap:butt;stroke-width:0.5;" x="508.091975936" xlink:href="#m0c4cda11fe" y="127.855500787"/>
    </g>
   </g>
   <g id="line2d_17">
    <path clip-path="url(#p7ff5b81e1d)" d="
M79.207 388.8
L98.7836 388.689
L116.638 388.368
L133.038 387.855
L148.2 387.16
L162.289 386.295
L175.447 385.267
L187.796 384.081
L199.426 382.743
L210.422 381.256
L220.85 379.624
L230.769 377.848
L240.223 375.93
L249.253 373.874
L257.892 371.68
L266.173 369.348
L274.123 366.881
L281.754 364.28
L289.096 361.545
L296.16 358.677
L302.96 355.677
L309.503 352.549
L315.804 349.291
L321.868 345.906
L327.702 342.395
L333.308 338.764
L338.691 335.012
L343.859 331.141
L348.813 327.153
L353.552 323.053
L358.085 318.839
L362.405 314.52
L366.519 310.093
L370.421 305.568
L374.113 300.947
L377.595 296.233
L380.868 291.43
L383.927 286.545
L386.773 281.582
L389.408 276.543
L391.832 271.429
L394.04 266.251
L396.033 261.009
L397.809 255.715
L399.367 250.37
L400.706 244.983
L401.826 239.557
L402.727 234.094
L403.408 228.603
L403.868 223.086
L404.106 217.554
L404.122 212
L403.917 206.443
L403.488 200.877
L402.837 195.311
L401.962 189.749
L400.863 184.193
L399.538 178.645
L397.99 173.116
L396.214 167.601
L394.211 162.104
L391.978 156.628
L389.512 151.169
L386.811 145.73
L383.87 140.311
L380.685 134.907
L377.249 129.519
L373.558 124.145
L369.601 118.778
L365.368 113.412
L360.843 108.038
L356.011 102.645
L350.851 97.22
L345.335 91.7465
L339.433 86.204
L333.11 80.5747
L326.314 74.8235
L318.989 68.9189
L311.059 62.815
L302.429 56.4573
L292.986 49.7795
L283.331 43.2002
L283.331 43.2002" style="fill:none;stroke:#000000;"/>
   </g>
   <g id="line2d_18">
    <g clip-path="url(#p7ff5b81e1d)">
     <use style="stroke:#000000;stroke-linecap:butt;stroke-width:0.5;" x="79.2069767151" xlink:href="#m0c4cda11fe" y="388.799999987"/>
     <use style="stroke:#000000;stroke-linecap:butt;stroke-width:0.5;" x="107.324976106" xlink:href="#m0c4cda11fe" y="388.564002079"/>
     <use style="stroke:#000000;stroke-linecap:butt;stroke-width:0.5;" x="135.937690758" xlink:href="#m0c4cda11fe" y="387.73929915"/>
     <use style="stroke:#000000;stroke-linecap:butt;stroke-width:0.5;" x="165.116061057" xlink:href="#m0c4cda11fe" y="386.093023243"/>
     <use style="stroke:#000000;stroke-linecap:butt;stroke-width:0.5;" x="194.92645966" xlink:href="#m0c4cda11fe" y="383.287766105"/>
     <use style="stroke:#000000;stroke-linecap:butt;stroke-width:0.5;" x="225.388892473" xlink:href="#m0c4cda11fe" y="378.839433728"/>
     <use style="stroke:#000000;stroke-linecap:butt;stroke-width:0.5;" x="256.407050116" xlink:href="#m0c4cda11fe" y="372.073326432"/>
     <use style="stroke:#000000;stroke-linecap:butt;stroke-width:0.5;" x="287.645736991" xlink:href="#m0c4cda11fe" y="362.104472856"/>
     <use style="stroke:#000000;stroke-linecap:butt;stroke-width:0.5;" x="318.354577662" xlink:href="#m0c4cda11fe" y="347.898271335"/>
     <use style="stroke:#000000;stroke-linecap:butt;stroke-width:0.5;" x="347.193127997" xlink:href="#m0c4cda11fe" y="328.48845229"/>
     <use style="stroke:#000000;stroke-linecap:butt;stroke-width:0.5;" x="372.202216262" xlink:href="#m0c4cda11fe" y="303.383160674"/>
     <use style="stroke:#000000;stroke-linecap:butt;stroke-width:0.5;" x="391.098894087" xlink:href="#m0c4cda11fe" y="273.031224063"/>
     <use style="stroke:#000000;stroke-linecap:butt;stroke-width:0.5;" x="401.920356486" xlink:href="#m0c4cda11fe" y="239.04535601"/>
     <use style="stroke:#000000;stroke-linecap:butt;stroke-width:0.5;" x="403.749481715" xlink:href="#m0c4cda11fe" y="203.911852845"/>
     <use style="stroke:#000000;stroke-linecap:butt;stroke-width:0.5;" x="397.08960001" xlink:href="#m0c4cda11fe" y="170.229829034"/>
     <use style="stroke:#000000;stroke-linecap:butt;stroke-width:0.5;" x="383.627177285" xlink:href="#m0c4cda11fe" y="139.88239283"/>
     <use style="stroke:#000000;stroke-linecap:butt;stroke-width:0.5;" x="365.533443552" xlink:href="#m0c4cda11fe" y="113.615902808"/>
     <use style="stroke:#000000;stroke-linecap:butt;stroke-width:0.5;" x="344.75610501" xlink:href="#m0c4cda11fe" y="91.1888483941"/>
     <use style="stroke:#000000;stroke-linecap:butt;stroke-width:0.5;" x="322.659265125" xlink:href="#m0c4cda11fe" y="71.842598318"/>
     <use style="stroke:#000000;stroke-linecap:butt;stroke-width:0.5;" x="300.029342808" xlink:href="#m0c4cda11fe" y="54.7345551269"/>
    </g>
   </g>
   <g id="line2d_19">
    <path clip-path="url(#p7ff5b81e1d)" d="
M79.2066 367.2
L99.1793 367.089
L117.197 366.77
L133.572 366.261
L148.564 365.576
L162.372 364.725
L175.161 363.718
L187.064 362.559
L198.193 361.255
L208.639 359.81
L218.477 358.226
L227.767 356.508
L236.56 354.656
L244.897 352.676
L252.826 350.566
L260.369 348.33
L267.551 345.97
L274.397 343.489
L280.928 340.888
L287.163 338.166
L293.106 335.331
L298.771 332.383
L304.172 329.324
L309.308 326.161
L314.193 322.893
L318.826 319.526
L323.209 316.067
L327.348 312.519
L331.239 308.893
L334.888 305.189
L338.299 301.412
L341.472 297.568
L344.403 293.669
L347.094 289.72
L349.544 285.733
L351.754 281.714
L353.723 277.673
L355.453 273.616
L356.945 269.555
L358.199 265.504
L359.217 261.463
L360 257.448
L360.55 253.469
L360.869 249.541
L360.962 245.677
L360.831 241.877
L360.481 238.166
L359.918 234.546
L359.146 231.028
L358.175 227.639
L357.012 224.376
L355.658 221.241
L354.128 218.256
L352.432 215.435
L350.582 212.787
L348.583 210.311
L346.457 208.03
L344.208 205.941
L341.851 204.053
L339.404 202.375
L336.866 200.903
L334.274 199.655
L331.629 198.627
L328.952 197.823
L326.269 197.247
L323.577 196.895
L320.902 196.768
L318.272 196.865
L315.684 197.181
L313.167 197.714
L310.763 198.447
L308.466 199.378
L306.322 200.479
L304.322 201.746
L302.441 203.201
L300.727 204.814
L299.261 206.491
L298.036 208.203
L297.016 209.974
L296.361 211.396
L295.763 213.088
L295.763 213.088" style="fill:none;stroke:#000000;"/>
   </g>
   <g id="line2d_20">
    <g clip-path="url(#p7ff5b81e1d)">
     <use style="stroke:#000000;stroke-linecap:butt;stroke-width:0.5;" x="79.2066478355" xlink:href="#m0c4cda11fe" y="367.199999989"/>
     <use style="stroke:#000000;stroke-linecap:butt;stroke-width:0.5;" x="106.01398427" xlink:href="#m0c4cda11fe" y="366.994651378"/>
     <use style="stroke:#000000;stroke-linecap:butt;stroke-width:0.5;" x="133.336635142" xlink:href="#m0c4cda11fe" y="366.270006341"/>
     <use style="stroke:#000000;stroke-linecap:butt;stroke-width:0.5;" x="161.274661494" xlink:href="#m0c4cda11fe" y="364.801450541"/>
     <use style="stroke:#000000;stroke-linecap:butt;stroke-width:0.5;" x="189.944767815" xlink:href="#m0c4cda11fe" y="362.243465034"/>
     <use style="stroke:#000000;stroke-linecap:butt;stroke-width:0.5;" x="219.447568448" xlink:href="#m0c4cda11fe" y="358.057352003"/>
     <use style="stroke:#000000;stroke-linecap:butt;stroke-width:0.5;" x="249.794954666" xlink:href="#m0c4cda11fe" y="351.400007274"/>
     <use style="stroke:#000000;stroke-linecap:butt;stroke-width:0.5;" x="280.732168726" xlink:href="#m0c4cda11fe" y="340.96919646"/>
     <use style="stroke:#000000;stroke-linecap:butt;stroke-width:0.5;" x="311.339088653" xlink:href="#m0c4cda11fe" y="324.834560095"/>
     <use style="stroke:#000000;stroke-linecap:butt;stroke-width:0.5;" x="339.188220831" xlink:href="#m0c4cda11fe" y="300.369655367"/>
     <use style="stroke:#000000;stroke-linecap:butt;stroke-width:0.5;" x="358.451469358" xlink:href="#m0c4cda11fe" y="264.580507447"/>
     <use style="stroke:#000000;stroke-linecap:butt;stroke-width:0.5;" x="353.007517539" xlink:href="#m0c4cda11fe" y="216.344799169"/>
    </g>
   </g>
   <g id="line2d_21">
    <path clip-path="url(#p7ff5b81e1d)" d="
M79.2063 345.6
L100.021 345.489
L118.521 345.172
L135.119 344.669
L150.13 343.995
L163.81 343.162
L176.346 342.179
L187.91 341.052
L198.621 339.788
L208.586 338.39
L217.891 336.863
L226.608 335.209
L234.802 333.431
L242.513 331.532
L249.789 329.513
L256.66 327.377
L263.154 325.128
L269.295 322.767
L275.109 320.296
L280.606 317.72
L285.797 315.043
L290.703 312.265
L295.319 309.396
L299.661 306.439
L303.734 303.397
L307.545 300.276
L311.095 297.084
L314.391 293.823
L317.434 290.501
L320.224 287.127
L322.764 283.708
L325.051 280.26
L327.091 276.782
L328.884 273.29
L330.431 269.79
L331.733 266.3
L332.793 262.825
L333.616 259.371
L334.202 255.954
L334.555 252.594
L334.679 249.294
L334.579 246.057
L334.262 242.918
L333.731 239.864
L332.996 236.93
L332.066 234.12
L330.944 231.433
L329.641 228.889
L328.175 226.51
L326.551 224.294
L324.79 222.263
L322.897 220.416
L320.902 218.774
L318.809 217.334
L316.614 216.091
L314.353 215.067
L312.088 214.281
L309.745 213.706
L307.494 213.376
L305.241 213.264
L303.127 213.365
L301.216 213.641
L299.587 214.029
L298.318 214.442
L297.266 214.869
L297.266 214.869" style="fill:none;stroke:#000000;"/>
   </g>
   <g id="line2d_22">
    <g clip-path="url(#p7ff5b81e1d)">
     <use style="stroke:#000000;stroke-linecap:butt;stroke-width:0.5;" x="79.2063479138" xlink:href="#m0c4cda11fe" y="345.59999999"/>
     <use style="stroke:#000000;stroke-linecap:butt;stroke-width:0.5;" x="104.814290239" xlink:href="#m0c4cda11fe" y="345.428395819"/>
     <use style="stroke:#000000;stroke-linecap:butt;stroke-width:0.5;" x="130.946961139" xlink:href="#m0c4cda11fe" y="344.81734106"/>
     <use style="stroke:#000000;stroke-linecap:butt;stroke-width:0.5;" x="157.73090801" xlink:href="#m0c4cda11fe" y="343.560891084"/>
     <use style="stroke:#000000;stroke-linecap:butt;stroke-width:0.5;" x="185.335069746" xlink:href="#m0c4cda11fe" y="341.323402707"/>
     <use style="stroke:#000000;stroke-linecap:butt;stroke-width:0.5;" x="213.958494275" xlink:href="#m0c4cda11fe" y="337.536372911"/>
     <use style="stroke:#000000;stroke-linecap:butt;stroke-width:0.5;" x="243.780979805" xlink:href="#m0c4cda11fe" y="331.196382367"/>
     <use style="stroke:#000000;stroke-linecap:butt;stroke-width:0.5;" x="274.762020213" xlink:href="#m0c4cda11fe" y="320.450912065"/>
     <use style="stroke:#000000;stroke-linecap:butt;stroke-width:0.5;" x="305.882724114" xlink:href="#m0c4cda11fe" y="301.673412653"/>
     <use style="stroke:#000000;stroke-linecap:butt;stroke-width:0.5;" x="331.568629812" xlink:href="#m0c4cda11fe" y="266.778491702"/>
    </g>
   </g>
   <g id="line2d_23">
    <path clip-path="url(#p7ff5b81e1d)" d="
M79.2061 324
L101.508 323.889
L120.961 323.574
L138.112 323.079
L153.384 322.42
L167.102 321.609
L179.515 320.656
L190.824 319.568
L201.183 318.351
L210.722 317.01
L219.547 315.547
L227.736 313.967
L235.363 312.272
L242.485 310.463
L249.146 308.545
L255.386 306.518
L261.231 304.388
L266.711 302.157
L271.856 299.824
L276.674 297.397
L281.182 294.879
L285.392 292.275
L289.315 289.588
L292.954 286.829
L296.325 283.996
L299.424 281.104
L302.267 278.148
L304.845 275.15
L307.165 272.113
L309.237 269.038
L311.054 265.946
L312.626 262.836
L313.948 259.732
L315.029 256.628
L315.868 253.55
L316.47 250.507
L316.838 247.508
L316.979 244.559
L316.894 241.667
L316.589 238.86
L316.076 236.172
L315.358 233.585
L314.452 231.134
L313.348 228.791
L312.088 226.631
L310.662 224.622
L309.113 222.815
L307.401 221.16
L305.573 219.709
L303.777 218.549
L301.993 217.626
L299.929 216.818
L298.236 216.356
L297.074 216.144
L297.074 216.144" style="fill:none;stroke:#000000;"/>
   </g>
   <g id="line2d_24">
    <g clip-path="url(#p7ff5b81e1d)">
     <use style="stroke:#000000;stroke-linecap:butt;stroke-width:0.5;" x="79.2060812413" xlink:href="#m0c4cda11fe" y="323.999999992"/>
     <use style="stroke:#000000;stroke-linecap:butt;stroke-width:0.5;" x="103.742026976" xlink:href="#m0c4cda11fe" y="323.864118242"/>
     <use style="stroke:#000000;stroke-linecap:butt;stroke-width:0.5;" x="128.797323242" xlink:href="#m0c4cda11fe" y="323.376596742"/>
     <use style="stroke:#000000;stroke-linecap:butt;stroke-width:0.5;" x="154.518256172" xlink:href="#m0c4cda11fe" y="322.36123462"/>
     <use style="stroke:#000000;stroke-linecap:butt;stroke-width:0.5;" x="181.120101473" xlink:href="#m0c4cda11fe" y="320.515195166"/>
     <use style="stroke:#000000;stroke-linecap:butt;stroke-width:0.5;" x="208.906806446" xlink:href="#m0c4cda11fe" y="317.28312466"/>
     <use style="stroke:#000000;stroke-linecap:butt;stroke-width:0.5;" x="238.285756904" xlink:href="#m0c4cda11fe" y="311.557853663"/>
     <use style="stroke:#000000;stroke-linecap:butt;stroke-width:0.5;" x="269.655801802" xlink:href="#m0c4cda11fe" y="300.852015345"/>
     <use style="stroke:#000000;stroke-linecap:butt;stroke-width:0.5;" x="302.241126241" xlink:href="#m0c4cda11fe" y="278.176809646"/>
    </g>
   </g>
   <g id="line2d_25">
    <path clip-path="url(#p7ff5b81e1d)" d="
M79.2059 302.4
L104.031 302.289
L125.117 301.978
L143.274 301.493
L159.1 300.853
L173.049 300.07
L185.455 299.156
L196.581 298.116
L206.626 296.958
L215.759 295.685
L224.102 294.301
L231.76 292.808
L238.821 291.208
L245.342 289.504
L251.378 287.701
L256.979 285.798
L262.185 283.797
L267.012 281.705
L271.497 279.522
L275.653 277.255
L279.495 274.907
L283.041 272.483
L286.3 269.988
L289.284 267.427
L291.996 264.808
L294.44 262.143
L296.631 259.426
L298.566 256.675
L300.244 253.906
L301.672 251.125
L302.858 248.33
L303.796 245.557
L304.496 242.804
L304.96 240.09
L305.194 237.4
L305.2 234.781
L304.987 232.254
L304.556 229.798
L303.927 227.48
L303.097 225.271
L302.122 223.279
L300.927 221.349
L299.714 219.773
L298.357 218.337
L297.476 217.555
L296.609 216.887
L296.609 216.887" style="fill:none;stroke:#000000;"/>
   </g>
   <g id="line2d_26">
    <g clip-path="url(#p7ff5b81e1d)">
     <use style="stroke:#000000;stroke-linecap:butt;stroke-width:0.5;" x="79.205852373" xlink:href="#m0c4cda11fe" y="302.399999994"/>
     <use style="stroke:#000000;stroke-linecap:butt;stroke-width:0.5;" x="102.814795855" xlink:href="#m0c4cda11fe" y="302.300063194"/>
     <use style="stroke:#000000;stroke-linecap:butt;stroke-width:0.5;" x="126.920262097" xlink:href="#m0c4cda11fe" y="301.939654744"/>
     <use style="stroke:#000000;stroke-linecap:butt;stroke-width:0.5;" x="151.677065742" xlink:href="#m0c4cda11fe" y="301.181793231"/>
     <use style="stroke:#000000;stroke-linecap:butt;stroke-width:0.5;" x="177.330160994" xlink:href="#m0c4cda11fe" y="299.780318268"/>
     <use style="stroke:#000000;stroke-linecap:butt;stroke-width:0.5;" x="204.271212183" xlink:href="#m0c4cda11fe" y="297.250862216"/>
     <use style="stroke:#000000;stroke-linecap:butt;stroke-width:0.5;" x="233.158215024" xlink:href="#m0c4cda11fe" y="292.509320166"/>
     <use style="stroke:#000000;stroke-linecap:butt;stroke-width:0.5;" x="265.115453826" xlink:href="#m0c4cda11fe" y="282.556748168"/>
     <use style="stroke:#000000;stroke-linecap:butt;stroke-width:0.5;" x="300.706848437" xlink:href="#m0c4cda11fe" y="253.056464717"/>
    </g>
   </g>
   <g id="line2d_27">
    <path clip-path="url(#p7ff5b81e1d)" d="
M79.2057 280.8
L108.374 280.689
L132.185 280.383
L151.984 279.912
L168.724 279.298
L183.078 278.554
L195.54 277.69
L206.475 276.714
L216.163 275.63
L224.815 274.442
L232.594 273.153
L239.628 271.766
L246.019 270.282
L251.853 268.703
L257.186 267.032
L262.081 265.268
L266.572 263.416
L270.689 261.48
L274.466 259.461
L277.922 257.364
L281.069 255.196
L283.921 252.964
L286.496 250.67
L288.804 248.32
L290.843 245.928
L292.627 243.497
L294.158 241.038
L295.441 238.56
L296.479 236.07
L297.269 233.604
L297.818 231.172
L298.135 228.775
L298.222 226.469
L298.093 224.263
L297.756 222.135
L297.24 220.196
L296.579 218.461
L296.283 217.83
L296.283 217.83" style="fill:none;stroke:#000000;"/>
   </g>
   <g id="line2d_28">
    <g clip-path="url(#p7ff5b81e1d)">
     <use style="stroke:#000000;stroke-linecap:butt;stroke-width:0.5;" x="79.2056659022" xlink:href="#m0c4cda11fe" y="280.799999996"/>
     <use style="stroke:#000000;stroke-linecap:butt;stroke-width:0.5;" x="102.051136799" xlink:href="#m0c4cda11fe" y="280.733954409"/>
     <use style="stroke:#000000;stroke-linecap:butt;stroke-width:0.5;" x="125.352447548" xlink:href="#m0c4cda11fe" y="280.49537731"/>
     <use style="stroke:#000000;stroke-linecap:butt;stroke-width:0.5;" x="149.258531866" xlink:href="#m0c4cda11fe" y="279.991432814"/>
     <use style="stroke:#000000;stroke-linecap:butt;stroke-width:0.5;" x="174.016937606" xlink:href="#m0c4cda11fe" y="279.050095108"/>
     <use style="stroke:#000000;stroke-linecap:butt;stroke-width:0.5;" x="200.057652249" xlink:href="#m0c4cda11fe" y="277.314473479"/>
     <use style="stroke:#000000;stroke-linecap:butt;stroke-width:0.5;" x="228.219851621" xlink:href="#m0c4cda11fe" y="273.906048885"/>
     <use style="stroke:#000000;stroke-linecap:butt;stroke-width:0.5;" x="260.48092838" xlink:href="#m0c4cda11fe" y="265.871730894"/>
    </g>
   </g>
   <g id="line2d_29">
    <path clip-path="url(#p7ff5b81e1d)" d="
M79.2055 259.2
L116.479 259.089
L144.939 258.791
L167.291 258.342
L185.278 257.766
L200.049 257.078
L212.403 256.285
L222.892 255.395
L231.918 254.412
L239.777 253.337
L246.684 252.172
L252.805 250.918
L258.261 249.578
L263.158 248.149
L267.561 246.636
L271.527 245.042
L275.105 243.368
L278.33 241.616
L281.237 239.787
L283.84 237.89
L286.145 235.938
L288.178 233.931
L289.956 231.866
L291.467 229.775
L292.736 227.639
L293.73 225.543
L294.485 223.455
L294.993 221.443
L295.277 219.472
L295.339 217.695
L295.339 217.695" style="fill:none;stroke:#000000;"/>
   </g>
   <g id="line2d_30">
    <g clip-path="url(#p7ff5b81e1d)">
     <use style="stroke:#000000;stroke-linecap:butt;stroke-width:0.5;" x="79.2055261345" xlink:href="#m0c4cda11fe" y="259.199999998"/>
     <use style="stroke:#000000;stroke-linecap:butt;stroke-width:0.5;" x="101.469521701" xlink:href="#m0c4cda11fe" y="259.163369471"/>
     <use style="stroke:#000000;stroke-linecap:butt;stroke-width:0.5;" x="124.133865819" xlink:href="#m0c4cda11fe" y="259.031440485"/>
     <use style="stroke:#000000;stroke-linecap:butt;stroke-width:0.5;" x="147.327365712" xlink:href="#m0c4cda11fe" y="258.75347963"/>
     <use style="stroke:#000000;stroke-linecap:butt;stroke-width:0.5;" x="171.26911746" xlink:href="#m0c4cda11fe" y="258.234512898"/>
     <use style="stroke:#000000;stroke-linecap:butt;stroke-width:0.5;" x="196.354469366" xlink:href="#m0c4cda11fe" y="257.272682957"/>
     <use style="stroke:#000000;stroke-linecap:butt;stroke-width:0.5;" x="223.418392333" xlink:href="#m0c4cda11fe" y="255.344085805"/>
     <use style="stroke:#000000;stroke-linecap:butt;stroke-width:0.5;" x="254.830588781" xlink:href="#m0c4cda11fe" y="250.447635652"/>
    </g>
   </g>
   <g id="line2d_31">
    <path clip-path="url(#p7ff5b81e1d)" d="
M79.2054 237.6
L135.89 237.489
L172.971 237.207
L198.707 236.801
L217.407 236.294
L231.521 235.699
L242.508 235.021
L251.295 234.264
L258.484 233.428
L264.481 232.513
L269.551 231.521
L273.903 230.447
L277.665 229.295
L280.94 228.065
L283.813 226.753
L286.322 225.367
L288.511 223.908
L290.41 222.379
L291.994 220.832
L293.367 219.179
L294.424 217.568
L294.723 217.023
L294.723 217.023" style="fill:none;stroke:#000000;"/>
   </g>
   <g id="line2d_32">
    <g clip-path="url(#p7ff5b81e1d)">
     <use style="stroke:#000000;stroke-linecap:butt;stroke-width:0.5;" x="79.2054366843" xlink:href="#m0c4cda11fe" y="237.599999999"/>
     <use style="stroke:#000000;stroke-linecap:butt;stroke-width:0.5;" x="101.086771336" xlink:href="#m0c4cda11fe" y="237.586338762"/>
     <use style="stroke:#000000;stroke-linecap:butt;stroke-width:0.5;" x="123.304972535" xlink:href="#m0c4cda11fe" y="237.537534131"/>
     <use style="stroke:#000000;stroke-linecap:butt;stroke-width:0.5;" x="145.959311711" xlink:href="#m0c4cda11fe" y="237.43581184"/>
     <use style="stroke:#000000;stroke-linecap:butt;stroke-width:0.5;" x="169.217443812" xlink:href="#m0c4cda11fe" y="237.248447563"/>
     <use style="stroke:#000000;stroke-linecap:butt;stroke-width:0.5;" x="193.376611655" xlink:href="#m0c4cda11fe" y="236.90702352"/>
     <use style="stroke:#000000;stroke-linecap:butt;stroke-width:0.5;" x="219.057019484" xlink:href="#m0c4cda11fe" y="236.23641966"/>
     <use style="stroke:#000000;stroke-linecap:butt;stroke-width:0.5;" x="248.030687272" xlink:href="#m0c4cda11fe" y="234.573437239"/>
    </g>
   </g>
   <g id="line2d_33">
    <path clip-path="url(#p7ff5b81e1d)" d="
M79.2054 216
L201.068 216.111
L249.571 216.354
L275.403 216.689
L288.981 216.824
L292.065 216.627
L294.087 216.298
L295.089 216.035
L295.089 216.035" style="fill:none;stroke:#000000;"/>
   </g>
   <g id="line2d_34">
    <g clip-path="url(#p7ff5b81e1d)">
     <use style="stroke:#000000;stroke-linecap:butt;stroke-width:0.5;" x="79.2054000608" xlink:href="#m0c4cda11fe" y="216.0"/>
     <use style="stroke:#000000;stroke-linecap:butt;stroke-width:0.5;" x="100.916006945" xlink:href="#m0c4cda11fe" y="216.001963816"/>
     <use style="stroke:#000000;stroke-linecap:butt;stroke-width:0.5;" x="122.901370711" xlink:href="#m0c4cda11fe" y="216.008809741"/>
     <use style="stroke:#000000;stroke-linecap:butt;stroke-width:0.5;" x="145.230309196" xlink:href="#m0c4cda11fe" y="216.022583981"/>
     <use style="stroke:#000000;stroke-linecap:butt;stroke-width:0.5;" x="168.015041566" xlink:href="#m0c4cda11fe" y="216.046720821"/>
     <use style="stroke:#000000;stroke-linecap:butt;stroke-width:0.5;" x="191.439048033" xlink:href="#m0c4cda11fe" y="216.087532794"/>
     <use style="stroke:#000000;stroke-linecap:butt;stroke-width:0.5;" x="215.840169814" xlink:href="#m0c4cda11fe" y="216.158294885"/>
     <use style="stroke:#000000;stroke-linecap:butt;stroke-width:0.5;" x="241.98450739" xlink:href="#m0c4cda11fe" y="216.293974176"/>
     <use style="stroke:#000000;stroke-linecap:butt;stroke-width:0.5;" x="272.824385773" xlink:href="#m0c4cda11fe" y="216.643940342"/>
    </g>
   </g>
   <g id="line2d_35">
    <path clip-path="url(#p7ff5b81e1d)" d="
M264.185 216
L264.294 218.604
L264.622 221.19
L265.166 223.738
L265.921 226.233
L266.884 228.655
L268.046 230.987
L269.4 233.214
L270.937 235.319
L272.644 237.288
L274.511 239.107
L276.524 240.762
L278.669 242.243
L280.931 243.538
L283.293 244.639
L285.74 245.537
L288.253 246.227
L290.815 246.704
L293.409 246.963
L296.015 247.005
L298.615 246.827
L301.191 246.431
L303.725 245.821
L306.198 245
L308.594 243.974
L310.895 242.751
L313.086 241.339
L315.15 239.747
L317.073 237.989
L318.842 236.075
L320.444 234.019
L321.868 231.836
L323.103 229.541
L324.142 227.15
L324.976 224.681
L325.599 222.151
L326.008 219.577
L326.2 216.977
L326.172 214.371
L325.926 211.777
L325.463 209.212
L324.787 206.695
L323.901 204.244
L322.813 201.876
L321.529 199.607
L320.06 197.455
L318.415 195.433
L316.607 193.557
L314.647 191.839
L312.549 190.291
L310.33 188.925
L308.003 187.751
L305.586 186.776
L303.096 186.007
L300.55 185.45
L297.966 185.108
L295.363 184.985
L292.758 185.081
L290.171 185.395
L287.619 185.925
L285.121 186.668
L282.694 187.618
L280.355 188.768
L278.122 190.11
L276.008 191.636
L274.03 193.333
L272.202 195.19
L270.536 197.195
L269.044 199.332
L267.737 201.587
L266.624 203.943
L265.713 206.385
L265.01 208.894
L264.52 211.454
L264.246 214.046
L264.185 216
L264.185 216" style="fill:none;stroke:#0000ff;"/>
   </g>
   <g id="line2d_36">
    <path clip-path="url(#p7ff5b81e1d)" d="
M283.015 216
L283.112 217.532
L283.401 219.04
L283.877 220.5
L284.532 221.888
L285.357 223.183
L286.339 224.363
L287.461 225.411
L288.706 226.31
L290.054 227.045
L291.483 227.604
L292.972 227.979
L294.496 228.164
L296.032 228.156
L297.554 227.955
L299.038 227.564
L300.462 226.99
L301.802 226.241
L303.038 225.33
L304.149 224.27
L305.118 223.079
L305.929 221.776
L306.57 220.381
L307.031 218.916
L307.303 217.405
L307.384 215.872
L307.271 214.341
L306.967 212.836
L306.476 211.381
L305.805 210
L304.967 208.714
L303.973 207.544
L302.84 206.508
L301.586 205.622
L300.23 204.902
L298.794 204.357
L297.302 203.998
L295.776 203.829
L294.241 203.853
L292.721 204.07
L291.24 204.477
L289.823 205.066
L288.49 205.829
L287.265 206.753
L286.165 207.825
L285.209 209.026
L284.411 210.337
L283.784 211.739
L283.339 213.208
L283.082 214.722
L283.015 216
L283.015 216" style="fill:none;stroke:#ff0000;stroke-dasharray:6.000000,6.000000;stroke-dashoffset:0.0;stroke-linecap:butt;"/>
   </g>
   <g id="line2d_37">
    <path clip-path="url(#p7ff5b81e1d)" d="
M252 216
L252.086 218.722
L252.343 221.432
L252.77 224.122
L253.366 226.779
L254.128 229.393
L255.054 231.954
L256.139 234.451
L257.379 236.875
L258.769 239.217
L260.304 241.466
L261.978 243.614
L263.783 245.652
L265.714 247.572
L267.761 249.367
L269.918 251.029
L272.175 252.553
L274.524 253.931
L276.954 255.158
L279.458 256.23
L282.023 257.141
L284.641 257.89
L287.301 258.472
L289.993 258.885
L292.705 259.128
L295.427 259.199
L298.148 259.099
L300.857 258.828
L303.544 258.386
L306.198 257.777
L308.808 257.001
L311.364 256.062
L313.856 254.964
L316.274 253.711
L318.608 252.309
L320.849 250.762
L322.988 249.077
L325.016 247.261
L326.927 245.32
L328.711 243.263
L330.362 241.098
L331.873 238.833
L333.239 236.477
L334.453 234.04
L335.512 231.531
L336.41 228.96
L337.145 226.338
L337.713 223.675
L338.112 220.982
L338.34 218.268
L338.398 215.546
L338.283 212.826
L337.998 210.118
L337.542 207.433
L336.918 204.782
L336.129 202.177
L335.176 199.625
L334.065 197.139
L332.8 194.728
L331.385 192.402
L329.827 190.169
L328.13 188.039
L326.303 186.02
L324.353 184.12
L322.287 182.347
L320.113 180.707
L317.84 179.208
L315.477 177.854
L313.033 176.653
L310.519 175.607
L307.944 174.722
L305.318 174.002
L302.652 173.448
L299.956 173.063
L297.242 172.848
L294.519 172.805
L291.799 172.934
L289.093 173.234
L286.411 173.704
L283.763 174.341
L281.162 175.145
L278.616 176.11
L276.136 177.234
L273.731 178.512
L271.412 179.939
L269.187 181.51
L267.066 183.217
L265.057 185.054
L263.167 187.015
L261.405 189.091
L259.777 191.273
L258.289 193.554
L256.948 195.924
L255.759 198.374
L254.727 200.893
L253.856 203.473
L253.149 206.103
L252.609 208.772
L252.238 211.469
L252.038 214.185
L252 216
L252 216" style="fill:none;stroke:#008000;stroke-dasharray:6.000000,6.000000;stroke-dashoffset:0.0;stroke-linecap:butt;"/>
   </g>
   <g id="matplotlib.axis_1">
    <g id="xtick_1">
     <g id="line2d_38">
      <defs>
       <path d="
M0 0
L0 -4" id="m0012dd4eef" style="stroke:#000000;stroke-linecap:butt;stroke-width:0.5;"/>
      </defs>
      <g>
       <use style="stroke:#000000;stroke-linecap:butt;stroke-width:0.5;" x="79.2" xlink:href="#m0012dd4eef" y="388.8"/>
      </g>
     </g>
     <g id="line2d_39">
      <defs>
       <path d="
M0 0
L0 4" id="m476344969c" style="stroke:#000000;stroke-linecap:butt;stroke-width:0.5;"/>
      </defs>
      <g>
       <use style="stroke:#000000;stroke-linecap:butt;stroke-width:0.5;" x="79.2" xlink:href="#m476344969c" y="43.2"/>
      </g>
     </g>
     <g id="text_1">
      <!-- $- 10 M$ -->
      <defs>
       <path d="
M5.07812 0
Q4.10938 0 4.10938 1.3125
Q4.15625 1.5625 4.29688 2.14062
Q4.4375 2.73438 4.6875 3.125
Q4.9375 3.51562 5.42188 3.51562
Q14.9375 3.51562 16.5 9.625
L29.5 61.8125
Q29.6875 62.7969 29.6875 63.1875
Q29.6875 64.2656 28.5156 64.4062
Q26.6094 64.7969 21.2969 64.7969
Q20.3125 64.7969 20.3125 66.1094
Q20.3594 66.3594 20.5 66.9688
Q20.6562 67.5781 20.9219 67.9375
Q21.1875 68.3125 21.5781 68.3125
L39.2031 68.3125
Q40.3281 68.3125 40.4844 67.1875
L48.2969 9.90625
L84.7188 67.1875
Q85.4062 68.3125 86.625 68.3125
L103.609 68.3125
Q104.594 68.3125 104.594 67
Q104.547 66.75 104.391 66.1406
Q104.25 65.5312 103.984 65.1562
Q103.719 64.7969 103.328 64.7969
Q97.2188 64.7969 94.8281 64.1094
Q93.5 63.6719 92.9219 61.375
L79.2031 6.5
Q79 5.51562 79 5.07812
Q79 4.6875 79.125 4.42188
Q79.25 4.15625 79.4688 4.07812
Q79.6875 4 80.1719 3.90625
Q82.0781 3.51562 87.4062 3.51562
Q88.375 3.51562 88.375 2.20312
Q88.0312 0.78125 87.8281 0.390625
Q87.6406 0 86.7188 0
L60.5938 0
Q59.625 0 59.625 1.3125
Q59.6719 1.5625 59.8125 2.17188
Q59.9688 2.78125 60.2344 3.14062
Q60.5 3.51562 60.8906 3.51562
Q67 3.51562 69.3906 4.20312
Q70.7031 4.64062 71.2969 6.89062
L85.6875 64.7969
L45.3125 1.125
Q44.7344 0 43.3125 0
Q42.0469 0 41.8906 1.125
L33.4062 64.0156
L19.6719 9.1875
Q19.5781 8.9375 19.5312 8.5625
Q19.4844 8.20312 19.3906 7.71875
Q19.3906 5.125 21.6562 4.3125
Q23.9219 3.51562 27.2031 3.51562
Q28.2188 3.51562 28.2188 2.20312
Q27.875 0.875 27.6562 0.4375
Q27.4375 0 26.5156 0
z
" id="Cmmi10-4d"/>
       <path d="
M9.28125 0
L9.28125 3.51562
Q21.7812 3.51562 21.7812 6.6875
L21.7812 59.1875
Q16.6094 56.6875 8.6875 56.6875
L8.6875 60.2031
Q20.9531 60.2031 27.2031 66.6094
L28.6094 66.6094
Q28.9531 66.6094 29.2656 66.3281
Q29.5938 66.0625 29.5938 65.7188
L29.5938 6.6875
Q29.5938 3.51562 42.0938 3.51562
L42.0938 0
z
" id="Cmr10-31"/>
       <path d="
M10.2031 23
Q9.375 23 8.82812 23.625
Q8.29688 24.2656 8.29688 25
Q8.29688 25.7344 8.82812 26.3594
Q9.375 27 10.2031 27
L67.5781 27
Q68.3594 27 68.875 26.3594
Q69.3906 25.7344 69.3906 25
Q69.3906 24.2656 68.875 23.625
Q68.3594 23 67.5781 23
z
" id="Cmsy10-a1"/>
       <path d="
M25 -2.20312
Q12.75 -2.20312 8.32812 7.875
Q3.90625 17.9688 3.90625 31.8906
Q3.90625 40.5781 5.48438 48.2344
Q7.07812 55.9062 11.7812 61.25
Q16.5 66.6094 25 66.6094
Q31.5938 66.6094 35.7812 63.375
Q39.9844 60.1562 42.1875 55.0469
Q44.3906 49.9531 45.1875 44.1094
Q46 38.2812 46 31.8906
Q46 23.2969 44.4062 15.7969
Q42.8281 8.29688 38.1875 3.04688
Q33.5469 -2.20312 25 -2.20312
M25 0.390625
Q30.5625 0.390625 33.2969 6.09375
Q36.0312 11.8125 36.6719 18.75
Q37.3125 25.6875 37.3125 33.5
Q37.3125 41.0156 36.6719 47.3594
Q36.0312 53.7188 33.3125 58.8594
Q30.6094 64.0156 25 64.0156
Q19.3438 64.0156 16.6094 58.8281
Q13.875 53.6562 13.2344 47.3281
Q12.5938 41.0156 12.5938 33.5
Q12.5938 27.9375 12.8594 23
Q13.1406 18.0625 14.3125 12.8125
Q15.4844 7.5625 18.0938 3.96875
Q20.7031 0.390625 25 0.390625" id="Cmr10-30"/>
      </defs>
      <g transform="translate(62.7 401.44)scale(0.12 -0.12)">
       <use transform="translate(0.0 3.6875)" xlink:href="#Cmsy10-a1"/>
       <use transform="translate(77.685546875 3.6875)" xlink:href="#Cmr10-31"/>
       <use transform="translate(127.685546875 3.6875)" xlink:href="#Cmr10-30"/>
       <use transform="translate(177.685546875 3.6875)" xlink:href="#Cmmi10-4d"/>
      </g>
     </g>
    </g>
    <g id="xtick_2">
     <g id="line2d_40">
      <g>
       <use style="stroke:#000000;stroke-linecap:butt;stroke-width:0.5;" x="100.8" xlink:href="#m0012dd4eef" y="388.8"/>
      </g>
     </g>
     <g id="line2d_41">
      <g>
       <use style="stroke:#000000;stroke-linecap:butt;stroke-width:0.5;" x="100.8" xlink:href="#m476344969c" y="43.2"/>
      </g>
     </g>
    </g>
    <g id="xtick_3">
     <g id="line2d_42">
      <g>
       <use style="stroke:#000000;stroke-linecap:butt;stroke-width:0.5;" x="122.4" xlink:href="#m0012dd4eef" y="388.8"/>
      </g>
     </g>
     <g id="line2d_43">
      <g>
       <use style="stroke:#000000;stroke-linecap:butt;stroke-width:0.5;" x="122.4" xlink:href="#m476344969c" y="43.2"/>
      </g>
     </g>
     <g id="text_2">
      <!-- $- 8 M$ -->
      <defs>
       <path d="
M4.20312 15.1875
Q4.20312 21.1875 8.15625 25.7969
Q12.1094 30.4219 18.3125 33.5
L14.5938 35.8906
Q11.1875 38.1406 9.03125 41.875
Q6.89062 45.6094 6.89062 49.7031
Q6.89062 54.5 9.40625 58.3438
Q11.9219 62.2031 16.0938 64.4062
Q20.2656 66.6094 25 66.6094
Q29.4375 66.6094 33.5625 64.7969
Q37.7031 62.9844 40.3594 59.6094
Q43.0156 56.25 43.0156 51.6094
Q43.0156 48.25 41.4219 45.3594
Q39.8438 42.4844 37.0781 40.1875
Q34.3281 37.8906 31.2031 36.2812
L36.9219 32.625
Q40.875 30.0312 43.2812 25.8281
Q45.7031 21.625 45.7031 17
Q45.7031 11.5781 42.7969 7.125
Q39.8906 2.6875 35.1094 0.234375
Q30.3281 -2.20312 25 -2.20312
Q19.8281 -2.20312 15.0156 -0.09375
Q10.2031 2 7.20312 5.98438
Q4.20312 9.96875 4.20312 15.1875
M9.625 15.1875
Q9.625 11.2344 11.7969 7.95312
Q13.9688 4.6875 17.5312 2.82812
Q21.0938 0.984375 25 0.984375
Q30.8125 0.984375 35.5469 4.375
Q40.2812 7.76562 40.2812 13.375
Q40.2812 15.2812 39.5156 17.1562
Q38.7656 19.0469 37.4219 20.5781
Q36.0781 22.125 34.4219 23.0938
L21 31.7812
Q17.875 30.125 15.25 27.5781
Q12.6406 25.0469 11.125 21.875
Q9.625 18.7031 9.625 15.1875
M16.5 45.7031
L28.6094 37.8906
Q32.8125 40.3281 35.5 43.7969
Q38.1875 47.2656 38.1875 51.6094
Q38.1875 54.9844 36.2969 57.7812
Q34.4219 60.5938 31.3906 62.1562
Q28.375 63.7188 24.9062 63.7188
Q21.875 63.7188 18.7969 62.5469
Q15.7188 61.375 13.7188 59.0469
Q11.7188 56.7344 11.7188 53.6094
Q11.7188 48.9219 16.5 45.7031" id="Cmr10-38"/>
      </defs>
      <g transform="translate(108.9 401.44)scale(0.12 -0.12)">
       <use transform="translate(0.0 3.6875)" xlink:href="#Cmsy10-a1"/>
       <use transform="translate(77.685546875 3.6875)" xlink:href="#Cmr10-38"/>
       <use transform="translate(127.685546875 3.6875)" xlink:href="#Cmmi10-4d"/>
      </g>
     </g>
    </g>
    <g id="xtick_4">
     <g id="line2d_44">
      <g>
       <use style="stroke:#000000;stroke-linecap:butt;stroke-width:0.5;" x="144.0" xlink:href="#m0012dd4eef" y="388.8"/>
      </g>
     </g>
     <g id="line2d_45">
      <g>
       <use style="stroke:#000000;stroke-linecap:butt;stroke-width:0.5;" x="144.0" xlink:href="#m476344969c" y="43.2"/>
      </g>
     </g>
    </g>
    <g id="xtick_5">
     <g id="line2d_46">
      <g>
       <use style="stroke:#000000;stroke-linecap:butt;stroke-width:0.5;" x="165.6" xlink:href="#m0012dd4eef" y="388.8"/>
      </g>
     </g>
     <g id="line2d_47">
      <g>
       <use style="stroke:#000000;stroke-linecap:butt;stroke-width:0.5;" x="165.6" xlink:href="#m476344969c" y="43.2"/>
      </g>
     </g>
     <g id="text_3">
      <!-- $- 6 M$ -->
      <defs>
       <path d="
M25 -2.20312
Q18.7969 -2.20312 14.6406 1.09375
Q10.5 4.39062 8.21875 9.64062
Q5.95312 14.8906 5.07812 20.6562
Q4.20312 26.4219 4.20312 32.3281
Q4.20312 40.2344 7.28125 48.1875
Q10.3594 56.1562 16.3281 61.375
Q22.3125 66.6094 30.5156 66.6094
Q33.9375 66.6094 36.8906 65.3125
Q39.8438 64.0156 41.5312 61.5
Q43.2188 58.9844 43.2188 55.4219
Q43.2188 53.375 41.8281 51.9844
Q40.4375 50.5938 38.375 50.5938
Q36.4219 50.5938 35 52
Q33.5938 53.4219 33.5938 55.4219
Q33.5938 57.375 35 58.7812
Q36.4219 60.2031 38.375 60.2031
L38.9219 60.2031
Q37.6406 62.0156 35.3281 62.8594
Q33.0156 63.7188 30.5156 63.7188
Q27.4844 63.7188 24.9219 62.3906
Q22.3594 61.0781 20.3125 58.8281
Q18.2656 56.5938 16.8906 53.875
Q15.5312 51.1719 14.7656 47.7031
Q14.0156 44.2344 13.8125 41.2031
Q13.625 38.1875 13.625 33.5938
Q15.375 37.7031 18.5938 40.3125
Q21.8281 42.9219 25.875 42.9219
Q30.3281 42.9219 33.9844 41.1094
Q37.6406 39.3125 40.2812 36.1094
Q42.9219 32.9062 44.3125 28.7969
Q45.7031 24.7031 45.7031 20.5156
Q45.7031 14.6562 43.0938 9.34375
Q40.4844 4.04688 35.7344 0.921875
Q31 -2.20312 25 -2.20312
M25 0.984375
Q28.8594 0.984375 31.2031 2.73438
Q33.5469 4.5 34.6406 7.39062
Q35.75 10.2969 36.0156 13.25
Q36.2812 16.2188 36.2812 20.5156
Q36.2812 26.1719 35.7344 30.1719
Q35.2031 34.1875 32.8125 37.2344
Q30.4219 40.2812 25.4844 40.2812
Q21.4375 40.2812 18.8281 37.5469
Q16.2188 34.8125 15.0156 30.6406
Q13.8125 26.4688 13.8125 22.6094
Q13.8125 21.2969 13.9219 20.6094
Q13.9219 20.4531 13.8906 20.3594
Q13.875 20.2656 13.8125 20.125
Q13.8125 15.8281 14.6875 11.4219
Q15.5781 7.03125 18.0625 4
Q20.5625 0.984375 25 0.984375" id="Cmr10-36"/>
      </defs>
      <g transform="translate(152.1 401.44)scale(0.12 -0.12)">
       <use transform="translate(0.0 3.6875)" xlink:href="#Cmsy10-a1"/>
       <use transform="translate(77.685546875 3.6875)" xlink:href="#Cmr10-36"/>
       <use transform="translate(127.685546875 3.6875)" xlink:href="#Cmmi10-4d"/>
      </g>
     </g>
    </g>
    <g id="xtick_6">
     <g id="line2d_48">
      <g>
       <use style="stroke:#000000;stroke-linecap:butt;stroke-width:0.5;" x="187.2" xlink:href="#m0012dd4eef" y="388.8"/>
      </g>
     </g>
     <g id="line2d_49">
      <g>
       <use style="stroke:#000000;stroke-linecap:butt;stroke-width:0.5;" x="187.2" xlink:href="#m476344969c" y="43.2"/>
      </g>
     </g>
    </g>
    <g id="xtick_7">
     <g id="line2d_50">
      <g>
       <use style="stroke:#000000;stroke-linecap:butt;stroke-width:0.5;" x="208.8" xlink:href="#m0012dd4eef" y="388.8"/>
      </g>
     </g>
     <g id="line2d_51">
      <g>
       <use style="stroke:#000000;stroke-linecap:butt;stroke-width:0.5;" x="208.8" xlink:href="#m476344969c" y="43.2"/>
      </g>
     </g>
     <g id="text_4">
      <!-- $- 4 M$ -->
      <defs>
       <path d="
M2.78125 16.5
L2.78125 20.0156
L33.6875 66.1094
Q34.0312 66.6094 34.7188 66.6094
L36.1875 66.6094
Q37.3125 66.6094 37.3125 65.4844
L37.3125 20.0156
L47.125 20.0156
L47.125 16.5
L37.3125 16.5
L37.3125 6.6875
Q37.3125 4.64062 40.2344 4.07812
Q43.1719 3.51562 47.0156 3.51562
L47.0156 0
L19.4844 0
L19.4844 3.51562
Q23.3438 3.51562 26.2656 4.07812
Q29.2031 4.64062 29.2031 6.6875
L29.2031 16.5
z

M6.10938 20.0156
L29.7812 20.0156
L29.7812 55.4219
z
" id="Cmr10-34"/>
      </defs>
      <g transform="translate(195.3 401.08)scale(0.12 -0.12)">
       <use transform="translate(0.0 0.6875)" xlink:href="#Cmsy10-a1"/>
       <use transform="translate(77.685546875 0.6875)" xlink:href="#Cmr10-34"/>
       <use transform="translate(127.685546875 0.6875)" xlink:href="#Cmmi10-4d"/>
      </g>
     </g>
    </g>
    <g id="xtick_8">
     <g id="line2d_52">
      <g>
       <use style="stroke:#000000;stroke-linecap:butt;stroke-width:0.5;" x="230.4" xlink:href="#m0012dd4eef" y="388.8"/>
      </g>
     </g>
     <g id="line2d_53">
      <g>
       <use style="stroke:#000000;stroke-linecap:butt;stroke-width:0.5;" x="230.4" xlink:href="#m476344969c" y="43.2"/>
      </g>
     </g>
    </g>
    <g id="xtick_9">
     <g id="line2d_54">
      <g>
       <use style="stroke:#000000;stroke-linecap:butt;stroke-width:0.5;" x="252.0" xlink:href="#m0012dd4eef" y="388.8"/>
      </g>
     </g>
     <g id="line2d_55">
      <g>
       <use style="stroke:#000000;stroke-linecap:butt;stroke-width:0.5;" x="252.0" xlink:href="#m476344969c" y="43.2"/>
      </g>
     </g>
     <g id="text_5">
      <!-- $- 2 M$ -->
      <defs>
       <path d="
M4.98438 0
L4.98438 2.6875
Q4.98438 2.9375 5.17188 3.21875
L20.7031 20.4062
Q24.2188 24.2188 26.4062 26.7969
Q28.6094 29.3906 30.75 32.7656
Q32.9062 36.1406 34.1562 39.625
Q35.4062 43.1094 35.4062 47.0156
Q35.4062 51.125 33.8906 54.8594
Q32.375 58.5938 29.375 60.8438
Q26.375 63.0938 22.125 63.0938
Q17.7812 63.0938 14.3125 60.4688
Q10.8438 57.8594 9.42188 53.7188
Q9.8125 53.8125 10.5 53.8125
Q12.75 53.8125 14.3281 52.2969
Q15.9219 50.7812 15.9219 48.3906
Q15.9219 46.0938 14.3281 44.5
Q12.75 42.9219 10.5 42.9219
Q8.15625 42.9219 6.5625 44.5469
Q4.98438 46.1875 4.98438 48.3906
Q4.98438 52.1562 6.39062 55.4375
Q7.8125 58.7344 10.4688 61.2969
Q13.1406 63.875 16.4844 65.2344
Q19.8281 66.6094 23.5781 66.6094
Q29.2969 66.6094 34.2188 64.1875
Q39.1562 61.7656 42.0312 57.3438
Q44.9219 52.9375 44.9219 47.0156
Q44.9219 42.6719 43.0156 38.7656
Q41.1094 34.8594 38.125 31.6562
Q35.1562 28.4688 30.5156 24.4062
Q25.875 20.3594 24.4219 19
L13.0938 8.10938
L22.7031 8.10938
Q29.7812 8.10938 34.5469 8.21875
Q39.3125 8.34375 39.5938 8.59375
Q40.7656 9.85938 42 17.8281
L44.9219 17.8281
L42.0938 0
z
" id="Cmr10-32"/>
      </defs>
      <g transform="translate(238.5 401.08)scale(0.12 -0.12)">
       <use transform="translate(0.0 0.6875)" xlink:href="#Cmsy10-a1"/>
       <use transform="translate(77.685546875 0.6875)" xlink:href="#Cmr10-32"/>
       <use transform="translate(127.685546875 0.6875)" xlink:href="#Cmmi10-4d"/>
      </g>
     </g>
    </g>
    <g id="xtick_10">
     <g id="line2d_56">
      <g>
       <use style="stroke:#000000;stroke-linecap:butt;stroke-width:0.5;" x="273.6" xlink:href="#m0012dd4eef" y="388.8"/>
      </g>
     </g>
     <g id="line2d_57">
      <g>
       <use style="stroke:#000000;stroke-linecap:butt;stroke-width:0.5;" x="273.6" xlink:href="#m476344969c" y="43.2"/>
      </g>
     </g>
    </g>
    <g id="xtick_11">
     <g id="line2d_58">
      <g>
       <use style="stroke:#000000;stroke-linecap:butt;stroke-width:0.5;" x="295.2" xlink:href="#m0012dd4eef" y="388.8"/>
      </g>
     </g>
     <g id="line2d_59">
      <g>
       <use style="stroke:#000000;stroke-linecap:butt;stroke-width:0.5;" x="295.2" xlink:href="#m476344969c" y="43.2"/>
      </g>
     </g>
     <g id="text_6">
      <!-- $0$ -->
      <g transform="translate(292.2 401.2)scale(0.12 -0.12)">
       <use transform="translate(0.0 3.390625)" xlink:href="#Cmr10-30"/>
      </g>
     </g>
    </g>
    <g id="xtick_12">
     <g id="line2d_60">
      <g>
       <use style="stroke:#000000;stroke-linecap:butt;stroke-width:0.5;" x="316.8" xlink:href="#m0012dd4eef" y="388.8"/>
      </g>
     </g>
     <g id="line2d_61">
      <g>
       <use style="stroke:#000000;stroke-linecap:butt;stroke-width:0.5;" x="316.8" xlink:href="#m476344969c" y="43.2"/>
      </g>
     </g>
    </g>
    <g id="xtick_13">
     <g id="line2d_62">
      <g>
       <use style="stroke:#000000;stroke-linecap:butt;stroke-width:0.5;" x="338.4" xlink:href="#m0012dd4eef" y="388.8"/>
      </g>
     </g>
     <g id="line2d_63">
      <g>
       <use style="stroke:#000000;stroke-linecap:butt;stroke-width:0.5;" x="338.4" xlink:href="#m476344969c" y="43.2"/>
      </g>
     </g>
     <g id="text_7">
      <!-- $2 M$ -->
      <g transform="translate(329.52 401.08)scale(0.12 -0.12)">
       <use transform="translate(0.0 0.6875)" xlink:href="#Cmr10-32"/>
       <use transform="translate(50.0 0.6875)" xlink:href="#Cmmi10-4d"/>
      </g>
     </g>
    </g>
    <g id="xtick_14">
     <g id="line2d_64">
      <g>
       <use style="stroke:#000000;stroke-linecap:butt;stroke-width:0.5;" x="360.0" xlink:href="#m0012dd4eef" y="388.8"/>
      </g>
     </g>
     <g id="line2d_65">
      <g>
       <use style="stroke:#000000;stroke-linecap:butt;stroke-width:0.5;" x="360.0" xlink:href="#m476344969c" y="43.2"/>
      </g>
     </g>
    </g>
    <g id="xtick_15">
     <g id="line2d_66">
      <g>
       <use style="stroke:#000000;stroke-linecap:butt;stroke-width:0.5;" x="381.6" xlink:href="#m0012dd4eef" y="388.8"/>
      </g>
     </g>
     <g id="line2d_67">
      <g>
       <use style="stroke:#000000;stroke-linecap:butt;stroke-width:0.5;" x="381.6" xlink:href="#m476344969c" y="43.2"/>
      </g>
     </g>
     <g id="text_8">
      <!-- $4 M$ -->
      <g transform="translate(372.72 401.08)scale(0.12 -0.12)">
       <use transform="translate(0.0 0.6875)" xlink:href="#Cmr10-34"/>
       <use transform="translate(50.0 0.6875)" xlink:href="#Cmmi10-4d"/>
      </g>
     </g>
    </g>
    <g id="xtick_16">
     <g id="line2d_68">
      <g>
       <use style="stroke:#000000;stroke-linecap:butt;stroke-width:0.5;" x="403.2" xlink:href="#m0012dd4eef" y="388.8"/>
      </g>
     </g>
     <g id="line2d_69">
      <g>
       <use style="stroke:#000000;stroke-linecap:butt;stroke-width:0.5;" x="403.2" xlink:href="#m476344969c" y="43.2"/>
      </g>
     </g>
    </g>
    <g id="xtick_17">
     <g id="line2d_70">
      <g>
       <use style="stroke:#000000;stroke-linecap:butt;stroke-width:0.5;" x="424.8" xlink:href="#m0012dd4eef" y="388.8"/>
      </g>
     </g>
     <g id="line2d_71">
      <g>
       <use style="stroke:#000000;stroke-linecap:butt;stroke-width:0.5;" x="424.8" xlink:href="#m476344969c" y="43.2"/>
      </g>
     </g>
     <g id="text_9">
      <!-- $6 M$ -->
      <g transform="translate(415.92 401.44)scale(0.12 -0.12)">
       <use transform="translate(0.0 3.6875)" xlink:href="#Cmr10-36"/>
       <use transform="translate(50.0 3.6875)" xlink:href="#Cmmi10-4d"/>
      </g>
     </g>
    </g>
    <g id="xtick_18">
     <g id="line2d_72">
      <g>
       <use style="stroke:#000000;stroke-linecap:butt;stroke-width:0.5;" x="446.4" xlink:href="#m0012dd4eef" y="388.8"/>
      </g>
     </g>
     <g id="line2d_73">
      <g>
       <use style="stroke:#000000;stroke-linecap:butt;stroke-width:0.5;" x="446.4" xlink:href="#m476344969c" y="43.2"/>
      </g>
     </g>
    </g>
    <g id="xtick_19">
     <g id="line2d_74">
      <g>
       <use style="stroke:#000000;stroke-linecap:butt;stroke-width:0.5;" x="468.0" xlink:href="#m0012dd4eef" y="388.8"/>
      </g>
     </g>
     <g id="line2d_75">
      <g>
       <use style="stroke:#000000;stroke-linecap:butt;stroke-width:0.5;" x="468.0" xlink:href="#m476344969c" y="43.2"/>
      </g>
     </g>
     <g id="text_10">
      <!-- $8 M$ -->
      <g transform="translate(459.12 401.44)scale(0.12 -0.12)">
       <use transform="translate(0.0 3.6875)" xlink:href="#Cmr10-38"/>
       <use transform="translate(50.0 3.6875)" xlink:href="#Cmmi10-4d"/>
      </g>
     </g>
    </g>
    <g id="xtick_20">
     <g id="line2d_76">
      <g>
       <use style="stroke:#000000;stroke-linecap:butt;stroke-width:0.5;" x="489.6" xlink:href="#m0012dd4eef" y="388.8"/>
      </g>
     </g>
     <g id="line2d_77">
      <g>
       <use style="stroke:#000000;stroke-linecap:butt;stroke-width:0.5;" x="489.6" xlink:href="#m476344969c" y="43.2"/>
      </g>
     </g>
    </g>
    <g id="xtick_21">
     <g id="line2d_78">
      <g>
       <use style="stroke:#000000;stroke-linecap:butt;stroke-width:0.5;" x="511.2" xlink:href="#m0012dd4eef" y="388.8"/>
      </g>
     </g>
     <g id="line2d_79">
      <g>
       <use style="stroke:#000000;stroke-linecap:butt;stroke-width:0.5;" x="511.2" xlink:href="#m476344969c" y="43.2"/>
      </g>
     </g>
     <g id="text_11">
      <!-- $10 M$ -->
      <g transform="translate(499.32 401.44)scale(0.12 -0.12)">
       <use transform="translate(0.0 3.6875)" xlink:href="#Cmr10-31"/>
       <use transform="translate(50.0 3.6875)" xlink:href="#Cmr10-30"/>
       <use transform="translate(100.0 3.6875)" xlink:href="#Cmmi10-4d"/>
      </g>
     </g>
    </g>
    <g id="text_12">
     <!-- $r\cos(\phi)$ -->
     <defs>
      <path d="
M31 -24.8125
Q25.4375 -20.4062 21.4062 -14.7188
Q17.3906 -9.03125 14.8125 -2.57812
Q12.25 3.85938 10.9844 10.8906
Q9.71875 17.9219 9.71875 25
Q9.71875 32.1719 10.9844 39.2031
Q12.25 46.2344 14.8594 52.7344
Q17.4844 59.2344 21.5312 64.8906
Q25.5938 70.5625 31 74.8125
Q31 75 31.5 75
L32.4219 75
Q32.7188 75 32.9531 74.7344
Q33.2031 74.4688 33.2031 74.125
Q33.2031 73.6875 33.0156 73.4844
Q28.125 68.7031 24.875 63.2344
Q21.625 57.7656 19.6406 51.5781
Q17.6719 45.4062 16.7969 38.7812
Q15.9219 32.1719 15.9219 25
Q15.9219 -6.78125 32.9062 -23.2969
Q33.2031 -23.5781 33.2031 -24.125
Q33.2031 -24.3594 32.9375 -24.6719
Q32.6719 -25 32.4219 -25
L31.5 -25
Q31 -25 31 -24.8125" id="Cmr10-28"/>
      <path d="
M6.5 -25
Q5.60938 -25 5.60938 -24.125
Q5.60938 -23.6875 5.8125 -23.4844
Q22.9062 -6.78125 22.9062 25
Q22.9062 56.7812 6 73.2969
Q5.60938 73.5312 5.60938 74.125
Q5.60938 74.4688 5.875 74.7344
Q6.15625 75 6.5 75
L7.42188 75
Q7.71875 75 7.90625 74.8125
Q15.0938 69.1406 19.875 61.0312
Q24.6562 52.9375 26.875 43.75
Q29.1094 34.5781 29.1094 25
Q29.1094 17.9219 27.9062 11.0625
Q26.7031 4.20312 24.0938 -2.45312
Q21.4844 -9.125 17.4844 -14.7656
Q13.4844 -20.4062 7.90625 -24.8125
Q7.71875 -25 7.42188 -25
z
" id="Cmr10-29"/>
      <path d="
M25 -1.125
Q19 -1.125 13.8594 1.92188
Q8.73438 4.98438 5.75 10.1094
Q2.78125 15.2344 2.78125 21.2969
Q2.78125 25.875 4.42188 30.125
Q6.0625 34.375 9.10938 37.7188
Q12.1562 41.0625 16.2031 42.9375
Q20.2656 44.8281 25 44.8281
Q31.1562 44.8281 36.2031 41.5781
Q41.2656 38.3281 44.1875 32.875
Q47.125 27.4375 47.125 21.2969
Q47.125 15.2812 44.1406 10.125
Q41.1562 4.98438 36.0469 1.92188
Q30.9531 -1.125 25 -1.125
M25 1.8125
Q33.0156 1.8125 35.6875 7.60938
Q38.375 13.4219 38.375 22.4062
Q38.375 27.4375 37.8438 30.7344
Q37.3125 34.0312 35.5 36.7188
Q34.375 38.375 32.6406 39.625
Q30.9062 40.875 28.9688 41.5312
Q27.0469 42.1875 25 42.1875
Q21.875 42.1875 19.0625 40.7656
Q16.2656 39.3594 14.4062 36.7188
Q12.5469 33.8906 12.0312 30.4844
Q11.5312 27.0938 11.5312 22.4062
Q11.5312 16.7969 12.5 12.3281
Q13.4844 7.85938 16.4375 4.82812
Q19.3906 1.8125 25 1.8125" id="Cmr10-6f"/>
      <path d="
M7.71875 1.70312
Q7.71875 2.29688 7.8125 2.59375
L15.2812 32.4219
Q16.0156 35.2031 16.0156 37.3125
Q16.0156 41.6094 13.0938 41.6094
Q9.96875 41.6094 8.45312 37.8594
Q6.9375 34.125 5.51562 28.4219
Q5.51562 28.125 5.21875 27.9531
Q4.9375 27.7812 4.6875 27.7812
L3.51562 27.7812
Q3.17188 27.7812 2.92188 28.1406
Q2.6875 28.5156 2.6875 28.8125
Q3.76562 33.1562 4.76562 36.1719
Q5.76562 39.2031 7.89062 41.6875
Q10.0156 44.1875 13.1875 44.1875
Q16.6562 44.1875 19.2656 42.1875
Q21.875 40.1875 22.5156 36.9219
Q25.0469 40.2344 28.2969 42.2031
Q31.5469 44.1875 35.4062 44.1875
Q38.5781 44.1875 40.9844 42.3281
Q43.4062 40.4844 43.4062 37.3125
Q43.4062 34.7656 41.8125 32.875
Q40.2344 31 37.5938 31
Q35.9844 31 34.8906 32
Q33.7969 33.0156 33.7969 34.625
Q33.7969 36.8125 35.4062 38.5469
Q37.0156 40.2812 39.1094 40.2812
Q37.5 41.6094 35.2031 41.6094
Q30.9062 41.6094 27.7344 38.5469
Q24.5625 35.5 22.0156 30.8125
L14.8906 2.20312
Q14.5469 0.828125 13.3438 -0.140625
Q12.1562 -1.125 10.6875 -1.125
Q9.46875 -1.125 8.59375 -0.34375
Q7.71875 0.4375 7.71875 1.70312" id="Cmmi10-72"/>
      <path d="
M24.9062 -1.125
Q18.8438 -1.125 13.9062 2.01562
Q8.98438 5.17188 6.15625 10.4219
Q3.32812 15.6719 3.32812 21.5781
Q3.32812 27.4844 6.125 32.9062
Q8.9375 38.3281 13.8906 41.5781
Q18.8438 44.8281 24.9062 44.8281
Q30.7656 44.8281 35.5625 42.5312
Q40.375 40.2344 40.375 35.0156
Q40.375 33.0625 38.9844 31.6094
Q37.5938 30.1719 35.5938 30.1719
Q33.5938 30.1719 32.2031 31.6094
Q30.8125 33.0625 30.8125 35.0156
Q30.8125 36.7656 31.9375 38.0625
Q33.0625 39.3594 34.7188 39.7031
Q31.25 41.8906 25 41.8906
Q20.2188 41.8906 17.2812 38.7188
Q14.3594 35.5469 13.1875 30.8594
Q12.0156 26.1719 12.0156 21.5781
Q12.0156 16.75 13.4531 12.2344
Q14.8906 7.71875 18.0938 4.76562
Q21.2969 1.8125 26.125 1.8125
Q30.8594 1.8125 34.1719 4.71875
Q37.5 7.625 38.7188 12.3125
Q38.7188 12.8906 39.5 12.8906
L40.7188 12.8906
Q41.0156 12.8906 41.25 12.625
Q41.5 12.3594 41.5 12.0156
L41.5 11.7188
Q39.9844 5.8125 35.4844 2.34375
Q31 -1.125 24.9062 -1.125" id="Cmr10-63"/>
      <path d="
M3.32812 -0.296875
L3.32812 16.0156
Q3.32812 16.7969 4.20312 16.7969
L5.42188 16.7969
Q6 16.7969 6.20312 16.0156
Q8.98438 1.51562 19.6719 1.51562
Q24.4219 1.51562 27.6094 3.65625
Q30.8125 5.8125 30.8125 10.2969
Q30.8125 13.5312 28.3125 15.7969
Q25.8281 18.0625 22.4062 18.8906
L15.7188 20.2188
Q12.3594 20.9531 9.59375 22.4531
Q6.84375 23.9688 5.07812 26.4844
Q3.32812 29 3.32812 32.3281
Q3.32812 36.7188 5.64062 39.5156
Q7.95312 42.3281 11.6562 43.5781
Q15.375 44.8281 19.6719 44.8281
Q24.8125 44.8281 28.6094 42.0938
L31.5 44.5781
Q31.5 44.8281 31.9844 44.8281
L32.7188 44.8281
Q33.0156 44.8281 33.25 44.5469
Q33.5 44.2812 33.5 44
L33.5 30.9062
Q33.5 29.9844 32.7188 29.9844
L31.5 29.9844
Q30.6094 29.9844 30.6094 30.9062
Q30.6094 36.1406 27.7031 39.3125
Q24.8125 42.4844 19.5781 42.4844
Q15.0938 42.4844 11.7969 40.8125
Q8.5 39.1562 8.5 35.1094
Q8.5 32.3281 10.8594 30.5469
Q13.2344 28.7656 16.4062 27.9844
L23.1875 26.7031
Q26.6094 25.9219 29.5625 24.0625
Q32.5156 22.2188 34.25 19.375
Q35.9844 16.5469 35.9844 12.9844
Q35.9844 9.375 34.7344 6.70312
Q33.5 4.04688 31.2656 2.28125
Q29.0469 0.53125 26.0156 -0.296875
Q23 -1.125 19.6719 -1.125
Q13.4219 -1.125 8.98438 3.07812
L5.32812 -0.875
Q5.32812 -1.125 4.78125 -1.125
L4.20312 -1.125
Q3.32812 -1.125 3.32812 -0.296875" id="Cmr10-73"/>
      <path d="
M19.3906 -19.4844
L23.875 -1.42188
Q18.7969 -1.42188 14.4062 0.953125
Q10.0156 3.32812 7.34375 7.5625
Q4.6875 11.8125 4.6875 16.7969
Q4.6875 22.2188 7.375 27.1406
Q10.0625 32.0781 14.7188 36.1094
Q19.3906 40.1406 24.75 42.3125
Q30.125 44.4844 35.4062 44.4844
L41.4062 68.7969
Q41.6094 69.3906 42.1875 69.3906
L43.4062 69.3906
Q43.7969 69.3906 44.0312 69.0469
Q44.2812 68.7031 44.2812 68.4062
L38.2812 44.4844
Q42.0469 44.4844 45.5625 43.1094
Q49.0781 41.75 51.7812 39.2812
Q54.5 36.8125 56 33.4688
Q57.5156 30.125 57.5156 26.3125
Q57.5156 20.9062 54.8281 15.9688
Q52.1562 11.0312 47.6094 7.07812
Q43.0625 3.125 37.4688 0.84375
Q31.8906 -1.42188 26.8125 -1.42188
L22.2188 -19.9219
Q22.0156 -20.5156 21.3906 -20.5156
L20.2188 -20.5156
Q19.8281 -20.5156 19.6094 -20.1406
Q19.3906 -19.7812 19.3906 -19.4844
M24.5156 1.21875
L34.7188 41.8906
Q32.1719 41.8906 29.3906 40.8594
Q26.6094 39.8438 24.1406 38.2812
Q21.6875 36.7188 19.6719 34.7188
Q17.2344 32.2812 15.375 28.9531
Q13.5312 25.6406 12.5781 21.9531
Q11.625 18.2656 11.625 14.7031
Q11.625 10.9375 13.2344 7.85938
Q14.8438 4.78125 17.7656 3
Q20.7031 1.21875 24.5156 1.21875
M27.4844 1.21875
Q31.25 1.21875 35.5 3.35938
Q39.75 5.51562 42.4844 8.40625
Q46.2344 12.1094 48.4062 17.5
Q50.5938 22.9062 50.5938 28.4219
Q50.5938 32.125 48.9688 35.2188
Q47.3594 38.3281 44.4219 40.1094
Q41.5 41.8906 37.7031 41.8906
z
" id="Cmmi10-c1"/>
     </defs>
     <g transform="translate(276.18 418.44)scale(0.12 -0.12)">
      <use transform="translate(0.0 25.0)" xlink:href="#Cmmi10-72"/>
      <use transform="translate(45.1171875 25.0)" xlink:href="#Cmr10-63"/>
      <use transform="translate(89.501953125 25.0)" xlink:href="#Cmr10-6f"/>
      <use transform="translate(139.501953125 25.0)" xlink:href="#Cmr10-73"/>
      <use transform="translate(178.90625 25.0)" xlink:href="#Cmr10-28"/>
      <use transform="translate(217.724609375 25.0)" xlink:href="#Cmmi10-c1"/>
      <use transform="translate(277.24609375 25.0)" xlink:href="#Cmr10-29"/>
     </g>
    </g>
   </g>
   <g id="matplotlib.axis_2">
    <g id="ytick_1">
     <g id="line2d_80">
      <defs>
       <path d="
M0 0
L4 0" id="me8a85f7bf6" style="stroke:#000000;stroke-linecap:butt;stroke-width:0.5;"/>
      </defs>
      <g>
       <use style="stroke:#000000;stroke-linecap:butt;stroke-width:0.5;" x="72.0" xlink:href="#me8a85f7bf6" y="388.8"/>
      </g>
     </g>
     <g id="line2d_81">
      <defs>
       <path d="
M0 0
L-4 0" id="m1a32005dea" style="stroke:#000000;stroke-linecap:butt;stroke-width:0.5;"/>
      </defs>
      <g>
       <use style="stroke:#000000;stroke-linecap:butt;stroke-width:0.5;" x="518.4" xlink:href="#m1a32005dea" y="388.8"/>
      </g>
     </g>
     <g id="text_13">
      <!-- $- 8 M$ -->
      <g transform="translate(41.0 393.12)scale(0.12 -0.12)">
       <use transform="translate(0.0 3.6875)" xlink:href="#Cmsy10-a1"/>
       <use transform="translate(77.685546875 3.6875)" xlink:href="#Cmr10-38"/>
       <use transform="translate(127.685546875 3.6875)" xlink:href="#Cmmi10-4d"/>
      </g>
     </g>
    </g>
    <g id="ytick_2">
     <g id="line2d_82">
      <g>
       <use style="stroke:#000000;stroke-linecap:butt;stroke-width:0.5;" x="72.0" xlink:href="#me8a85f7bf6" y="367.2"/>
      </g>
     </g>
     <g id="line2d_83">
      <g>
       <use style="stroke:#000000;stroke-linecap:butt;stroke-width:0.5;" x="518.4" xlink:href="#m1a32005dea" y="367.2"/>
      </g>
     </g>
    </g>
    <g id="ytick_3">
     <g id="line2d_84">
      <g>
       <use style="stroke:#000000;stroke-linecap:butt;stroke-width:0.5;" x="72.0" xlink:href="#me8a85f7bf6" y="345.6"/>
      </g>
     </g>
     <g id="line2d_85">
      <g>
       <use style="stroke:#000000;stroke-linecap:butt;stroke-width:0.5;" x="518.4" xlink:href="#m1a32005dea" y="345.6"/>
      </g>
     </g>
     <g id="text_14">
      <!-- $- 6 M$ -->
      <g transform="translate(41.0 349.92)scale(0.12 -0.12)">
       <use transform="translate(0.0 3.6875)" xlink:href="#Cmsy10-a1"/>
       <use transform="translate(77.685546875 3.6875)" xlink:href="#Cmr10-36"/>
       <use transform="translate(127.685546875 3.6875)" xlink:href="#Cmmi10-4d"/>
      </g>
     </g>
    </g>
    <g id="ytick_4">
     <g id="line2d_86">
      <g>
       <use style="stroke:#000000;stroke-linecap:butt;stroke-width:0.5;" x="72.0" xlink:href="#me8a85f7bf6" y="324.0"/>
      </g>
     </g>
     <g id="line2d_87">
      <g>
       <use style="stroke:#000000;stroke-linecap:butt;stroke-width:0.5;" x="518.4" xlink:href="#m1a32005dea" y="324.0"/>
      </g>
     </g>
    </g>
    <g id="ytick_5">
     <g id="line2d_88">
      <g>
       <use style="stroke:#000000;stroke-linecap:butt;stroke-width:0.5;" x="72.0" xlink:href="#me8a85f7bf6" y="302.4"/>
      </g>
     </g>
     <g id="line2d_89">
      <g>
       <use style="stroke:#000000;stroke-linecap:butt;stroke-width:0.5;" x="518.4" xlink:href="#m1a32005dea" y="302.4"/>
      </g>
     </g>
     <g id="text_15">
      <!-- $- 4 M$ -->
      <g transform="translate(41.0 306.54)scale(0.12 -0.12)">
       <use transform="translate(0.0 0.6875)" xlink:href="#Cmsy10-a1"/>
       <use transform="translate(77.685546875 0.6875)" xlink:href="#Cmr10-34"/>
       <use transform="translate(127.685546875 0.6875)" xlink:href="#Cmmi10-4d"/>
      </g>
     </g>
    </g>
    <g id="ytick_6">
     <g id="line2d_90">
      <g>
       <use style="stroke:#000000;stroke-linecap:butt;stroke-width:0.5;" x="72.0" xlink:href="#me8a85f7bf6" y="280.8"/>
      </g>
     </g>
     <g id="line2d_91">
      <g>
       <use style="stroke:#000000;stroke-linecap:butt;stroke-width:0.5;" x="518.4" xlink:href="#m1a32005dea" y="280.8"/>
      </g>
     </g>
    </g>
    <g id="ytick_7">
     <g id="line2d_92">
      <g>
       <use style="stroke:#000000;stroke-linecap:butt;stroke-width:0.5;" x="72.0" xlink:href="#me8a85f7bf6" y="259.2"/>
      </g>
     </g>
     <g id="line2d_93">
      <g>
       <use style="stroke:#000000;stroke-linecap:butt;stroke-width:0.5;" x="518.4" xlink:href="#m1a32005dea" y="259.2"/>
      </g>
     </g>
     <g id="text_16">
      <!-- $- 2 M$ -->
      <g transform="translate(41.0 263.34)scale(0.12 -0.12)">
       <use transform="translate(0.0 0.6875)" xlink:href="#Cmsy10-a1"/>
       <use transform="translate(77.685546875 0.6875)" xlink:href="#Cmr10-32"/>
       <use transform="translate(127.685546875 0.6875)" xlink:href="#Cmmi10-4d"/>
      </g>
     </g>
    </g>
    <g id="ytick_8">
     <g id="line2d_94">
      <g>
       <use style="stroke:#000000;stroke-linecap:butt;stroke-width:0.5;" x="72.0" xlink:href="#me8a85f7bf6" y="237.6"/>
      </g>
     </g>
     <g id="line2d_95">
      <g>
       <use style="stroke:#000000;stroke-linecap:butt;stroke-width:0.5;" x="518.4" xlink:href="#m1a32005dea" y="237.6"/>
      </g>
     </g>
    </g>
    <g id="ytick_9">
     <g id="line2d_96">
      <g>
       <use style="stroke:#000000;stroke-linecap:butt;stroke-width:0.5;" x="72.0" xlink:href="#me8a85f7bf6" y="216.0"/>
      </g>
     </g>
     <g id="line2d_97">
      <g>
       <use style="stroke:#000000;stroke-linecap:butt;stroke-width:0.5;" x="518.4" xlink:href="#m1a32005dea" y="216.0"/>
      </g>
     </g>
     <g id="text_17">
      <!-- $0$ -->
      <g transform="translate(62.0 220.2)scale(0.12 -0.12)">
       <use transform="translate(0.0 3.390625)" xlink:href="#Cmr10-30"/>
      </g>
     </g>
    </g>
    <g id="ytick_10">
     <g id="line2d_98">
      <g>
       <use style="stroke:#000000;stroke-linecap:butt;stroke-width:0.5;" x="72.0" xlink:href="#me8a85f7bf6" y="194.4"/>
      </g>
     </g>
     <g id="line2d_99">
      <g>
       <use style="stroke:#000000;stroke-linecap:butt;stroke-width:0.5;" x="518.4" xlink:href="#m1a32005dea" y="194.4"/>
      </g>
     </g>
    </g>
    <g id="ytick_11">
     <g id="line2d_100">
      <g>
       <use style="stroke:#000000;stroke-linecap:butt;stroke-width:0.5;" x="72.0" xlink:href="#me8a85f7bf6" y="172.8"/>
      </g>
     </g>
     <g id="line2d_101">
      <g>
       <use style="stroke:#000000;stroke-linecap:butt;stroke-width:0.5;" x="518.4" xlink:href="#m1a32005dea" y="172.8"/>
      </g>
     </g>
     <g id="text_18">
      <!-- $2 M$ -->
      <g transform="translate(50.24 176.94)scale(0.12 -0.12)">
       <use transform="translate(0.0 0.6875)" xlink:href="#Cmr10-32"/>
       <use transform="translate(50.0 0.6875)" xlink:href="#Cmmi10-4d"/>
      </g>
     </g>
    </g>
    <g id="ytick_12">
     <g id="line2d_102">
      <g>
       <use style="stroke:#000000;stroke-linecap:butt;stroke-width:0.5;" x="72.0" xlink:href="#me8a85f7bf6" y="151.2"/>
      </g>
     </g>
     <g id="line2d_103">
      <g>
       <use style="stroke:#000000;stroke-linecap:butt;stroke-width:0.5;" x="518.4" xlink:href="#m1a32005dea" y="151.2"/>
      </g>
     </g>
    </g>
    <g id="ytick_13">
     <g id="line2d_104">
      <g>
       <use style="stroke:#000000;stroke-linecap:butt;stroke-width:0.5;" x="72.0" xlink:href="#me8a85f7bf6" y="129.6"/>
      </g>
     </g>
     <g id="line2d_105">
      <g>
       <use style="stroke:#000000;stroke-linecap:butt;stroke-width:0.5;" x="518.4" xlink:href="#m1a32005dea" y="129.6"/>
      </g>
     </g>
     <g id="text_19">
      <!-- $4 M$ -->
      <g transform="translate(50.24 133.74)scale(0.12 -0.12)">
       <use transform="translate(0.0 0.6875)" xlink:href="#Cmr10-34"/>
       <use transform="translate(50.0 0.6875)" xlink:href="#Cmmi10-4d"/>
      </g>
     </g>
    </g>
    <g id="ytick_14">
     <g id="line2d_106">
      <g>
       <use style="stroke:#000000;stroke-linecap:butt;stroke-width:0.5;" x="72.0" xlink:href="#me8a85f7bf6" y="108.0"/>
      </g>
     </g>
     <g id="line2d_107">
      <g>
       <use style="stroke:#000000;stroke-linecap:butt;stroke-width:0.5;" x="518.4" xlink:href="#m1a32005dea" y="108.0"/>
      </g>
     </g>
    </g>
    <g id="ytick_15">
     <g id="line2d_108">
      <g>
       <use style="stroke:#000000;stroke-linecap:butt;stroke-width:0.5;" x="72.0" xlink:href="#me8a85f7bf6" y="86.4"/>
      </g>
     </g>
     <g id="line2d_109">
      <g>
       <use style="stroke:#000000;stroke-linecap:butt;stroke-width:0.5;" x="518.4" xlink:href="#m1a32005dea" y="86.4"/>
      </g>
     </g>
     <g id="text_20">
      <!-- $6 M$ -->
      <g transform="translate(50.24 90.72)scale(0.12 -0.12)">
       <use transform="translate(0.0 3.6875)" xlink:href="#Cmr10-36"/>
       <use transform="translate(50.0 3.6875)" xlink:href="#Cmmi10-4d"/>
      </g>
     </g>
    </g>
    <g id="ytick_16">
     <g id="line2d_110">
      <g>
       <use style="stroke:#000000;stroke-linecap:butt;stroke-width:0.5;" x="72.0" xlink:href="#me8a85f7bf6" y="64.8"/>
      </g>
     </g>
     <g id="line2d_111">
      <g>
       <use style="stroke:#000000;stroke-linecap:butt;stroke-width:0.5;" x="518.4" xlink:href="#m1a32005dea" y="64.8"/>
      </g>
     </g>
    </g>
    <g id="ytick_17">
     <g id="line2d_112">
      <g>
       <use style="stroke:#000000;stroke-linecap:butt;stroke-width:0.5;" x="72.0" xlink:href="#me8a85f7bf6" y="43.2"/>
      </g>
     </g>
     <g id="line2d_113">
      <g>
       <use style="stroke:#000000;stroke-linecap:butt;stroke-width:0.5;" x="518.4" xlink:href="#m1a32005dea" y="43.2"/>
      </g>
     </g>
     <g id="text_21">
      <!-- $8 M$ -->
      <g transform="translate(50.24 47.52)scale(0.12 -0.12)">
       <use transform="translate(0.0 3.6875)" xlink:href="#Cmr10-38"/>
       <use transform="translate(50.0 3.6875)" xlink:href="#Cmmi10-4d"/>
      </g>
     </g>
    </g>
    <g id="text_22">
     <!-- $r\sin(\phi)$ -->
     <defs>
      <path d="
M2.98438 0
L2.98438 3.51562
Q6.39062 3.51562 8.59375 4.04688
Q10.7969 4.59375 10.7969 6.6875
L10.7969 33.9844
Q10.7969 36.6719 9.98438 37.8594
Q9.1875 39.0625 7.67188 39.3281
Q6.15625 39.5938 2.98438 39.5938
L2.98438 43.1094
L17.4844 44.1875
L17.4844 34.4219
Q19.4844 38.7188 23.4062 41.4531
Q27.3438 44.1875 31.9844 44.1875
Q38.9219 44.1875 42.4062 40.8594
Q45.9062 37.5469 45.9062 30.7188
L45.9062 6.6875
Q45.9062 4.59375 48.0938 4.04688
Q50.2969 3.51562 53.7188 3.51562
L53.7188 0
L30.8125 0
L30.8125 3.51562
Q34.2344 3.51562 36.4219 4.04688
Q38.625 4.59375 38.625 6.6875
L38.625 30.4219
Q38.625 35.2969 37.2031 38.4531
Q35.7969 41.6094 31.3906 41.6094
Q25.5938 41.6094 21.8438 36.9688
Q18.1094 32.3281 18.1094 26.4219
L18.1094 6.6875
Q18.1094 4.59375 20.3125 4.04688
Q22.5156 3.51562 25.875 3.51562
L25.875 0
z
" id="Cmr10-6e"/>
      <path d="
M3.07812 0
L3.07812 3.51562
Q6.5 3.51562 8.6875 4.04688
Q10.8906 4.59375 10.8906 6.6875
L10.8906 33.9844
Q10.8906 37.8438 9.39062 38.7188
Q7.90625 39.5938 3.51562 39.5938
L3.51562 43.1094
L17.9219 44.1875
L17.9219 6.6875
Q17.9219 4.59375 19.8281 4.04688
Q21.7344 3.51562 24.9062 3.51562
L24.9062 0
z

M7.32812 61.375
Q7.32812 63.5781 8.98438 65.2344
Q10.6406 66.8906 12.7969 66.8906
Q14.2031 66.8906 15.5156 66.1562
Q16.8438 65.4375 17.5781 64.1094
Q18.3125 62.7969 18.3125 61.375
Q18.3125 59.2344 16.6406 57.5625
Q14.9844 55.9062 12.7969 55.9062
Q10.6406 55.9062 8.98438 57.5625
Q7.32812 59.2344 7.32812 61.375" id="Cmr10-69"/>
     </defs>
     <g transform="translate(36.0 234.3)rotate(-90.0)scale(0.12 -0.12)">
      <use transform="translate(0.0 25.0)" xlink:href="#Cmmi10-72"/>
      <use transform="translate(45.1171875 25.0)" xlink:href="#Cmr10-73"/>
      <use transform="translate(84.521484375 25.0)" xlink:href="#Cmr10-69"/>
      <use transform="translate(112.20703125 25.0)" xlink:href="#Cmr10-6e"/>
      <use transform="translate(167.724609375 25.0)" xlink:href="#Cmr10-28"/>
      <use transform="translate(206.54296875 25.0)" xlink:href="#Cmmi10-c1"/>
      <use transform="translate(266.064453125 25.0)" xlink:href="#Cmr10-29"/>
     </g>
    </g>
   </g>
   <g id="patch_3">
    <path d="
M72 43.2
L518.4 43.2" style="fill:none;stroke:#000000;"/>
   </g>
   <g id="patch_4">
    <path d="
M518.4 388.8
L518.4 43.2" style="fill:none;stroke:#000000;"/>
   </g>
   <g id="patch_5">
    <path d="
M72 388.8
L518.4 388.8" style="fill:none;stroke:#000000;"/>
   </g>
   <g id="patch_6">
    <path d="
M72 388.8
L72 43.2" style="fill:none;stroke:#000000;"/>
   </g>
   <g id="legend_1">
    <g id="patch_7">
     <path d="
M79.2 118.129
L285.606 118.129
L285.606 50.4
L79.2 50.4
L79.2 118.129
z
" style="fill:#ffffff;stroke:#000000;"/>
    </g>
    <g id="line2d_114">
     <path d="
M89.28 62.0617
L109.44 62.0617" style="fill:none;stroke:#0000ff;"/>
    </g>
    <g id="line2d_115"/>
    <g id="text_23">
     <!-- Outer event horizon -->
     <defs>
      <path d="
M39.4062 66.2188
Q28.6562 66.2188 22.3281 58.2031
Q16.0156 50.2031 16.0156 36.375
Q16.0156 22.6094 22.3281 14.5938
Q28.6562 6.59375 39.4062 6.59375
Q50.1406 6.59375 56.4219 14.5938
Q62.7031 22.6094 62.7031 36.375
Q62.7031 50.2031 56.4219 58.2031
Q50.1406 66.2188 39.4062 66.2188
M39.4062 74.2188
Q54.7344 74.2188 63.9062 63.9375
Q73.0938 53.6562 73.0938 36.375
Q73.0938 19.1406 63.9062 8.85938
Q54.7344 -1.42188 39.4062 -1.42188
Q24.0312 -1.42188 14.8125 8.82812
Q5.60938 19.0938 5.60938 36.375
Q5.60938 53.6562 14.8125 63.9375
Q24.0312 74.2188 39.4062 74.2188" id="DejaVuSans-4f"/>
      <path d="
M2.98438 54.6875
L12.5 54.6875
L29.5938 8.79688
L46.6875 54.6875
L56.2031 54.6875
L35.6875 0
L23.4844 0
z
" id="DejaVuSans-76"/>
      <path d="
M30.6094 48.3906
Q23.3906 48.3906 19.1875 42.75
Q14.9844 37.1094 14.9844 27.2969
Q14.9844 17.4844 19.1562 11.8438
Q23.3438 6.20312 30.6094 6.20312
Q37.7969 6.20312 41.9844 11.8594
Q46.1875 17.5312 46.1875 27.2969
Q46.1875 37.0156 41.9844 42.7031
Q37.7969 48.3906 30.6094 48.3906
M30.6094 56
Q42.3281 56 49.0156 48.375
Q55.7188 40.7656 55.7188 27.2969
Q55.7188 13.875 49.0156 6.21875
Q42.3281 -1.42188 30.6094 -1.42188
Q18.8438 -1.42188 12.1719 6.21875
Q5.51562 13.875 5.51562 27.2969
Q5.51562 40.7656 12.1719 48.375
Q18.8438 56 30.6094 56" id="DejaVuSans-6f"/>
      <path d="
M54.8906 33.0156
L54.8906 0
L45.9062 0
L45.9062 32.7188
Q45.9062 40.4844 42.875 44.3281
Q39.8438 48.1875 33.7969 48.1875
Q26.5156 48.1875 22.3125 43.5469
Q18.1094 38.9219 18.1094 30.9062
L18.1094 0
L9.07812 0
L9.07812 54.6875
L18.1094 54.6875
L18.1094 46.1875
Q21.3438 51.125 25.7031 53.5625
Q30.0781 56 35.7969 56
Q45.2188 56 50.0469 50.1719
Q54.8906 44.3438 54.8906 33.0156" id="DejaVuSans-6e"/>
      <path d="
M5.51562 54.6875
L48.1875 54.6875
L48.1875 46.4844
L14.4062 7.17188
L48.1875 7.17188
L48.1875 0
L4.29688 0
L4.29688 8.20312
L38.0938 47.5156
L5.51562 47.5156
z
" id="DejaVuSans-7a"/>
      <path id="DejaVuSans-20"/>
      <path d="
M54.8906 33.0156
L54.8906 0
L45.9062 0
L45.9062 32.7188
Q45.9062 40.4844 42.875 44.3281
Q39.8438 48.1875 33.7969 48.1875
Q26.5156 48.1875 22.3125 43.5469
Q18.1094 38.9219 18.1094 30.9062
L18.1094 0
L9.07812 0
L9.07812 75.9844
L18.1094 75.9844
L18.1094 46.1875
Q21.3438 51.125 25.7031 53.5625
Q30.0781 56 35.7969 56
Q45.2188 56 50.0469 50.1719
Q54.8906 44.3438 54.8906 33.0156" id="DejaVuSans-68"/>
      <path d="
M9.42188 54.6875
L18.4062 54.6875
L18.4062 0
L9.42188 0
z

M9.42188 75.9844
L18.4062 75.9844
L18.4062 64.5938
L9.42188 64.5938
z
" id="DejaVuSans-69"/>
      <path d="
M8.5 21.5781
L8.5 54.6875
L17.4844 54.6875
L17.4844 21.9219
Q17.4844 14.1562 20.5 10.2656
Q23.5312 6.39062 29.5938 6.39062
Q36.8594 6.39062 41.0781 11.0312
Q45.3125 15.6719 45.3125 23.6875
L45.3125 54.6875
L54.2969 54.6875
L54.2969 0
L45.3125 0
L45.3125 8.40625
Q42.0469 3.42188 37.7188 1
Q33.4062 -1.42188 27.6875 -1.42188
Q18.2656 -1.42188 13.375 4.4375
Q8.5 10.2969 8.5 21.5781
M31.1094 56
z
" id="DejaVuSans-75"/>
      <path d="
M18.3125 70.2188
L18.3125 54.6875
L36.8125 54.6875
L36.8125 47.7031
L18.3125 47.7031
L18.3125 18.0156
Q18.3125 11.3281 20.1406 9.42188
Q21.9688 7.51562 27.5938 7.51562
L36.8125 7.51562
L36.8125 0
L27.5938 0
Q17.1875 0 13.2344 3.875
Q9.28125 7.76562 9.28125 18.0156
L9.28125 47.7031
L2.6875 47.7031
L2.6875 54.6875
L9.28125 54.6875
L9.28125 70.2188
z
" id="DejaVuSans-74"/>
      <path d="
M56.2031 29.5938
L56.2031 25.2031
L14.8906 25.2031
Q15.4844 15.9219 20.4844 11.0625
Q25.4844 6.20312 34.4219 6.20312
Q39.5938 6.20312 44.4531 7.46875
Q49.3125 8.73438 54.1094 11.2812
L54.1094 2.78125
Q49.2656 0.734375 44.1875 -0.34375
Q39.1094 -1.42188 33.8906 -1.42188
Q20.7969 -1.42188 13.1562 6.1875
Q5.51562 13.8125 5.51562 26.8125
Q5.51562 40.2344 12.7656 48.1094
Q20.0156 56 32.3281 56
Q43.3594 56 49.7812 48.8906
Q56.2031 41.7969 56.2031 29.5938
M47.2188 32.2344
Q47.125 39.5938 43.0938 43.9844
Q39.0625 48.3906 32.4219 48.3906
Q24.9062 48.3906 20.3906 44.1406
Q15.875 39.8906 15.1875 32.1719
z
" id="DejaVuSans-65"/>
      <path d="
M41.1094 46.2969
Q39.5938 47.1719 37.8125 47.5781
Q36.0312 48 33.8906 48
Q26.2656 48 22.1875 43.0469
Q18.1094 38.0938 18.1094 28.8125
L18.1094 0
L9.07812 0
L9.07812 54.6875
L18.1094 54.6875
L18.1094 46.1875
Q20.9531 51.1719 25.4844 53.5781
Q30.0312 56 36.5312 56
Q37.4531 56 38.5781 55.875
Q39.7031 55.7656 41.0625 55.5156
z
" id="DejaVuSans-72"/>
     </defs>
     <g transform="translate(125.28 67.10175)scale(0.144 -0.144)">
      <use xlink:href="#DejaVuSans-4f"/>
      <use x="78.7109375" xlink:href="#DejaVuSans-75"/>
      <use x="142.08984375" xlink:href="#DejaVuSans-74"/>
      <use x="181.298828125" xlink:href="#DejaVuSans-65"/>
      <use x="242.822265625" xlink:href="#DejaVuSans-72"/>
      <use x="283.935546875" xlink:href="#DejaVuSans-20"/>
      <use x="315.72265625" xlink:href="#DejaVuSans-65"/>
      <use x="377.24609375" xlink:href="#DejaVuSans-76"/>
      <use x="436.42578125" xlink:href="#DejaVuSans-65"/>
      <use x="497.94921875" xlink:href="#DejaVuSans-6e"/>
      <use x="561.328125" xlink:href="#DejaVuSans-74"/>
      <use x="600.537109375" xlink:href="#DejaVuSans-20"/>
      <use x="632.32421875" xlink:href="#DejaVuSans-68"/>
      <use x="695.703125" xlink:href="#DejaVuSans-6f"/>
      <use x="756.884765625" xlink:href="#DejaVuSans-72"/>
      <use x="797.998046875" xlink:href="#DejaVuSans-69"/>
      <use x="825.78125" xlink:href="#DejaVuSans-7a"/>
      <use x="878.271484375" xlink:href="#DejaVuSans-6f"/>
      <use x="939.453125" xlink:href="#DejaVuSans-6e"/>
     </g>
    </g>
    <g id="line2d_116">
     <path d="
M89.28 83.1983
L109.44 83.1983" style="fill:none;stroke:#ff0000;stroke-dasharray:6.000000,6.000000;stroke-dashoffset:0.0;stroke-linecap:butt;"/>
    </g>
    <g id="line2d_117"/>
    <g id="text_24">
     <!-- Inner event horizon -->
     <defs>
      <path d="
M9.8125 72.9062
L19.6719 72.9062
L19.6719 0
L9.8125 0
z
" id="DejaVuSans-49"/>
     </defs>
     <g transform="translate(125.28 88.23825)scale(0.144 -0.144)">
      <use xlink:href="#DejaVuSans-49"/>
      <use x="29.4921875" xlink:href="#DejaVuSans-6e"/>
      <use x="92.87109375" xlink:href="#DejaVuSans-6e"/>
      <use x="156.25" xlink:href="#DejaVuSans-65"/>
      <use x="217.7734375" xlink:href="#DejaVuSans-72"/>
      <use x="258.88671875" xlink:href="#DejaVuSans-20"/>
      <use x="290.673828125" xlink:href="#DejaVuSans-65"/>
      <use x="352.197265625" xlink:href="#DejaVuSans-76"/>
      <use x="411.376953125" xlink:href="#DejaVuSans-65"/>
      <use x="472.900390625" xlink:href="#DejaVuSans-6e"/>
      <use x="536.279296875" xlink:href="#DejaVuSans-74"/>
      <use x="575.48828125" xlink:href="#DejaVuSans-20"/>
      <use x="607.275390625" xlink:href="#DejaVuSans-68"/>
      <use x="670.654296875" xlink:href="#DejaVuSans-6f"/>
      <use x="731.8359375" xlink:href="#DejaVuSans-72"/>
      <use x="772.94921875" xlink:href="#DejaVuSans-69"/>
      <use x="800.732421875" xlink:href="#DejaVuSans-7a"/>
      <use x="853.22265625" xlink:href="#DejaVuSans-6f"/>
      <use x="914.404296875" xlink:href="#DejaVuSans-6e"/>
     </g>
    </g>
    <g id="line2d_118">
     <path d="
M89.28 104.335
L109.44 104.335" style="fill:none;stroke:#008000;stroke-dasharray:6.000000,6.000000;stroke-dashoffset:0.0;stroke-linecap:butt;"/>
    </g>
    <g id="line2d_119"/>
    <g id="text_25">
     <!-- Ergosphere boundary -->
     <defs>
      <path d="
M9.8125 72.9062
L55.9062 72.9062
L55.9062 64.5938
L19.6719 64.5938
L19.6719 43.0156
L54.3906 43.0156
L54.3906 34.7188
L19.6719 34.7188
L19.6719 8.29688
L56.7812 8.29688
L56.7812 0
L9.8125 0
z
" id="DejaVuSans-45"/>
      <path d="
M32.1719 -5.07812
Q28.375 -14.8438 24.75 -17.8125
Q21.1406 -20.7969 15.0938 -20.7969
L7.90625 -20.7969
L7.90625 -13.2812
L13.1875 -13.2812
Q16.8906 -13.2812 18.9375 -11.5156
Q21 -9.76562 23.4844 -3.21875
L25.0938 0.875
L2.98438 54.6875
L12.5 54.6875
L29.5938 11.9219
L46.6875 54.6875
L56.2031 54.6875
z
" id="DejaVuSans-79"/>
      <path d="
M45.4062 27.9844
Q45.4062 37.75 41.375 43.1094
Q37.3594 48.4844 30.0781 48.4844
Q22.8594 48.4844 18.8281 43.1094
Q14.7969 37.75 14.7969 27.9844
Q14.7969 18.2656 18.8281 12.8906
Q22.8594 7.51562 30.0781 7.51562
Q37.3594 7.51562 41.375 12.8906
Q45.4062 18.2656 45.4062 27.9844
M54.3906 6.78125
Q54.3906 -7.17188 48.1875 -13.9844
Q42 -20.7969 29.2031 -20.7969
Q24.4688 -20.7969 20.2656 -20.0938
Q16.0625 -19.3906 12.1094 -17.9219
L12.1094 -9.1875
Q16.0625 -11.3281 19.9219 -12.3438
Q23.7812 -13.375 27.7812 -13.375
Q36.625 -13.375 41.0156 -8.76562
Q45.4062 -4.15625 45.4062 5.17188
L45.4062 9.625
Q42.625 4.78125 38.2812 2.39062
Q33.9375 0 27.875 0
Q17.8281 0 11.6719 7.65625
Q5.51562 15.3281 5.51562 27.9844
Q5.51562 40.6719 11.6719 48.3281
Q17.8281 56 27.875 56
Q33.9375 56 38.2812 53.6094
Q42.625 51.2188 45.4062 46.3906
L45.4062 54.6875
L54.3906 54.6875
z
" id="DejaVuSans-67"/>
      <path d="
M45.4062 46.3906
L45.4062 75.9844
L54.3906 75.9844
L54.3906 0
L45.4062 0
L45.4062 8.20312
Q42.5781 3.32812 38.25 0.953125
Q33.9375 -1.42188 27.875 -1.42188
Q17.9688 -1.42188 11.7344 6.48438
Q5.51562 14.4062 5.51562 27.2969
Q5.51562 40.1875 11.7344 48.0938
Q17.9688 56 27.875 56
Q33.9375 56 38.25 53.625
Q42.5781 51.2656 45.4062 46.3906
M14.7969 27.2969
Q14.7969 17.3906 18.875 11.75
Q22.9531 6.10938 30.0781 6.10938
Q37.2031 6.10938 41.2969 11.75
Q45.4062 17.3906 45.4062 27.2969
Q45.4062 37.2031 41.2969 42.8438
Q37.2031 48.4844 30.0781 48.4844
Q22.9531 48.4844 18.875 42.8438
Q14.7969 37.2031 14.7969 27.2969" id="DejaVuSans-64"/>
      <path d="
M48.6875 27.2969
Q48.6875 37.2031 44.6094 42.8438
Q40.5312 48.4844 33.4062 48.4844
Q26.2656 48.4844 22.1875 42.8438
Q18.1094 37.2031 18.1094 27.2969
Q18.1094 17.3906 22.1875 11.75
Q26.2656 6.10938 33.4062 6.10938
Q40.5312 6.10938 44.6094 11.75
Q48.6875 17.3906 48.6875 27.2969
M18.1094 46.3906
Q20.9531 51.2656 25.2656 53.625
Q29.5938 56 35.5938 56
Q45.5625 56 51.7812 48.0938
Q58.0156 40.1875 58.0156 27.2969
Q58.0156 14.4062 51.7812 6.48438
Q45.5625 -1.42188 35.5938 -1.42188
Q29.5938 -1.42188 25.2656 0.953125
Q20.9531 3.32812 18.1094 8.20312
L18.1094 0
L9.07812 0
L9.07812 75.9844
L18.1094 75.9844
z
" id="DejaVuSans-62"/>
      <path d="
M18.1094 8.20312
L18.1094 -20.7969
L9.07812 -20.7969
L9.07812 54.6875
L18.1094 54.6875
L18.1094 46.3906
Q20.9531 51.2656 25.2656 53.625
Q29.5938 56 35.5938 56
Q45.5625 56 51.7812 48.0938
Q58.0156 40.1875 58.0156 27.2969
Q58.0156 14.4062 51.7812 6.48438
Q45.5625 -1.42188 35.5938 -1.42188
Q29.5938 -1.42188 25.2656 0.953125
Q20.9531 3.32812 18.1094 8.20312
M48.6875 27.2969
Q48.6875 37.2031 44.6094 42.8438
Q40.5312 48.4844 33.4062 48.4844
Q26.2656 48.4844 22.1875 42.8438
Q18.1094 37.2031 18.1094 27.2969
Q18.1094 17.3906 22.1875 11.75
Q26.2656 6.10938 33.4062 6.10938
Q40.5312 6.10938 44.6094 11.75
Q48.6875 17.3906 48.6875 27.2969" id="DejaVuSans-70"/>
      <path d="
M44.2812 53.0781
L44.2812 44.5781
Q40.4844 46.5312 36.375 47.5
Q32.2812 48.4844 27.875 48.4844
Q21.1875 48.4844 17.8438 46.4375
Q14.5 44.3906 14.5 40.2812
Q14.5 37.1562 16.8906 35.375
Q19.2812 33.5938 26.5156 31.9844
L29.5938 31.2969
Q39.1562 29.25 43.1875 25.5156
Q47.2188 21.7812 47.2188 15.0938
Q47.2188 7.46875 41.1875 3.01562
Q35.1562 -1.42188 24.6094 -1.42188
Q20.2188 -1.42188 15.4531 -0.5625
Q10.6875 0.296875 5.42188 2
L5.42188 11.2812
Q10.4062 8.6875 15.2344 7.39062
Q20.0625 6.10938 24.8125 6.10938
Q31.1562 6.10938 34.5625 8.28125
Q37.9844 10.4531 37.9844 14.4062
Q37.9844 18.0625 35.5156 20.0156
Q33.0625 21.9688 24.7031 23.7812
L21.5781 24.5156
Q13.2344 26.2656 9.51562 29.9062
Q5.8125 33.5469 5.8125 39.8906
Q5.8125 47.6094 11.2812 51.7969
Q16.75 56 26.8125 56
Q31.7812 56 36.1719 55.2656
Q40.5781 54.5469 44.2812 53.0781" id="DejaVuSans-73"/>
      <path d="
M34.2812 27.4844
Q23.3906 27.4844 19.1875 25
Q14.9844 22.5156 14.9844 16.5
Q14.9844 11.7188 18.1406 8.90625
Q21.2969 6.10938 26.7031 6.10938
Q34.1875 6.10938 38.7031 11.4062
Q43.2188 16.7031 43.2188 25.4844
L43.2188 27.4844
z

M52.2031 31.2031
L52.2031 0
L43.2188 0
L43.2188 8.29688
Q40.1406 3.32812 35.5469 0.953125
Q30.9531 -1.42188 24.3125 -1.42188
Q15.9219 -1.42188 10.9531 3.29688
Q6 8.01562 6 15.9219
Q6 25.1406 12.1719 29.8281
Q18.3594 34.5156 30.6094 34.5156
L43.2188 34.5156
L43.2188 35.4062
Q43.2188 41.6094 39.1406 45
Q35.0625 48.3906 27.6875 48.3906
Q23 48.3906 18.5469 47.2656
Q14.1094 46.1406 10.0156 43.8906
L10.0156 52.2031
Q14.9375 54.1094 19.5781 55.0469
Q24.2188 56 28.6094 56
Q40.4844 56 46.3438 49.8438
Q52.2031 43.7031 52.2031 31.2031" id="DejaVuSans-61"/>
     </defs>
     <g transform="translate(125.28 109.37475)scale(0.144 -0.144)">
      <use xlink:href="#DejaVuSans-45"/>
      <use x="63.18359375" xlink:href="#DejaVuSans-72"/>
      <use x="102.546875" xlink:href="#DejaVuSans-67"/>
      <use x="166.0234375" xlink:href="#DejaVuSans-6f"/>
      <use x="227.205078125" xlink:href="#DejaVuSans-73"/>
      <use x="279.3046875" xlink:href="#DejaVuSans-70"/>
      <use x="342.78125" xlink:href="#DejaVuSans-68"/>
      <use x="406.16015625" xlink:href="#DejaVuSans-65"/>
      <use x="467.68359375" xlink:href="#DejaVuSans-72"/>
      <use x="506.546875" xlink:href="#DejaVuSans-65"/>
      <use x="568.0703125" xlink:href="#DejaVuSans-20"/>
      <use x="599.857421875" xlink:href="#DejaVuSans-62"/>
      <use x="663.333984375" xlink:href="#DejaVuSans-6f"/>
      <use x="724.515625" xlink:href="#DejaVuSans-75"/>
      <use x="787.89453125" xlink:href="#DejaVuSans-6e"/>
      <use x="851.2734375" xlink:href="#DejaVuSans-64"/>
      <use x="914.75" xlink:href="#DejaVuSans-61"/>
      <use x="976.029296875" xlink:href="#DejaVuSans-72"/>
      <use x="1017.14257812" xlink:href="#DejaVuSans-79"/>
     </g>
    </g>
   </g>
  </g>
 </g>
 <defs>
  <clipPath id="p7ff5b81e1d">
   <rect height="345.6" width="446.4" x="72.0" y="43.2"/>
  </clipPath>
 </defs>
</svg>
